<svg id="Capa_1" enable-background="new 0 0 512 512" height="512" viewBox="0 0 512 512" width="512" xmlns="http://www.w3.org/2000/svg"><path d="m333.502 285.666v141.772l28.349 25.239c6.447 5.74 16.649 1.163 16.649-7.469v-172.208z" fill="#c5e6ff"/><path d="m378.5 273v172.21c0 8.63-10.2 13.21-16.65 7.47l-13.35-11.89v-159.34z" fill="#8dd1f7"/><path d="m133.502 273v172.208c0 8.632 10.202 13.209 16.649 7.469l28.349-25.239v-150.438z" fill="#c5e6ff"/><path d="m333.5 318.5v170.993c0 12.979-15.408 19.815-25.054 11.115l-42.391-38.231c-5.711-5.15-14.398-5.15-20.109 0l-42.391 38.231c-9.647 8.7-25.054 1.865-25.054-11.115v-170.993z" fill="#ff9797"/><path d="m333.5 318.5v170.99c0 12.98-15.41 19.82-25.05 11.12l-6.03-5.44c.69-1.71 1.08-3.62 1.08-5.68v-170.99z" fill="#ea6e6e"/><path d="m303.5 318.5v125.73c0 4.33-5.14 6.62-8.36 3.71l-8.94-8.1c-5.589-5.062-12.137-8.472-19.013-10.23-2.185-.559-3.687-2.565-3.687-4.821v-80.036c0-3.813-2.739-7.212-6.522-7.691-4.576-.58-8.478 2.976-8.478 7.438v80.289c0 2.255-1.502 4.262-3.687 4.821-6.876 1.758-13.425 5.168-19.013 10.23l-8.94 8.1c-3.22 2.91-8.36.62-8.36-3.71v-125.73z" fill="#ffd9e6"/><path d="m415.278 151.251c-7.883-7.742-10.791-19.288-7.902-29.953 2.518-9.294 1.477-19.55-3.718-28.548-5.303-9.185-13.905-15.277-23.446-17.643-10.446-2.591-18.727-10.873-21.318-21.318-2.367-9.54-8.458-18.142-17.643-23.445-8.999-5.195-19.254-6.236-28.548-3.719-10.665 2.889-22.211-.02-29.953-7.902-6.804-6.928-16.274-11.223-26.75-11.223-10.476 0-19.946 4.296-26.749 11.222-7.742 7.883-19.288 10.791-29.953 7.903-9.294-2.518-19.55-1.477-28.548 3.718-9.186 5.303-15.277 13.905-17.643 23.446-2.591 10.446-10.873 18.727-21.318 21.318-9.54 2.367-18.142 8.458-23.446 17.643-5.195 8.999-6.236 19.254-3.718 28.548 2.889 10.665-.02 22.211-7.902 29.953-6.927 6.802-11.223 16.273-11.223 26.749 0 10.476 4.296 19.946 11.222 26.749 7.883 7.742 10.791 19.288 7.902 29.953-2.518 9.294-1.477 19.55 3.718 28.548 5.303 9.186 13.905 15.277 23.446 17.643 10.446 2.591 18.727 10.873 21.318 21.318 2.367 9.54 8.458 18.142 17.643 23.446 8.999 5.195 19.254 6.236 28.548 3.718 10.665-2.889 22.211.02 29.953 7.902 6.802 6.926 16.273 11.222 26.749 11.222 10.476 0 19.946-4.296 26.749-11.222 7.742-7.883 19.288-10.791 29.953-7.902 9.294 2.518 19.55 1.477 28.548-3.718 9.185-5.303 15.277-13.905 17.643-23.446 2.591-10.446 10.873-18.727 21.318-21.318 9.54-2.367 18.142-8.458 23.446-17.643 5.195-8.999 6.236-19.254 3.718-28.548-2.889-10.665.02-22.211 7.902-29.953 6.926-6.802 11.222-16.273 11.222-26.749.002-10.476-4.294-19.947-11.22-26.749z" fill="#ac95f4"/><path d="m415.28 204.75c-7.88 7.74-10.79 19.29-7.9 29.95.86 3.19 1.31 6.5 1.31 9.83 0 6.37-1.62 12.81-5.03 18.72-5.31 9.19-13.91 15.28-23.45 17.64-10.44 2.59-18.73 10.88-21.32 21.32-1.18 4.77-3.29 9.31-6.26 13.31-2.97 4.01-6.79 7.48-11.38 10.14-9 5.19-19.25 6.23-28.55 3.72-2.33-.63-4.7-.98-7.07-1.06 1.91-.72 3.79-1.61 5.62-2.66 4.59-2.66 8.41-6.13 11.38-10.14 2.97-4 5.08-8.54 6.26-13.31 2.59-10.44 10.88-18.73 21.32-21.32 9.54-2.36 18.14-8.45 23.45-17.64 3.41-5.91 5.03-12.35 5.03-18.72 0-3.33-.45-6.64-1.31-9.83-2.89-10.66.02-22.21 7.9-29.95 6.92-6.8 11.22-16.27 11.22-26.75 0-5.24-1.08-10.23-3.02-14.76-1.94-4.52-4.74-8.59-8.2-11.99-7.88-7.74-10.79-19.29-7.9-29.95 2.51-9.3 1.47-19.55-3.72-28.55-2.66-4.59-6.13-8.41-10.14-11.38-4-2.97-8.54-5.08-13.31-6.26-10.44-2.59-18.73-10.88-21.32-21.32-2.36-9.54-8.45-18.14-17.64-23.45-1.83-1.05-3.71-1.94-5.62-2.66 2.37-.08 4.74-.43 7.07-1.06 3.19-.86 6.5-1.31 9.83-1.31 6.37 0 12.81 1.62 18.72 5.03 9.19 5.31 15.28 13.91 17.64 23.45 2.59 10.44 10.88 18.73 21.32 21.32 4.77 1.18 9.31 3.29 13.31 6.26 4.01 2.97 7.48 6.79 10.14 11.38 5.19 9 6.23 19.25 3.72 28.55-2.89 10.66.02 22.21 7.9 29.95 3.46 3.4 6.26 7.47 8.2 11.99 1.94 4.53 3.02 9.52 3.02 14.76 0 10.48-4.3 19.95-11.22 26.75z" fill="#7f6bd1"/><path d="m256 295.5c-64.894 0-117.5-52.606-117.5-117.5 0-64.893 52.606-117.5 117.5-117.5 64.893 0 117.5 52.606 117.5 117.5 0 64.893-52.606 117.5-117.5 117.5z" fill="#ffd67b"/><path d="m256 265.5c-48.325 0-87.5-39.175-87.5-87.5 0-48.325 39.175-87.5 87.5-87.5 48.325 0 87.5 39.175 87.5 87.5 0 48.325-39.175 87.5-87.5 87.5z" fill="#efb259"/><path d="m343.5 178c0 24.16-9.8 46.04-25.63 61.87s-37.71 25.63-61.87 25.63c-5.11 0-10.13-.44-15-1.29 18.15-3.13 34.39-11.86 46.87-24.34 15.83-15.83 25.63-37.71 25.63-61.87s-9.8-46.04-25.63-61.87c-12.48-12.48-28.72-21.21-46.87-24.34 4.87-.85 9.89-1.29 15-1.29 24.16 0 46.04 9.8 61.87 25.63s25.63 37.71 25.63 61.87z" fill="#e8963d"/><path d="m260.484 140.672 9.433 19.114c.728 1.476 2.136 2.499 3.765 2.735l21.094 3.065c4.101.596 5.739 5.636 2.771 8.528l-15.264 14.878c-1.178 1.149-1.716 2.804-1.438 4.426l3.603 21.009c.701 4.085-3.587 7.199-7.255 5.271l-18.867-9.919c-1.457-.766-3.197-.766-4.653 0l-18.867 9.919c-3.668 1.928-7.955-1.186-7.255-5.271l3.603-21.009c.278-1.622-.26-3.277-1.438-4.426l-15.264-14.878c-2.968-2.893-1.33-7.933 2.771-8.528l21.094-3.065c1.629-.237 3.036-1.259 3.765-2.735l9.433-19.114c1.835-3.717 7.135-3.717 8.969 0z" fill="#fff"/><path d="m256 52.998c-68.923 0-124.996 56.073-124.996 124.996s56.073 124.996 124.996 124.996 124.996-56.073 124.996-124.996-56.073-124.996-124.996-124.996zm0 234.993c-60.652 0-109.997-49.344-109.997-109.997s49.345-109.996 109.997-109.996 109.996 49.344 109.996 109.997-49.344 109.996-109.996 109.996z"/><path d="m256 82.997c-52.381 0-94.997 42.615-94.997 94.997s42.616 94.997 94.997 94.997 94.997-42.615 94.997-94.997-42.616-94.997-94.997-94.997zm0 174.995c-44.111 0-79.997-35.887-79.997-79.997s35.886-79.998 79.997-79.998 79.997 35.887 79.997 79.997-35.886 79.998-79.997 79.998z"/><path d="m433.994 177.994c0-12.17-4.782-23.57-13.465-32.098-5.872-5.767-8.14-14.443-5.919-22.641 3.154-11.644 1.569-23.81-4.463-34.257-6.167-10.683-16.158-18.202-28.134-21.173-7.713-1.913-13.931-8.133-15.844-15.845-2.972-11.975-10.491-21.967-21.172-28.133-10.447-6.032-22.615-7.617-34.258-4.463-8.203 2.223-16.874-.048-22.641-5.918-8.528-8.684-19.928-13.466-32.098-13.466s-23.57 4.782-32.099 13.466c-5.767 5.872-14.441 8.139-22.641 5.919-11.645-3.154-23.812-1.57-34.258 4.462-10.683 6.168-18.203 16.159-21.172 28.134-1.913 7.712-8.132 13.931-15.844 15.844-11.976 2.971-21.967 10.49-28.134 21.172-6.032 10.447-7.617 22.614-4.463 34.259 2.222 8.197-.047 16.873-5.918 22.64-8.684 8.529-13.466 19.928-13.466 32.098s4.782 23.57 13.465 32.098c5.872 5.767 8.14 14.443 5.919 22.641-3.154 11.644-1.569 23.81 4.463 34.257 5.469 9.475 13.951 16.452 24.154 19.984v38.514c0 4.142 3.357 7.5 7.5 7.5 4.142 0 7.5-3.358 7.5-7.5v-30.593c2.288 2.584 3.979 5.701 4.825 9.112 2.972 11.975 10.491 21.967 21.172 28.133 1.308.755 2.643 1.44 4 2.055v89.863l-25.835 23.001c-1.051.935-2.135.661-2.685.414-.552-.248-1.477-.873-1.477-2.281v-84.706c0-4.142-3.357-7.5-7.5-7.5-4.142 0-7.5 3.358-7.5 7.5v84.706c0 6.988 3.961 13.106 10.337 15.966 2.344 1.051 4.8 1.566 7.227 1.566 4.177 0 8.271-1.524 11.572-4.463l15.861-14.121v45.334c0 9.004 5.115 16.872 13.348 20.534 8.246 3.668 17.529 2.192 24.229-3.85l42.388-38.229c2.869-2.588 7.196-2.586 10.063 0l42.39 38.23c4.261 3.843 9.566 5.838 14.987 5.838 3.101 0 6.24-.654 9.241-1.988 8.233-3.662 13.348-11.53 13.348-20.534v-45.336l15.863 14.123c3.302 2.939 7.394 4.463 11.572 4.463 2.428 0 4.884-.515 7.227-1.566 6.376-2.86 10.337-8.978 10.337-15.966v-84.206c0-4.142-3.357-7.5-7.5-7.5-4.142 0-7.5 3.358-7.5 7.5v84.206c0 1.408-.925 2.033-1.477 2.281-.551.247-1.633.523-2.685-.414l-25.837-23.003v-89.862c1.357-.615 2.692-1.3 4-2.055 10.683-6.168 18.203-16.159 21.172-28.134.846-3.412 2.538-6.53 4.827-9.114v31.096c0 4.142 3.357 7.5 7.5 7.5 4.142 0 7.5-3.358 7.5-7.5v-39.015c10.202-3.532 18.683-10.51 24.152-19.983 6.032-10.447 7.617-22.614 4.463-34.259-2.222-8.197.047-16.873 5.918-22.64 8.683-8.527 13.465-19.927 13.465-32.097zm-107.996 311.484c0 4.502-3.401 6.365-4.444 6.828-1.046.465-4.723 1.751-8.087-1.283l-42.39-38.23c-8.595-7.752-21.559-7.752-30.154 0l-42.388 38.229c-3.363 3.033-7.041 1.749-8.088 1.284-1.043-.464-4.444-2.327-4.444-6.828v-151.423c4.976.384 10.034-.073 15-1.387v107.547c0 4.938 2.917 9.424 7.431 11.426 1.625.721 3.35 1.073 5.062 1.073 3.045 0 6.052-1.111 8.394-3.232l8.944-8.096c7.02-6.355 15.785-9.592 24.589-9.728.191.015.383.029.578.029s.386-.015.577-.029c8.803.136 17.569 3.373 24.589 9.728l8.944 8.096c3.66 3.314 8.943 4.162 13.457 2.159 4.515-2.002 7.431-6.488 7.431-11.426v-107.548c4.966 1.314 10.023 1.771 15 1.387v151.424zm-62.498-134.119c9.302-1.55 17.851-5.966 24.599-12.836 2.255-2.296 4.958-4.032 7.9-5.173v101.23l-4.766-4.314c-8.044-7.282-17.726-11.64-27.733-13.089zm-15 65.817c-10.007 1.45-19.689 5.807-27.733 13.089l-4.766 4.314v-101.23c2.942 1.141 5.645 2.878 7.9 5.174 6.748 6.871 15.297 11.287 24.599 12.836zm161.518-221.784c-9.734 9.562-13.522 23.841-9.885 37.263 2.102 7.762 1.046 15.873-2.975 22.837-4.111 7.12-10.772 12.132-18.755 14.113-13.241 3.284-23.507 13.55-26.791 26.791-1.98 7.983-6.993 14.644-14.114 18.755-6.964 4.019-15.074 5.078-22.836 2.974-13.424-3.636-27.703.152-37.263 9.886-5.686 5.789-13.286 8.977-21.398 8.977s-15.711-3.188-21.398-8.977c-7.159-7.289-16.963-11.244-27.074-11.244-3.391 0-6.817.445-10.189 1.358-7.761 2.102-15.873 1.046-22.836-2.975-7.121-4.111-12.132-10.772-14.114-18.755-3.284-13.241-13.549-23.507-26.791-26.791-7.983-1.981-14.644-6.993-18.755-14.114-4.02-6.964-5.077-15.074-2.975-22.836 3.637-13.424-.151-27.703-9.885-37.264-5.789-5.686-8.977-13.285-8.977-21.397s3.188-15.711 8.977-21.397c9.734-9.562 13.522-23.841 9.885-37.263-2.102-7.762-1.046-15.873 2.975-22.837 4.111-7.12 10.772-12.132 18.755-14.113 13.241-3.284 23.507-13.55 26.791-26.791 1.98-7.983 6.993-14.644 14.114-18.755 6.963-4.02 15.073-5.079 22.836-2.974 13.428 3.636 27.704-.152 37.263-9.886 5.686-5.79 13.285-8.977 21.397-8.977s15.711 3.188 21.398 8.977c9.56 9.734 23.836 13.523 37.263 9.886 7.761-2.102 15.873-1.046 22.836 2.975 7.121 4.111 12.132 10.772 14.114 18.755 3.284 13.241 13.549 23.507 26.791 26.791 7.983 1.981 14.644 6.993 18.755 14.114 4.02 6.964 5.077 15.074 2.975 22.836-3.637 13.424.151 27.703 9.885 37.264 5.789 5.686 8.977 13.285 8.977 21.397s-3.188 15.711-8.976 21.397z"/><path d="m295.852 158.16-19.792-2.876-8.851-17.935c-2.121-4.298-6.416-6.968-11.209-6.968s-9.088 2.67-11.209 6.968l-8.851 17.935-19.793 2.876c-4.743.689-8.609 3.949-10.09 8.508-1.48 4.558-.269 9.467 3.163 12.813l14.323 13.96-3.382 19.713c-.81 4.724 1.097 9.408 4.974 12.225 2.19 1.591 4.754 2.4 7.334 2.4 1.986 0 3.984-.479 5.829-1.449l17.702-9.308 17.703 9.307c4.241 2.23 9.285 1.866 13.163-.95 3.878-2.817 5.784-7.501 4.973-12.226l-3.381-19.712 14.323-13.96c3.432-3.346 4.643-8.255 3.163-12.813-1.482-4.559-5.348-7.819-10.092-8.508zm-18.805 25.457c-2.947 2.872-4.291 7.009-3.595 11.064l2.747 16.015-14.384-7.562c-1.82-.957-3.817-1.435-5.815-1.435-1.997 0-3.996.479-5.817 1.436l-14.382 7.562 2.747-16.015c.696-4.056-.647-8.192-3.595-11.065l-11.636-11.342 16.083-2.337c4.071-.592 7.589-3.148 9.41-6.838l7.19-14.571 7.191 14.571c1.821 3.689 5.339 6.245 9.412 6.838l16.081 2.337z"/></svg>