<svg id="Layer_1" enable-background="new 0 0 468 468" height="512" viewBox="0 0 468 468" width="512" xmlns="http://www.w3.org/2000/svg"><g><g><g fill="#fff"><path d="m439.872 398.583h-110.6c-7.872 0-14.312-6.44-14.312-14.312v-24.987c0-37.226 30.177-67.403 67.403-67.403h2.956c37.279 0 67.499 30.22 67.499 67.499v26.258c-.001 7.149-5.797 12.945-12.946 12.945z"/><ellipse cx="384.576" cy="266.092" rx="40.655" ry="40.536"/></g><g fill="#fff"><path d="m139.024 398.583h-109.636c-7.862 0-14.294-6.432-14.294-14.294v-24.516c0-37.496 30.396-67.892 67.892-67.892h2.449c37.288 0 67.517 30.228 67.517 67.517v25.258c0 7.66-6.268 13.927-13.928 13.927z"/><ellipse cx="84.693" cy="266.092" rx="40.655" ry="40.536"/></g><g><g><path d="m317.009 446.901h-163.665c-7.411 0-13.474-6.063-13.474-13.474v-30.297c0-51.435 41.696-93.13 93.13-93.13h3.151c51.305 0 92.897 41.591 92.897 92.897v31.966c-.001 6.621-5.418 12.038-12.039 12.038z" fill="#fff"/><path d="m238.307 407.642c-30.78 0-55.731-25.211-55.731-56v-.126c0-10.563 1.813-20.708 5.474-29.969-28.635 16.232-48.18 46.924-48.18 82.198v29.555c0 7.233 6.302 13.6 13.533 13.6h163.53c7.464 0 13.12-6.612 13.12-14.079v-25.179z" fill="#e6e7e8"/></g><path d="m220.371 336.172h30.188v62.411h-30.188z" fill="#0795fe"/><g><ellipse cx="235.13" cy="279.502" fill="#fff" rx="55.629" ry="55.685"/><path d="m440.321 266.092c0-30.677-25.007-55.635-55.747-55.635s-55.748 24.958-55.748 55.635c0 9.398 2.356 18.108 6.496 25.879-11.042 7.97-20.055 18.744-26.157 31.09-3.774-3.459-7.804-6.637-12.037-9.542 5.555-10.102 8.724-21.695 8.724-34.018 0-39.03-31.726-70.784-70.723-70.784s-70.723 31.754-70.723 70.784c0 12.279 3.144 23.835 8.662 33.911-4.406 3.009-8.595 6.313-12.507 9.917-6.149-12.494-15.319-23.251-26.565-31.312 4.107-7.748 6.445-16.567 6.445-25.926 0-30.677-25.009-55.635-55.749-55.635s-55.749 24.958-55.749 55.635c0 9.326 2.093 18.116 6.173 25.844-21.747 15.582-35.116 41.024-35.116 67.795v24.132c0 16.165 13.477 29.82 29.479 29.82h70.141v-30.199h-69.432v-23.753c0-19.312 10.656-36.253 26.222-45.59 8.247 4.814 17.944 7.588 28.168 7.588s19.864-2.773 28.111-7.587c13.44 8.055 22.881 21.77 25.356 37.807-8.332 15.427-13.268 33.071-13.268 51.801v29.551c0 15.548 13.11 28.7 28.652 28.7h163.505c15.265 0 27.207-12.927 27.207-28.198v-30.316c0-18.874-4.58-36.643-13.048-52.144 2.561-15.656 12.18-29.317 25.387-37.305 8.23 4.787 17.844 7.617 28.037 7.617 10.267 0 19.675-2.759 27.945-7.611 15.386 9.241 25.261 26.089 25.261 45.687v23.754h-68.426v30.199h70.493c15.773 0 28.121-13.655 28.121-29.82v-24.133c2.013-38.244-30.693-65.149-34.26-67.725 4.103-7.745 6.67-16.56 6.67-25.913zm-355.629 25.436c-14.095 0-25.561-11.41-25.561-25.436s11.466-25.437 25.561-25.437 25.561 11.411 25.561 25.437c.001 14.026-11.466 25.436-25.561 25.436zm150.438-52.612c22.351 0 40.535 18.207 40.535 40.585 0 22.38-18.184 40.586-40.535 40.586s-40.535-18.207-40.535-40.586c0-22.378 18.184-40.585 40.535-40.585zm78.823 192.885h-158.989v-28.055c0-27.238 14.66-53.142 37.826-67.415 11.773 8.762 26.461 13.955 42.225 13.955 15.689 0 30.024-5.147 41.767-13.833 22.397 13.929 37.171 38.76 37.171 67.032zm70.623-140.273c-14.095 0-25.561-11.41-25.561-25.436s11.467-25.437 25.561-25.437 25.561 11.411 25.561 25.437-11.466 25.436-25.561 25.436z" fill="#3e4d6c"/></g></g></g><g><path d="m197.227 156.922-45.277-34.185c-3.428-2.591-7.663-3.996-11.964-3.996h-104.713c-10.891 0-20.179-8.799-20.179-19.659v-73.921c0-10.86 9.288-19.161 20.179-19.161h142.13c10.891 0 19.824 8.301 19.824 19.161z" fill="#0795fe"/><path d="m56.351 46.265h99.62v30.199h-99.62z" fill="#fff"/></g><g><path d="m274.709 156.922 45.233-34.185c3.428-2.591 7.619-3.996 11.92-3.996h104.713c10.891 0 19.261-8.799 19.261-19.659v-73.921c0-10.86-8.37-19.161-19.261-19.161h-142.13c-10.891 0-19.736 8.301-19.736 19.161z" fill="#0795fe"/><path d="m315.966 46.265h98.613v30.199h-98.613z" fill="#fff"/></g></g></svg>