<?xml version="1.0" encoding="iso-8859-1"?>
<!-- Generator: Adobe Illustrator 19.0.0, SVG Export Plug-In . SVG Version: 6.00 Build 0)  -->
<svg version="1.1" id="Capa_1" xmlns="http://www.w3.org/2000/svg" xmlns:xlink="http://www.w3.org/1999/xlink" x="0px" y="0px"
	 viewBox="0 0 512 512" style="enable-background:new 0 0 512 512;" xml:space="preserve">
<path style="fill:#EFEFEF;" d="M426.41,0H75.332c-23.43,0-42.423,18.993-42.423,42.422v50.251c0,23.429,18.993,42.422,42.422,42.422
	h20.071l19.36,31.682l19.36-31.682h88.737l33.206,98.17l33.206-98.17h74.47l19.36,31.682l19.36-31.682h23.949
	c23.429,0,42.422-18.993,42.422-42.422V42.422C468.832,18.993,449.839,0,426.41,0z"/>
<g>
	<path style="fill:#494F56;" d="M395.79,92.505H210.36c-4.303,0-7.792-3.489-7.792-7.792s3.489-7.792,7.792-7.792h185.43
		c4.303,0,7.792,3.489,7.792,7.792S400.093,92.505,395.79,92.505z"/>
	<path style="fill:#494F56;" d="M184.386,92.505h-78.433c-4.303,0-7.792-3.489-7.792-7.792s3.489-7.792,7.792-7.792h78.433
		c4.303,0,7.792,3.489,7.792,7.792S188.689,92.505,184.386,92.505z"/>
	<path style="fill:#494F56;" d="M395.79,58.224h-51.419c-4.303,0-7.792-3.489-7.792-7.792s3.489-7.792,7.792-7.792h51.419
		c4.303,0,7.792,3.489,7.792,7.792S400.093,58.224,395.79,58.224z"/>
	<path style="fill:#494F56;" d="M318.396,58.224H105.952c-4.303,0-7.792-3.489-7.792-7.792s3.489-7.792,7.792-7.792h212.444
		c4.303,0,7.792,3.489,7.792,7.792S322.699,58.224,318.396,58.224z"/>
</g>
<path style="fill:#E0C096;" d="M479.59,295.727c14.926,0,27.026,12.1,27.026,27.026s-12.1,27.026-27.026,27.026H331.358
	c-14.926,0-27.026-12.1-27.026-27.026s12.1-27.026,27.026-27.026"/>
<g>
	<path style="fill:#F9DDB4;" d="M337.409,334.592c-2.288,0-4.143-1.854-4.143-4.143c0-3.801-0.911-6.634-2.708-8.421
		c-2.186-2.173-5.118-2.255-5.152-2.255l0,0c-0.008,0-0.017,0-0.025,0c-2.276,0-4.129-1.839-4.142-4.118
		c-0.013-2.288,1.831-4.153,4.118-4.168c0.667,0.003,6.445,0.096,11.043,4.665c3.419,3.398,5.153,8.209,5.153,14.297
		C341.552,332.736,339.698,334.592,337.409,334.592z"/>
	<path style="fill:#F9DDB4;" d="M473.537,334.592c2.288,0,4.143-1.854,4.143-4.143c0-3.801,0.911-6.634,2.708-8.421
		c2.186-2.173,5.118-2.255,5.152-2.255l0,0c0.008,0,0.017,0,0.025,0c2.276,0,4.129-1.839,4.142-4.118
		c0.013-2.288-1.831-4.153-4.118-4.168c-0.667,0.003-6.445,0.096-11.043,4.665c-3.419,3.398-5.153,8.209-5.153,14.297
		C469.394,332.736,471.248,334.592,473.537,334.592z"/>
	<path style="fill:#F9DDB4;" d="M479.061,219.795v121.696c0,20.317-8.236,38.716-21.554,52.034
		c-13.318,13.318-31.717,21.554-52.034,21.554c-40.643,0-73.588-32.949-73.588-73.588v-91.393"/>
</g>
<path style="fill:#E0C096;" d="M404.965,415.071c-40.412-0.271-73.08-33.115-73.08-73.583v-91.391l34.292-14.416v54.27
	c-5.275,0.47-10.501,1.574-15.572,3.309v15.685c0,7.99,2.866,15.7,8.029,21.799c0.069,0.081,0.136,0.162,0.205,0.243
	c4.493,5.379,7.169,12.071,7.602,19.067C368.687,386.353,385.037,414.6,404.965,415.071z"/>
<polygon style="fill:#F9DDB4;" points="405.468,252.899 366.177,251.402 366.177,250.099 "/>
<path style="fill:#93736C;" d="M460.49,237.156v26.486c0,17.63,18.571,18.571,18.571,18.571v-62.418"/>
<path style="fill:#7F5F59;" d="M350.457,230.843v32.799c0,10.257-18.571,18.571-18.571,18.571v-32.115"/>
<path style="fill:#494F56;" d="M441.194,324.714c-2.289,0-4.143-1.854-4.143-4.143v-8.838c0-2.288,1.854-4.143,4.143-4.143
	c2.289,0,4.143,1.854,4.143,4.143v8.838C445.336,322.859,443.482,324.714,441.194,324.714z"/>
<g>
	<path style="fill:#E0C096;" d="M462.551,297.404c-0.445,0-0.898-0.073-1.342-0.224c-13.662-4.678-28.713-4.678-42.376,0
		c-2.164,0.741-4.52-0.412-5.262-2.577c-0.741-2.164,0.412-4.52,2.577-5.261c15.395-5.27,32.351-5.27,47.744,0
		c2.165,0.741,3.318,3.097,2.577,5.261C465.88,296.323,464.272,297.404,462.551,297.404z"/>
	<path style="fill:#E0C096;" d="M405.473,348.193c-8.909,0-16.157-7.248-16.157-16.157v-35.739
		c-12.187-3.528-25.344-3.233-37.368,0.884c-2.166,0.741-4.52-0.413-5.261-2.577c-0.741-2.164,0.412-4.52,2.577-5.261
		c14.649-5.016,30.782-5.026,45.438-0.033c1.68,0.529,2.9,2.099,2.9,3.952v38.775c0,4.341,3.531,7.872,7.872,7.872
		c2.289,0,4.143,1.854,4.143,4.143C409.616,346.337,407.762,348.193,405.473,348.193z"/>
</g>
<path style="fill:#494F56;" d="M371.963,324.714c-2.288,0-4.143-1.854-4.143-4.143v-8.838c0-2.288,1.854-4.143,4.143-4.143
	c2.288,0,4.143,1.854,4.143,4.143v8.838C376.105,322.859,374.25,324.714,371.963,324.714z"/>
<path style="fill:#E0C096;" d="M405.473,378.888c-7.826,0-15.651-2.014-23.099-6.041c-2.012-1.089-2.761-3.602-1.674-5.615
	c1.088-2.012,3.601-2.761,5.615-1.674c12.533,6.779,25.782,6.778,38.314,0c2.012-1.089,4.526-0.339,5.614,1.674
	c1.089,2.012,0.34,4.526-1.674,5.615C421.124,376.874,413.299,378.888,405.473,378.888z"/>
<g>
	<path style="fill:#7F5F59;" d="M393.531,206.836h-18.378c-23.896,0-43.268,19.372-43.268,43.263h42.875h11.467
		c0.624,0,1.243-0.011,1.857-0.045"/>
	<path style="fill:#7F5F59;" d="M508.437,190.845c0,32.728-26.531,59.253-59.253,59.253h-74.422
		c0-32.723,26.531-59.253,59.253-59.253H508.437z"/>
</g>
<path style="fill:#93736C;" d="M508.437,190.845c0,32.728-26.531,59.253-59.253,59.253h-47.079
	c0-32.723,26.525-59.253,59.253-59.253H508.437z"/>
<path style="fill:#E0C096;" d="M178.821,295.727c14.926,0,27.026,12.1,27.026,27.026s-12.1,27.026-27.026,27.026H30.589
	c-14.926,0-27.026-12.1-27.026-27.026s12.1-27.026,27.026-27.026"/>
<g>
	<path style="fill:#F9DDB4;" d="M36.642,334.592c-2.288,0-4.143-1.854-4.143-4.143c0-3.801-0.911-6.634-2.708-8.421
		c-2.186-2.173-5.118-2.255-5.152-2.255l0,0c-0.008,0-0.017,0-0.025,0c-2.276,0-4.129-1.839-4.142-4.118
		c-0.014-2.288,1.831-4.153,4.118-4.168c0.667,0.003,6.445,0.096,11.043,4.665c3.419,3.398,5.153,8.209,5.153,14.297
		C40.784,332.736,38.929,334.592,36.642,334.592z"/>
	<path style="fill:#F9DDB4;" d="M172.769,334.592c2.288,0,4.143-1.854,4.143-4.143c0-3.801,0.911-6.634,2.708-8.421
		c2.186-2.173,5.118-2.255,5.152-2.255l0,0c0.008,0,0.017,0,0.025,0c2.276,0,4.129-1.839,4.142-4.118
		c0.014-2.288-1.831-4.153-4.118-4.168c-0.667,0.003-6.445,0.096-11.043,4.665c-3.419,3.398-5.153,8.209-5.153,14.297
		C168.626,332.736,170.48,334.592,172.769,334.592z"/>
	<path style="fill:#F9DDB4;" d="M178.292,219.795v121.696c0,20.317-8.236,38.716-21.554,52.034
		c-13.318,13.318-31.717,21.554-52.034,21.554c-40.644,0-73.588-32.949-73.588-73.588v-91.393"/>
</g>
<path style="fill:#E0C096;" d="M104.197,415.071c-40.412-0.271-73.08-33.115-73.08-73.583v-91.391l34.292-14.416v54.27
	c-5.275,0.47-10.501,1.574-15.572,3.309v15.685c0,7.99,2.866,15.7,8.029,21.799c0.069,0.081,0.136,0.162,0.205,0.243
	c4.493,5.379,7.169,12.071,7.602,19.067C67.92,386.353,84.269,414.6,104.197,415.071z"/>
<polygon style="fill:#F9DDB4;" points="104.699,252.899 65.409,251.402 65.409,250.099 "/>
<path style="fill:#EFCF4A;" d="M159.721,237.156v26.486c0,17.63,18.571,18.571,18.571,18.571v-62.418"/>
<path style="fill:#D8B213;" d="M49.688,230.843v32.799c0,10.257-18.571,18.571-18.571,18.571v-32.115"/>
<path style="fill:#494F56;" d="M140.426,324.714c-2.289,0-4.143-1.854-4.143-4.143v-8.838c0-2.288,1.854-4.143,4.143-4.143
	s4.143,1.854,4.143,4.143v8.838C144.568,322.859,142.714,324.714,140.426,324.714z"/>
<g>
	<path style="fill:#E0C096;" d="M161.782,297.404c-0.445,0-0.898-0.073-1.342-0.224c-13.662-4.678-28.713-4.678-42.376,0
		c-2.164,0.741-4.52-0.412-5.262-2.577c-0.741-2.164,0.412-4.52,2.577-5.261c15.395-5.27,32.351-5.27,47.744,0
		c2.165,0.741,3.318,3.097,2.577,5.261C165.112,296.323,163.504,297.404,161.782,297.404z"/>
	<path style="fill:#E0C096;" d="M104.705,348.193c-8.908,0-16.157-7.248-16.157-16.157v-35.739
		c-12.187-3.528-25.344-3.233-37.368,0.884c-2.166,0.741-4.52-0.413-5.261-2.577s0.412-4.52,2.577-5.261
		c14.649-5.016,30.782-5.026,45.438-0.033c1.68,0.529,2.9,2.099,2.9,3.952v38.775c0,4.341,3.531,7.872,7.872,7.872
		c2.289,0,4.143,1.854,4.143,4.143C108.848,346.337,106.993,348.193,104.705,348.193z"/>
</g>
<path style="fill:#494F56;" d="M71.194,324.714c-2.288,0-4.143-1.854-4.143-4.143v-8.838c0-2.288,1.854-4.143,4.143-4.143
	c2.288,0,4.143,1.854,4.143,4.143v8.838C75.336,322.859,73.482,324.714,71.194,324.714z"/>
<path style="fill:#E0C096;" d="M104.705,378.888c-7.826,0-15.651-2.014-23.099-6.041c-2.012-1.089-2.761-3.602-1.674-5.615
	c1.088-2.012,3.601-2.761,5.615-1.674c12.533,6.779,25.782,6.778,38.314,0c2.012-1.089,4.526-0.339,5.614,1.674
	c1.089,2.012,0.34,4.526-1.674,5.615C120.356,376.874,112.531,378.888,104.705,378.888z"/>
<g>
	<path style="fill:#D8B213;" d="M92.763,206.836H74.385c-23.896,0-43.268,19.372-43.268,43.263h42.875h11.467
		c0.624,0,1.243-0.011,1.857-0.045"/>
	<path style="fill:#D8B213;" d="M207.668,190.845c0,32.728-26.531,59.253-59.253,59.253H73.993
		c0-32.723,26.531-59.253,59.253-59.253H207.668z"/>
</g>
<path style="fill:#EFCF4A;" d="M207.668,190.845c0,32.728-26.531,59.253-59.253,59.253h-47.079
	c0-32.723,26.525-59.253,59.253-59.253H207.668z"/>
<path style="fill:#B36D41;" d="M324.762,392.648c14.926,0,27.026,12.1,27.026,27.026s-12.1,27.026-27.026,27.026H176.531
	c-14.926,0-27.026-12.1-27.026-27.026s12.1-27.026,27.026-27.026"/>
<g>
	<path style="fill:#CB8655;" d="M182.582,431.513c-2.288,0-4.143-1.854-4.143-4.143c0-3.801-0.911-6.634-2.708-8.421
		c-2.186-2.173-5.118-2.255-5.152-2.255l0,0c-0.008,0-0.017,0-0.025,0c-2.276,0-4.129-1.839-4.142-4.118
		c-0.014-2.288,1.831-4.153,4.118-4.168c0.667,0.003,6.445,0.096,11.043,4.665c3.419,3.398,5.153,8.209,5.153,14.297
		C186.725,429.657,184.871,431.513,182.582,431.513z"/>
	<path style="fill:#CB8655;" d="M318.71,431.513c2.288,0,4.143-1.854,4.143-4.143c0-3.801,0.911-6.634,2.708-8.421
		c2.186-2.173,5.118-2.255,5.152-2.255l0,0c0.008,0,0.017,0,0.025,0c2.276,0,4.129-1.839,4.142-4.118
		c0.014-2.288-1.831-4.153-4.118-4.168c-0.667,0.003-6.445,0.096-11.043,4.665c-3.419,3.398-5.153,8.209-5.153,14.297
		C314.567,429.657,316.421,431.513,318.71,431.513z"/>
	<path style="fill:#CB8655;" d="M324.234,316.716v121.696c0,20.317-8.236,38.716-21.554,52.034
		C289.362,503.764,270.963,512,250.646,512c-40.644,0-73.588-32.949-73.588-73.588v-91.393"/>
</g>
<path style="fill:#B36D41;" d="M250.138,511.993c-40.412-0.271-73.08-33.115-73.08-73.583v-91.391l34.292-14.416v54.27
	c-5.275,0.47-10.501,1.574-15.572,3.309v15.685c0,7.99,2.866,15.7,8.029,21.799c0.069,0.081,0.136,0.162,0.205,0.243
	c4.493,5.379,7.169,12.071,7.602,19.067C213.86,483.275,230.21,511.521,250.138,511.993z"/>
<path style="fill:#494F56;" d="M305.663,334.077v26.486c0,17.63,18.571,18.571,18.571,18.571v-62.418"/>
<path style="fill:#36393D;" d="M195.629,327.764v32.799c0,10.257-18.571,18.571-18.571,18.571v-32.115"/>
<path style="fill:#494F56;" d="M286.366,421.635c-2.289,0-4.143-1.854-4.143-4.143v-8.838c0-2.288,1.854-4.143,4.143-4.143
	c2.289,0,4.143,1.854,4.143,4.143v8.838C290.509,419.781,288.655,421.635,286.366,421.635z"/>
<g>
	<path style="fill:#B36D41;" d="M307.724,394.326c-0.445,0-0.898-0.073-1.342-0.224c-13.662-4.678-28.713-4.678-42.376,0
		c-2.164,0.741-4.52-0.412-5.262-2.577c-0.741-2.164,0.412-4.52,2.577-5.261c15.395-5.27,32.351-5.27,47.744,0
		c2.165,0.741,3.318,3.097,2.577,5.261C311.053,393.244,309.445,394.326,307.724,394.326z"/>
	<path style="fill:#B36D41;" d="M250.646,445.114c-8.908,0-16.157-7.248-16.157-16.157v-35.739
		c-12.187-3.528-25.344-3.233-37.368,0.884c-2.166,0.741-4.52-0.413-5.261-2.577c-0.741-2.164,0.412-4.52,2.577-5.261
		c14.649-5.016,30.782-5.026,45.438-0.033c1.68,0.529,2.9,2.099,2.9,3.952v38.775c0,4.341,3.531,7.872,7.872,7.872
		c2.289,0,4.143,1.854,4.143,4.143C254.789,443.259,252.935,445.114,250.646,445.114z"/>
</g>
<path style="fill:#494F56;" d="M217.135,421.635c-2.288,0-4.143-1.854-4.143-4.143v-8.838c0-2.288,1.854-4.143,4.143-4.143
	s4.143,1.854,4.143,4.143v8.838C221.278,419.781,219.423,421.635,217.135,421.635z"/>
<path style="fill:#B36D41;" d="M250.646,475.809c-7.826,0-15.651-2.014-23.099-6.041c-2.012-1.089-2.761-3.602-1.674-5.615
	c1.088-2.012,3.601-2.762,5.615-1.674c12.533,6.779,25.782,6.778,38.314,0c2.012-1.089,4.526-0.339,5.614,1.674
	c1.089,2.012,0.34,4.526-1.674,5.615C266.297,473.796,258.472,475.809,250.646,475.809z"/>
<g>
	<path style="fill:#36393D;" d="M238.704,303.757h-18.378c-23.896,0-43.268,19.372-43.268,43.263h42.875h11.467
		c0.624,0,1.243-0.011,1.855-0.045"/>
	<path style="fill:#36393D;" d="M353.61,287.767c0,32.728-26.531,59.253-59.253,59.253h-74.422
		c0-32.723,26.531-59.253,59.253-59.253H353.61z"/>
</g>
<path style="fill:#494F56;" d="M353.61,287.767c0,32.728-26.531,59.253-59.253,59.253h-47.079c0-32.723,26.525-59.253,59.253-59.253
	H353.61z"/>
<g>
</g>
<g>
</g>
<g>
</g>
<g>
</g>
<g>
</g>
<g>
</g>
<g>
</g>
<g>
</g>
<g>
</g>
<g>
</g>
<g>
</g>
<g>
</g>
<g>
</g>
<g>
</g>
<g>
</g>
</svg>
