<svg height="512" viewBox="0 0 64 64" width="512" xmlns="http://www.w3.org/2000/svg"><g id="FilledOutline"><circle cx="32" cy="32" fill="#c5453b" r="29"/><circle cx="32" cy="32" fill="#dc4d42" r="25"/><path d="m31 10h2v6h-2z" fill="#fda749"/><path d="m25.565 10.715h2v2h-2z" fill="#fbca7b" transform="matrix(.966 -.259 .259 .966 -2.127 7.273)"/><path d="m20.5 12.813h2v2h-2z" fill="#fbca7b" transform="matrix(.866 -.5 .5 .866 -4.026 12.598)"/><path d="m17.222 15.707h2v5.03h-2z" fill="#fda749" transform="matrix(.707 -.707 .707 .707 -7.548 18.224)"/><path d="m12.813 20.5h2v2h-2z" fill="#fbca7b" transform="matrix(.5 -.866 .866 .5 -11.713 22.715)"/><path d="m10.716 25.565h2v2h-2z" fill="#fbca7b" transform="matrix(.259 -.966 .966 .259 -16.976 31.006)"/><path d="m10 31h6v2h-6z" fill="#fda749"/><path d="m10.716 36.435h2v2h-2z" fill="#fbca7b" transform="matrix(.966 -.259 .259 .966 -9.29 4.308)"/><path d="m12.813 41.5h2v2h-2z" fill="#fbca7b" transform="matrix(.866 -.5 .5 .866 -19.397 12.598)"/><path d="m15.707 44.778h5.03v2h-5.03z" fill="#fda749" transform="matrix(.707 -.707 .707 .707 -27.033 26.293)"/><path d="m20.5 49.186h2v2h-2z" fill="#fbca7b" transform="matrix(.5 -.866 .866 .5 -32.713 43.718)"/><path d="m25.564 51.285h2v2h-2z" fill="#fbca7b" transform="matrix(.259 -.966 .966 .259 -30.814 64.412)"/><path d="m31 48h2v6h-2z" fill="#fda749"/><path d="m36.436 51.284h2v2h-2z" fill="#fbca7b" transform="matrix(.966 -.259 .259 .966 -12.254 11.467)"/><path d="m41.5 49.186h2v2h-2z" fill="#fbca7b" transform="matrix(.866 -.5 .5 .866 -19.397 27.968)"/><path d="m44.778 43.263h2v5.03h-2z" fill="#fda749" transform="matrix(.707 -.707 .707 .707 -18.962 45.783)"/><path d="m49.186 41.5h2v2h-2z" fill="#fbca7b" transform="matrix(.5 -.866 .866 .5 -11.711 64.719)"/><path d="m51.284 36.435h2v2h-2z" fill="#fbca7b" transform="matrix(.259 -.966 .966 .259 2.593 78.249)"/><path d="m48 31h6v2h-6z" fill="#fda749"/><path d="m51.284 25.565h2v2h-2z" fill="#fbca7b" transform="matrix(.966 -.259 .259 .966 -5.094 14.437)"/><path d="m49.186 20.5h2v2h-2z" fill="#fbca7b" transform="matrix(.866 -.5 .5 .866 -4.027 27.969)"/><path d="m43.264 17.222h5.03v2h-5.03z" fill="#fda749" transform="matrix(.707 -.707 .707 .707 .523 37.707)"/><g fill="#fbca7b"><path d="m41.5 12.813h2v2h-2z" transform="matrix(.5 -.866 .866 .5 9.29 43.716)"/><path d="m36.435 10.716h2v2h-2z" transform="matrix(.259 -.966 .966 .259 16.43 44.843)"/><path d="m22 42 5-15 10 10z"/></g><path d="m42 22-15 5 10 10z" fill="#428dc5"/><path d="m32 2a30 30 0 1 0 30 30 30.034 30.034 0 0 0 -30-30zm0 58a28 28 0 1 1 28-28 28.032 28.032 0 0 1 -28 28z"/><path d="m32 6a26 26 0 1 0 26 26 26.029 26.029 0 0 0 -26-26zm0 50a24 24 0 1 1 24-24 24.028 24.028 0 0 1 -24 24z"/><path d="m31 10h2v6h-2z"/><path d="m25.565 10.715h2v2h-2z" transform="matrix(.966 -.259 .259 .966 -2.127 7.273)"/><path d="m20.5 12.813h2v2h-2z" transform="matrix(.866 -.5 .5 .866 -4.026 12.598)"/><path d="m17.222 15.707h2v5.03h-2z" transform="matrix(.707 -.707 .707 .707 -7.548 18.224)"/><path d="m12.813 20.5h2v2h-2z" transform="matrix(.5 -.866 .866 .5 -11.713 22.715)"/><path d="m10.716 25.565h2v2h-2z" transform="matrix(.259 -.966 .966 .259 -16.976 31.006)"/><path d="m10 31h6v2h-6z"/><path d="m10.716 36.435h2v2h-2z" transform="matrix(.966 -.259 .259 .966 -9.29 4.308)"/><path d="m12.813 41.5h2v2h-2z" transform="matrix(.866 -.5 .5 .866 -19.397 12.598)"/><path d="m15.707 44.778h5.03v2h-5.03z" transform="matrix(.707 -.707 .707 .707 -27.032 26.29)"/><path d="m20.5 49.186h2v2h-2z" transform="matrix(.5 -.866 .866 .5 -32.713 43.718)"/><path d="m25.564 51.285h2v2h-2z" transform="matrix(.259 -.966 .966 .259 -30.814 64.412)"/><path d="m31 48h2v6h-2z"/><path d="m36.436 51.284h2v2h-2z" transform="matrix(.966 -.259 .259 .966 -12.254 11.467)"/><path d="m41.5 49.186h2v2h-2z" transform="matrix(.866 -.5 .5 .866 -19.397 27.968)"/><path d="m44.778 43.263h2v5.03h-2z" transform="matrix(.707 -.707 .707 .707 -18.962 45.783)"/><path d="m49.186 41.5h2v2h-2z" transform="matrix(.5 -.866 .866 .5 -11.711 64.719)"/><path d="m51.284 36.435h2v2h-2z" transform="matrix(.259 -.966 .966 .259 2.593 78.249)"/><path d="m48 31h6v2h-6z"/><path d="m51.284 25.565h2v2h-2z" transform="matrix(.966 -.259 .259 .966 -5.094 14.437)"/><path d="m49.186 20.5h2v2h-2z" transform="matrix(.866 -.5 .5 .866 -4.027 27.969)"/><path d="m43.264 17.222h5.03v2h-5.03z" transform="matrix(.707 -.707 .707 .707 .522 37.704)"/><path d="m41.5 12.813h2v2h-2z" transform="matrix(.5 -.866 .866 .5 9.29 43.716)"/><path d="m36.435 10.716h2v2h-2z" transform="matrix(.259 -.966 .966 .259 16.43 44.843)"/><path d="m41.684 21.051-15 5c-.028.009-.051.026-.077.037a.8.8 0 0 0 -.217.128.874.874 0 0 0 -.093.08.986.986 0 0 0 -.084.1 1.146 1.146 0 0 0 -.069.1 1 1 0 0 0 -.059.123.732.732 0 0 0 -.033.069l-5 15a1 1 0 0 0 .948 1.312 1.014 1.014 0 0 0 .316-.051l15-5c.028-.009.051-.026.077-.037a.907.907 0 0 0 .113-.055 1.078 1.078 0 0 0 .1-.073.874.874 0 0 0 .093-.08.884.884 0 0 0 .084-.1 1.146 1.146 0 0 0 .069-.1 1 1 0 0 0 .059-.123.732.732 0 0 0 .033-.069l5-15a1 1 0 0 0 -1.264-1.265zm-18.1 19.368 3.856-11.568 3.856 3.856 3.855 3.856zm12.982-5.27-3.856-3.856-3.855-3.856 11.567-3.856z"/></g></svg>