<svg height="512pt" viewBox="0 0 512.13624 512" width="512pt" xmlns="http://www.w3.org/2000/svg"><path d="m501.464844 256.066406c0 11.785156-9.550782 21.335938-21.332032 21.335938s-21.332031-9.550782-21.332031-21.335938c0-11.78125 9.550781-21.332031 21.332031-21.332031s21.332032 9.550781 21.332032 21.332031zm0 0" fill="#a4b0be"/><path d="m501.464844 53.402344c0 23.5625-19.101563 42.664062-42.664063 42.664062-23.566406 0-42.667969-19.101562-42.667969-42.664062 0-23.566406 19.101563-42.667969 42.667969-42.667969 23.5625 0 42.664063 19.101563 42.664063 42.667969zm0 0" fill="#637a99"/><path d="m426.800781 416.066406c0 11.785156-9.554687 21.335938-21.335937 21.335938s-21.332032-9.550782-21.332032-21.335938c0-11.78125 9.550782-21.332031 21.332032-21.332031s21.335937 9.550781 21.335937 21.332031zm0 0" fill="#a4b0be"/><path d="m192.132812 145.136719c61.207032-34.707031 138.945313-13.539063 174.105469 47.40625 35.164063 60.945312 14.574219 138.84375-46.105469 174.457031v-57.597656c0-23.566406-19.101562-42.667969-42.667968-42.667969h-21.332032c23.5625 0 42.667969-19.101563 42.667969-42.667969 0-23.5625-19.105469-42.664062-42.667969-42.664062s-42.667968 19.101562-42.667968 42.664062c0 23.566406 19.105468 42.667969 42.667968 42.667969h-21.332031c-23.566406 0-42.667969 19.101563-42.667969 42.667969v53.332031l-1.8125 3.199219c-38.90625-23.351563-62.5625-65.542969-62.1875-110.917969.371094-45.375 24.714844-87.167969 64-109.878906zm0 0" fill="#00c2de"/><path d="m320.132812 362.734375v4.265625c-40.285156 23.132812-89.914062 22.726562-129.8125-1.066406l1.8125-3.199219v-53.332031c0-23.566406 19.101563-42.667969 42.667969-42.667969h21.332031l-10.667968 64 10.667968 10.667969 10.667969-10.667969-10.667969-64h21.332032c23.566406 0 42.667968 19.101563 42.667968 42.667969zm0 0" fill="#bdc7d1"/><path d="m298.800781 224.066406c0 23.566406-19.105469 42.667969-42.667969 42.667969s-42.667968-19.101563-42.667968-42.667969c0-23.5625 19.105468-42.664062 42.667968-42.664062s42.667969 19.101562 42.667969 42.664062zm0 0" fill="#ffdec2"/><path d="m256.132812 266.734375 10.667969 64-10.667969 10.667969-10.667968-10.667969zm0 0" fill="#a4b0be"/><path d="m128.132812 96.066406c0 11.785156-9.550781 21.335938-21.332031 21.335938-11.785156 0-21.335937-9.550782-21.335937-21.335938 0-11.78125 9.550781-21.332031 21.335937-21.332031 11.78125 0 21.332031 9.550781 21.332031 21.332031zm0 0" fill="#a4b0be"/><path d="m96.132812 458.734375c0 23.566406-19.101562 42.667969-42.667968 42.667969-23.5625 0-42.664063-19.101563-42.664063-42.667969 0-23.5625 19.101563-42.667969 42.664063-42.667969 23.566406 0 42.667968 19.105469 42.667968 42.667969zm0 0" fill="#637a99"/><path d="m53.464844 256.066406c0 11.785156-9.550782 21.335938-21.332032 21.335938s-21.332031-9.550782-21.332031-21.335938c0-11.78125 9.550781-21.332031 21.332031-21.332031s21.332032 9.550781 21.332032 21.332031zm0 0" fill="#a4b0be"/><path d="m277.464844 85.402344v21.332031h21.335937v-10.667969h10.664063v-21.332031h-21.332032c-5.890624 0-10.667968 4.777344-10.667968 10.667969zm0 0"/><path d="m234.800781 426.734375v-21.332031h-21.335937v10.664062h-10.664063v21.335938h21.332031c5.890626 0 10.667969-4.777344 10.667969-10.667969zm0 0"/><path d="m480.132812 224.066406c-13.511718.058594-25.535156 8.59375-30.039062 21.335938h-55.839844c-5.3125-68.070313-59.382812-122.144532-127.453125-127.457032v-53.878906h139.730469c5.476562 26.828125 30.375 45.148438 57.617188 42.398438 27.242187-2.753906 47.972656-25.683594 47.972656-53.0625s-20.730469-50.3125-47.972656-53.0625c-27.242188-2.753906-52.140626 15.570312-57.617188 42.394531h-150.398438c-5.890624 0-10.667968 4.777344-10.667968 10.667969v64.691406c-14.65625 1.023438-29.058594 4.367188-42.664063 9.910156v-31.9375c0-5.890625-4.777343-10.664062-10.667969-10.664062h-55.296874c-5.195313-14.695313-20.21875-23.507813-35.582032-20.875-15.359375 2.636718-26.585937 15.957031-26.585937 31.539062 0 15.585938 11.226562 28.90625 26.585937 31.539063 15.363282 2.636719 30.386719-6.175781 35.582032-20.871094h44.628906v32.492187c-36.609375 23.515626-60.117188 62.796876-63.539063 106.175782h-55.757812c-5.191407-14.695313-20.21875-23.507813-35.578125-20.875-15.363282 2.636718-26.589844 15.957031-26.589844 31.539062 0 15.585938 11.226562 28.90625 26.589844 31.539063 15.359375 2.636719 30.386718-6.175781 35.578125-20.871094h55.980469c4.929687 68.210937 59.117187 122.496094 127.316406 127.550781v53.78125h-139.730469c-5.476563-26.824218-30.378906-45.148437-57.617187-42.394531-27.242188 2.75-47.972657 25.683594-47.972657 53.0625s20.730469 50.3125 47.972657 53.0625c27.238281 2.753906 52.140624-15.570313 57.617187-42.394531h150.398437c5.890626 0 10.667969-4.777344 10.667969-10.667969v-64.691406c14.65625-1.023438 29.058594-4.367188 42.664063-9.910157v31.933594c0 5.894532 4.777344 10.667969 10.667968 10.667969h55.296876c5.195312 14.695313 20.21875 23.507813 35.578124 20.871094 15.363282-2.632813 26.589844-15.953125 26.589844-31.539063 0-15.582031-11.226562-28.902344-26.589844-31.539062-15.359374-2.632813-30.382812 6.179687-35.578124 20.875h-44.628907v-32.492188c36.609375-23.515625 60.117188-62.796875 63.539063-106.175781h55.753906c5.453125 15.300781 21.519531 24.078125 37.339844 20.394531 15.820312-3.683594 26.359375-18.652344 24.492187-34.789062-1.871093-16.136719-15.550781-28.300782-31.792969-28.273438zm-21.332031-202.664062c17.671875 0 32 14.324218 32 32 0 17.671875-14.328125 32-32 32-17.675781 0-32-14.328125-32-32 0-17.675782 14.324219-32 32-32zm-352 85.332031c-5.894531 0-10.667969-4.773437-10.667969-10.667969 0-5.890625 4.773438-10.664062 10.667969-10.664062 5.890625 0 10.664063 4.773437 10.664063 10.664062 0 5.894532-4.773438 10.667969-10.664063 10.667969zm-53.335937 384c-17.671875 0-32-14.328125-32-32s14.328125-32 32-32c17.675781 0 32 14.328125 32 32s-14.324219 32-32 32zm352-85.332031c5.890625 0 10.667968 4.773437 10.667968 10.664062 0 5.894532-4.777343 10.667969-10.667968 10.667969s-10.664063-4.773437-10.664063-10.667969c0-5.890625 4.773438-10.664062 10.664063-10.664062zm-373.332032-138.667969c-5.890624 0-10.667968-4.773437-10.667968-10.667969 0-5.890625 4.777344-10.664062 10.667968-10.664062 5.890626 0 10.667969 4.773437 10.667969 10.664062 0 5.894532-4.777343 10.667969-10.667969 10.667969zm224-10.667969c-17.671874 0-32-14.324218-32-32 0-17.671875 14.328126-32 32-32 17.671876 0 32 14.328125 32 32 0 17.675782-14.328124 32-32 32zm-21.332031 21.335938h8.746094l-8.597656 51.574218c-.570313 3.398438.539062 6.863282 2.976562 9.300782l10.664063 10.664062c4.167968 4.164063 10.917968 4.164063 15.085937 0l10.664063-10.664062c2.4375-2.4375 3.546875-5.902344 2.976562-9.300782l-8.597656-51.574218h8.746094c17.675781 0 32 14.324218 32 32v50.964844c-33.597656 16.675781-73.066406 16.675781-106.664063 0v-50.964844c0-17.675782 14.324219-32 32-32zm96 68.96875v-36.96875c-.066406-22.351563-14.082031-42.285156-35.09375-49.910156 19.277344-21.335938 18.167969-54.113282-2.503906-74.097657-20.671875-19.988281-53.46875-19.988281-74.140625 0-20.671875 19.984375-21.78125 52.761719-2.503906 74.097657-21.011719 7.625-35.027344 27.558593-35.09375 49.910156v37.109375c-27.109375-22.1875-42.785156-55.410157-42.664063-90.445313-.097656-54.523437 37.382813-101.929687 90.457031-114.417968 53.078126-12.488282 107.761719 13.230468 131.988282 62.078124 24.226562 48.847657 11.613281 107.949219-30.445313 142.644532zm149.332031-79.636719c-5.890624 0-10.667968-4.773437-10.667968-10.667969 0-5.890625 4.777344-10.664062 10.667968-10.664062 5.890626 0 10.667969 4.773437 10.667969 10.664062 0 5.894532-4.777343 10.667969-10.667969 10.667969zm0 0"/></svg>