<svg id="Capa_1" enable-background="new 0 0 512 512" height="512" viewBox="0 0 512 512" width="512" xmlns="http://www.w3.org/2000/svg"><path d="m308.5 402.5c-16.569 0-30-13.431-30-30v-40.5s-45 .773-45 0v40.5c0 15.716-12.085 28.61-27.47 29.895l52.97 12.605z" fill="#efb259"/><path d="m308.5 402.5h-30c-16.57 0-30-13.43-30-30v-40.17c13.09-.04 30-.33 30-.33v40.5c0 16.57 13.43 30 30 30z" fill="#e8963d"/><path d="m504.5 128.497v25c0 16.569-13.431 30-30 30h-1c-2.761 0-5 2.239-5 5v14c0 22.091-17.909 40-40 40h-40.5l3.29-30h32.21c8.28 0 15-6.71 15-15v-44c0-2.761-2.239-5-5-5h-35.18l1.68-30h94.5c5.523 0 10 4.477 10 10z" fill="#efb259"/><path d="m134 242.497h-50c-22.275 0-40.5-18.225-40.5-40.5v-13.5c0-2.761-2.239-5-5-5h-.5c-16.775 0-30.5-13.725-30.5-30.5v-24.5c0-5.523 4.477-10 10-10h104.5l2.9 30h-46.4c-2.761 0-5 2.239-5 5v44c0 8.29 7.22 15 15.5 15h42.1z" fill="#efb259"/><path d="m103.5 78.5v110.5c0 84.223 68.277 152.5 152.5 152.5 84.223 0 152.5-68.277 152.5-152.5v-110.5z" fill="#ffd67b"/><path d="m408.5 78.5v110.5c0 42.11-17.07 80.24-44.67 107.83-27.59 27.6-65.72 44.67-107.83 44.67-5.06 0-10.07-.25-15-.73 36.12-3.53 68.56-19.66 92.83-43.94 27.6-27.59 44.67-65.72 44.67-107.83v-110.5z" fill="#efb259"/><path d="m413.457 88.5h-314.914c-9.374 0-17.49-6.511-19.524-15.661l-3.815-17.169c-1.388-6.246 3.365-12.17 9.762-12.17h342.068c6.397 0 11.15 5.924 9.762 12.169l-3.815 17.169c-2.034 9.151-10.15 15.662-19.524 15.662z" fill="#c5e6ff"/><path d="m436.8 55.67-3.82 17.17c-2.03 9.15-10.15 15.66-19.52 15.66h-30c9.37 0 17.49-6.51 19.52-15.66l3.82-17.17c1.38-6.25-3.37-12.17-9.77-12.17h30c6.4 0 11.15 5.92 9.77 12.17z" fill="#8dd1f7"/><path d="" style="fill:none;stroke:#000;stroke-width:15;stroke-linecap:round;stroke-linejoin:round;stroke-miterlimit:10"/><path d="" style="fill:none;stroke:#000;stroke-width:15;stroke-linecap:round;stroke-linejoin:round;stroke-miterlimit:10"/><path d="m330.5 442.5v-25c0-8.284-6.716-15-15-15h-119c-8.284 0-15 6.716-15 15v25z" fill="#c5e6ff"/><path d="m330.5 417.5v25h-30v-25c0-4.67-2.14-8.85-5.49-11.59-2.59-2.13-5.9-3.41-9.51-3.41h30c8.28 0 15 6.72 15 15z" fill="#8dd1f7"/><path d="m352.5 468.5h-193c-9.941 0-18-8.059-18-18 0-9.941 8.059-18 18-18h193c9.941 0 18 8.059 18 18 0 9.941-8.059 18-18 18z" fill="#7a8693"/><path d="m370.5 450.5c0 4.97-2.02 9.47-5.27 12.73-3.26 3.25-7.76 5.27-12.73 5.27h-30c4.97 0 9.47-2.02 12.73-5.27 3.25-3.26 5.27-7.76 5.27-12.73 0-7.06-4.07-13.18-10-16.12-2.41-1.2-5.12-1.88-8-1.88h30c9.94 0 18 8.06 18 18z" fill="#5c666d"/><path d="m261.413 143.637 14.986 30.366c.879 1.782 2.579 3.017 4.545 3.302l33.511 4.869c4.952.719 6.929 6.804 3.346 10.297l-24.249 23.636c-1.423 1.387-2.072 3.385-1.736 5.343l5.724 33.375c.846 4.932-4.33 8.692-8.759 6.364l-29.973-15.758c-1.759-.925-3.86-.925-5.618 0l-29.973 15.758c-4.429 2.328-9.605-1.432-8.759-6.364l5.724-33.375c.336-1.958-.313-3.957-1.736-5.343l-24.249-23.636c-3.583-3.493-1.606-9.577 3.346-10.297l33.511-4.869c1.966-.286 3.666-1.521 4.545-3.302l14.986-30.366c2.216-4.487 8.614-4.487 10.828 0z" fill="#fff"/><path d="m494.5 111h-78.5v-15.12c11.865-1.071 21.67-9.573 24.302-21.415l3.815-17.169c1.157-5.209-.094-10.584-3.433-14.747s-8.314-6.55-13.65-6.55h-342.068c-5.336 0-10.312 2.387-13.65 6.55-3.339 4.162-4.59 9.537-3.433 14.747l3.815 17.169c2.632 11.843 12.437 20.344 24.302 21.415v15.12h-78c-9.757 0-18 8.014-18 17.5v25c0 20.015 15.974 36.418 36 37.449v11.551c0 26.191 21.532 47.5 48 47.5h24.094c20.333 49.119 64.445 85.984 117.906 96.167v26.333c0 11.608-9.046 21.457-20.594 22.421-.199.017-.394.047-.588.079h-8.318c-12.406 0-22.5 10.093-22.5 22.5v7.5h-14.5c-14.061 0-25.5 11.439-25.5 25.5s11.439 25.5 25.5 25.5h193c14.061 0 25.5-11.439 25.5-25.5s-11.439-25.5-25.5-25.5h-14.5v-7.5c0-12.407-10.094-22.5-22.5-22.5h-7c-12.406 0-22.5-10.093-22.5-22.5v-26.333c53.461-10.183 97.573-47.048 117.906-96.167h24.594c26.191 0 47.5-21.309 47.5-47.5v-11.53c19.985-.79 36-17.295 36-37.47v-25c0-9.649-7.851-17.5-17.5-17.5zm-78.5 45h15v41.5c0 4.136-3.364 7.5-7.5 7.5h-8.298c.525-5.264.798-10.6.798-16zm-319.202 49h-7.798c-4.262 0-8-3.505-8-7.5v-41.5h15v33c0 5.4.273 10.736.798 16zm-12.798 30c-18.196 0-33-14.58-33-32.5v-19c0-4.142-3.357-7.5-7.5-7.5h-5.5c-12.468 0-23-10.304-23-22.5v-25c0-1.238 1.514-2.5 3-2.5h78v15h-22.5c-4.143 0-7.5 3.358-7.5 7.5v49c0 12.196 10.532 22.5 23 22.5h10.025c1.004 5.09 2.25 10.094 3.725 15zm239 182.5v7.5h-86c-4.143 0-7.5 3.358-7.5 7.5s3.357 7.5 7.5 7.5h115.5c5.79 0 10.5 4.71 10.5 10.5s-4.71 10.5-10.5 10.5h-193c-5.79 0-10.5-4.71-10.5-10.5s4.71-10.5 10.5-10.5h42.5c4.143 0 7.5-3.358 7.5-7.5s-3.357-7.5-7.5-7.5h-13v-7.5c0-4.136 3.364-7.5 7.5-7.5h119c4.136 0 7.5 3.364 7.5 7.5zm-44.48-22.5h-45.113c4.764-6.311 7.592-14.13 7.592-22.5v-24.209c4.94.462 9.941.709 15 .709s10.06-.247 15-.709v24.209c.001 8.436 2.802 16.228 7.521 22.5zm-22.52-61c-60.844 0-113.047-37.674-134.53-90.916.015-.193.03-.387.03-.584 0-2.113-.876-4.018-2.282-5.381-5.315-15.065-8.218-31.258-8.218-48.119v-93h236.333c4.143 0 7.5-3.358 7.5-7.5s-3.357-7.5-7.5-7.5h-248.79c-5.904 0-10.922-4.025-12.202-9.789l-3.815-17.169c-.227-1.019.21-1.757.49-2.107.28-.349.906-.936 1.95-.936h342.068c1.044 0 1.67.586 1.95.936s.717 1.088.49 2.107l-3.815 17.169c-1.28 5.764-6.298 9.789-12.202 9.789h-31.124c-4.143 0-7.5 3.358-7.5 7.5s3.357 7.5 7.5 7.5h18.667v93c0 16.861-2.903 33.054-8.218 48.119-1.405 1.363-2.282 3.268-2.282 5.381 0 .197.015.391.03.584-21.483 53.242-73.686 90.916-134.53 90.916zm241-180.5c0 12.407-10.094 22.5-22.5 22.5h-6c-4.143 0-7.5 3.358-7.5 7.5v19c0 17.92-14.579 32.5-32.5 32.5h-19.25c1.475-4.906 2.722-9.91 3.725-15h10.525c12.406 0 22.5-10.093 22.5-22.5v-49c0-4.142-3.357-7.5-7.5-7.5h-22.5v-15h78.5c1.379 0 2.5 1.122 2.5 2.5z"/><path d="m315.534 174.752-32.75-4.759-14.646-29.676c-2.297-4.654-6.948-7.546-12.139-7.546s-9.842 2.892-12.139 7.546l-14.646 29.676-32.751 4.759c-5.137.747-9.323 4.277-10.928 9.214-1.604 4.937-.29 10.253 3.426 13.875l23.698 23.1-5.595 32.617c-.877 5.116 1.187 10.189 5.386 13.24 4.198 3.051 9.661 3.447 14.256 1.031l29.292-15.4 29.292 15.4c1.998 1.05 4.161 1.569 6.312 1.569 2.795 0 5.571-.876 7.944-2.6 4.199-3.051 6.263-8.124 5.385-13.24l-5.594-32.616 23.697-23.1c3.717-3.623 5.03-8.939 3.427-13.876-1.603-4.936-5.789-8.467-10.927-9.214zm-27.216 35.985c-3.19 3.109-4.646 7.587-3.894 11.982l5.223 30.453-27.349-14.379c-1.973-1.036-4.135-1.554-6.299-1.554-2.163 0-4.327.518-6.3 1.555l-27.348 14.378 5.224-30.457c.751-4.392-.704-8.87-3.894-11.978l-22.126-21.567 30.578-4.443c4.408-.641 8.218-3.409 10.191-7.405l13.676-27.707 13.675 27.708c1.973 3.995 5.782 6.763 10.192 7.404l30.576 4.443z"/></svg>