<svg id="Layer_1" enable-background="new 0 0 512 512" height="512" viewBox="0 0 512 512" width="512" xmlns="http://www.w3.org/2000/svg"><g><path d="m9 185.829h144v32h-144z" fill="#b3e5fc" transform="matrix(.707 .707 -.707 .707 166.439 1.839)"/><path d="m31.892 99.38h144v32h-144z" fill="#b3e5fc" transform="matrix(.866 -.5 .5 .866 -43.771 67.404)"/><circle cx="139.244" cy="259" fill="#ffc400" r="30"/><path d="m250.669 100.133c-7.532-3.447-16.434-.14-19.884 7.392-4.701 10.262-16.958 14.797-27.324 10.115-5.017-2.267-8.834-6.331-10.75-11.443-1.894-5.057-1.375-51.67.788-56.606 2.164-4.938 6.124-8.739 11.15-10.703 10.377-4.053 22.12 1.083 26.175 11.451 3.018 7.716 11.72 11.524 19.434 8.506 7.715-3.018 11.523-11.719 8.505-19.434-10.078-25.768-39.251-38.537-65.031-28.467-12.489 4.879-22.331 14.328-27.711 26.606-5.381 12.28-6.119 66.583-1.403 79.171 4.737 12.644 14.144 22.679 26.489 28.257 6.759 3.055 13.846 4.499 20.831 4.499 19.225 0 37.646-10.956 46.122-29.46 3.45-7.531.141-16.434-7.391-19.884z" fill="#0477b0"/><circle cx="175.41" cy="78.489" fill="#ffd740" r="30"/><path d="m175.41 48.489c-5.466 0-10.586 1.469-15 4.023 8.964 5.188 15 14.874 15 25.977s-6.036 20.789-15 25.977c4.414 2.554 9.534 4.023 15 4.023 16.569 0 30-13.431 30-30s-13.431-30-30-30z" fill="#ffc400"/><circle cx="37.5" cy="153.292" fill="#ffd740" r="30"/><path d="m37.5 123.292c-5.466 0-10.586 1.469-15 4.023 8.964 5.188 15 14.874 15 25.977s-6.036 20.789-15 25.977c4.414 2.554 9.534 4.023 15 4.023 16.569 0 30-13.431 30-30s-13.431-30-30-30z" fill="#ffc400"/><circle cx="324" cy="229" fill="#b3e5fc" r="59"/><path d="m324 170c-5.184 0-10.21.674-15 1.93 25.319 6.637 44 29.669 44 57.07s-18.681 50.433-44 57.07c4.79 1.256 9.816 1.93 15 1.93 32.585 0 59-26.415 59-59s-26.415-59-59-59z" fill="#81d4fa"/><path d="m431 369h-350v-96c0-7.732 6.268-14 14-14h322c7.732 0 14 6.268 14 14z" fill="#ffd740"/><path d="m401 259v110h30v-96c0-7.732-6.268-14-14-14z" fill="#ffc400"/><path d="m429.5 504.5h-347c-41.421 0-75-33.579-75-75 0-41.421 33.579-75 75-75h347c41.421 0 75 33.579 75 75 0 41.421-33.579 75-75 75z" fill="#0477b0"/><path d="m82.5 474.5c-24.813 0-45-20.187-45-45s20.187-45 45-45h347c24.813 0 45 20.187 45 45s-20.187 45-45 45z" fill="#ebe3d4"/><circle cx="82.5" cy="429.5" fill="#ff5722" r="45"/><circle cx="256" cy="429.5" fill="#0477b0" r="16"/><circle cx="82.5" cy="429.5" fill="#0477b0" r="16"/><circle cx="429.5" cy="429.5" fill="#ff5722" r="45"/><path d="m249 229h150v30h-150z" fill="#ff5722"/><path d="m369 229h30v30h-30z" fill="#f4511e"/><path d="m316 354.5h-120c-17.6 0-32-14.4-32-32 0-17.6 14.4-32 32-32h120c17.6 0 32 14.4 32 32 0 17.6-14.4 32-32 32z" fill="#ff5722"/><path d="m316 290.5h-30c17.6 0 32 14.4 32 32 0 17.6-14.4 32-32 32h30c17.6 0 32-14.4 32-32 0-17.6-14.4-32-32-32z" fill="#f4511e"/><circle cx="431" cy="429.5" fill="#0477b0" r="16"/><path d="m241.5 290.5h33v64h-33z" fill="#ebe3d4"/><g><path d="m438.5 347.502v-74.499c0-11.855-9.645-21.5-21.5-21.5h-10.5v-22.5c0-4.143-3.358-7.5-7.5-7.5h-8.919c-1.222-10.908-5.108-21.291-11.421-30.384-2.362-3.402-7.034-4.246-10.438-1.884-3.402 2.362-4.246 7.036-1.883 10.438 4.557 6.564 7.476 14.002 8.616 21.83h-101.903c3.643-24.854 25.099-43.999 50.948-43.999 7.344 0 14.434 1.512 21.072 4.492 3.779 1.698 8.218.01 9.914-3.769 1.697-3.778.009-8.218-3.77-9.914-8.583-3.854-17.74-5.809-27.217-5.809-34.132 0-62.326 25.851-66.065 58.999h-8.934c-4.142 0-7.5 3.357-7.5 7.5v22.5h-65.514c-3.484-17.096-18.635-30-36.745-30-1.693 0-3.357.124-4.991.342l-60.198-60.198c.161-.704.304-1.415.424-2.133l81.405-47.008c.482 2.807 1.05 5.079 1.717 6.85 5.448 14.531 16.253 26.059 30.428 32.464 7.594 3.426 15.641 5.163 23.914 5.163 22.737 0 43.516-13.281 52.938-33.837 5.168-11.281.196-24.663-11.092-29.836-11.292-5.158-24.667-.18-29.813 11.086-2.99 6.522-10.81 9.396-17.423 6.412-2.353-1.064-4.286-2.749-5.629-4.864 7.368-6.852 11.989-16.619 11.989-27.451 0-10.748-4.552-20.447-11.821-27.291 1.433-2.42 3.619-4.283 6.293-5.325 6.524-2.553 13.911.679 16.462 7.193 4.52 11.58 17.563 17.289 29.143 12.759 11.585-4.521 17.289-17.565 12.759-29.145-11.576-29.621-45.107-44.305-74.746-32.723-14.355 5.608-25.667 16.471-31.851 30.586-1.18 2.694-2.145 6.579-2.936 11.761-7.897 4.717-13.986 12.266-16.719 21.387l-20.337 11.74c-3.587 2.07-4.817 6.657-2.746 10.245 2.081 3.605 6.676 4.806 10.245 2.745l11.936-6.89c1.094 5.676 3.482 11.028 6.956 15.617l-72.065 41.614c-1.637-5.584-4.535-10.633-8.372-14.811l33.533-19.359c3.587-2.07 4.817-6.657 2.746-10.245-2.07-3.588-6.658-4.815-10.245-2.745l-39.672 22.902c-4.322-1.742-9.036-2.711-13.974-2.711-20.678 0-37.5 16.822-37.5 37.5 0 20.411 16.395 37.054 36.706 37.48l60.737 60.727h-2.442c-11.855 0-21.5 9.644-21.5 21.5v74.499c-41.271 4.499-73.5 39.55-73.5 81.998 0 45.49 37.009 82.499 82.5 82.499h13.577c4.142 0 7.5-3.357 7.5-7.5s-3.358-7.5-7.5-7.5h-13.577c-37.22 0-67.5-30.28-67.5-67.499s30.28-67.499 67.5-67.499h347c37.22 0 67.5 30.28 67.5 67.499s-30.28 67.499-67.5 67.499h-301.5c-4.142 0-7.5 3.357-7.5 7.5s3.358 7.5 7.5 7.5h301.5c45.491 0 82.5-37.009 82.5-82.499 0-42.448-32.229-77.499-73.5-81.999zm-182-110.999h135v15h-135zm-96.05 15h-42.42c3.096-8.729 11.432-15 21.21-15s18.114 6.271 21.21 15zm-41.664-23.906c-4.797 3.135-8.835 7.333-11.775 12.263l-52.943-52.934c5.189-2.567 9.699-6.299 13.193-10.852zm34.561-153.532c2.079-10.47 11.357-18.069 22.063-18.069 12.407 0 22.5 10.094 22.5 22.5s-10.093 22.5-22.5 22.5c-14.288-.001-24.824-13.139-22.063-26.931zm47.028 50.415c14.113 6.369 30.814.167 37.237-13.84 1.714-3.752 6.174-5.407 9.934-3.687 3.761 1.724 5.419 6.185 3.696 9.946-6.985 15.239-22.413 25.086-39.302 25.086-6.132 0-12.103-1.291-17.742-3.835-9.917-4.48-17.606-12.347-21.836-22.278 5.4.431 10.733-.283 15.754-2.097 2.895 4.668 7.116 8.38 12.259 10.705zm-3.916-106.547c21.934-8.569 46.75 2.293 55.316 24.216 1.509 3.857-.383 8.205-4.249 9.713-3.851 1.506-8.2-.376-9.713-4.25-5.567-14.22-21.669-21.264-35.887-15.704-5.741 2.237-10.46 6.226-13.585 11.388-4.84-1.784-10.121-2.597-15.663-2.191 3.149-8.736 11.901-18.531 23.781-23.172zm-181.459 135.363c0-12.406 10.093-22.5 22.5-22.5s22.5 10.094 22.5 22.5c0 12.472-10.173 22.5-22.5 22.5-12.407 0-22.5-10.094-22.5-22.5zm80 113.207h322c3.584 0 6.5 2.916 6.5 6.5v73.999h-76.551c5.346-6.739 8.551-15.25 8.551-24.5 0-21.78-17.72-39.5-39.5-39.5h-120c-21.78 0-39.5 17.72-39.5 39.5 0 9.25 3.205 17.761 8.551 24.5h-76.551v-73.999c0-3.584 2.916-6.5 6.5-6.5zm76.5 55.999c0-13.51 10.991-24.5 24.5-24.5h38v48.999h-38c-13.509.001-24.5-10.989-24.5-24.499zm77.5 24.5v-48.999h18v48.999zm33 0v-48.999h34c13.509 0 24.5 10.99 24.5 24.5s-10.991 24.5-24.5 24.5h-34z"/><path d="m482 429.501c0-28.948-23.551-52.499-52.5-52.499h-347c-28.949 0-52.5 23.551-52.5 52.499s23.551 52.499 52.5 52.499h347c28.949 0 52.5-23.551 52.5-52.499zm-15 0c0 20.677-16.822 37.5-37.5 37.5s-37.5-16.822-37.5-37.5 16.822-37.5 37.5-37.5 37.5 16.823 37.5 37.5zm-422 0c0-20.677 16.822-37.5 37.5-37.5s37.5 16.822 37.5 37.5-16.822 37.5-37.5 37.5-37.5-16.823-37.5-37.5zm74.192 37.5c9.745-9.536 15.808-22.821 15.808-37.5s-6.063-27.963-15.808-37.5h273.616c-9.745 9.536-15.808 22.821-15.808 37.5s6.063 27.963 15.808 37.5z"/><path d="m256 406.001c-12.958 0-23.5 10.542-23.5 23.5s10.542 23.5 23.5 23.5 23.5-10.542 23.5-23.5-10.542-23.5-23.5-23.5zm0 32c-4.687 0-8.5-3.813-8.5-8.5s3.813-8.5 8.5-8.5 8.5 3.813 8.5 8.5-3.813 8.5-8.5 8.5z"/><path d="m106 429.501c0-12.958-10.542-23.5-23.5-23.5s-23.5 10.542-23.5 23.5 10.542 23.5 23.5 23.5 23.5-10.542 23.5-23.5zm-32 0c0-4.686 3.813-8.5 8.5-8.5s8.5 3.813 8.5 8.5-3.813 8.5-8.5 8.5-8.5-3.814-8.5-8.5z"/><path d="m407.5 429.501c0 12.958 10.542 23.5 23.5 23.5s23.5-10.542 23.5-23.5-10.542-23.5-23.5-23.5-23.5 10.542-23.5 23.5zm23.5-8.5c4.687 0 8.5 3.813 8.5 8.5s-3.813 8.5-8.5 8.5-8.5-3.813-8.5-8.5 3.813-8.5 8.5-8.5z"/></g></g></svg>