<svg id="Layer_1" enable-background="new 0 0 512.157 512.157" viewBox="0 0 512.157 512.157" xmlns="http://www.w3.org/2000/svg"><g><g><path d="m271.09 458.483c25.101-63.049 14.054-119.006 14.054-119.006l-58.492.043s-11.047 55.957 14.054 119.006c1.641 4.121 2.033 8.739 1.05 13.119-9.899 44.112 38.177 44.04 28.284-.043-.983-4.38-.591-8.998 1.05-13.119z" fill="#fedbbd"/><path d="m382.31 305.731c-30.504-23.677-74.469-51.405-101.746-63.209 29.699-23.038 175.993-202.437 115.398-231.672-19.274-9.299-43.448-.509-80.706 65.682-27.568 48.975-55.102 116.937-59.359 151.788-4.257-34.851-31.791-102.813-59.359-151.788-37.258-66.191-61.497-75.116-80.706-65.682-59.522 29.236 85.712 208.644 115.398 231.672-27.277 11.804-71.242 39.532-101.746 63.209-43.673 33.898-55.648 60.599-45.275 68.721 10.372 8.122 39.165-5.411 82.837-39.309 34.174-26.526 74.949-66.203 86.1-86.1l.04-.04c1.395-1.414 4.029-1.414 5.425 0l.04.04c11.151 19.896 51.926 59.574 86.1 86.1 43.672 33.898 74.611 42.32 84.983 34.198 10.37-8.121-3.751-29.711-47.424-63.61z" fill="#e8edf2"/><path d="m312.829 238.495c-1.6-16.519 17.205-23.802 17.205-49.557 0-18.878-18.806-34.726-15.403-54.383 2.18-12.59.998-33.167-17.265-42.748-11.891-6.238-23.922-6.234-35.74-2.28-3.596 1.203-7.619 1.109-11.145-.227-7.104-2.693-20.633-5.583-36.054 2.507-18.263 9.581-19.444 30.158-17.265 42.748 3.403 19.657-15.403 35.505-15.403 54.383 0 25.755 18.806 33.038 17.205 49.557z" fill="#bd80e1"/><g><path d="m330.034 188.938c0-18.878-18.806-34.726-15.403-54.383 2.18-12.59.998-33.167-17.265-42.748-11.891-6.238-23.922-6.234-35.74-2.28-2.487.832-5.176 1.029-7.766.638 1.17.494 2.339 1.029 3.507 1.642 18.263 9.581 19.444 30.158 17.265 42.748-3.403 19.657-17.649 38.789-17.649 57.666 0 25.755 14.245 29.755 15.846 46.274h40c-1.601-16.519 17.205-23.803 17.205-49.557z" fill="#af66da"/></g><path d="m392.666 256.873c5.927-.476 6.35-8.969.496-10.008-12.095-2.147-26.835-5.23-44.245-9.658-18.269-4.646-35.432-12.563-52.088-21.418-12.683-6.743-26.524-17.907-26.524-17.907 9.524-8.328 20.205-20.326 20.899-33.611.341-6.53.244-20.097.131-29.194-.001-.075-.002-.15-.005-.224-.263-9.259-12.969-11.659-16.779-3.221-5.298 11.734-19.072 29.891-53.959 32.639.694 13.3 11.845 26.586 21.918 34.456 0 0-34.071 28.124-76.723 38.48-17.259 4.19-31.882 7.178-43.902 9.308-7.283 1.29-6.886 11.845.475 12.571 29.367 2.896 69.83 2.751 107.887-11.307h54.209c29.803 12.272 75.105 11.751 108.21 9.094z" fill="#fedbbd"/><path d="m257.352 377.224c44.508-.653 56.354-16.068 56.354-16.068-21.497-18.911-49.917-47.23-27.486-85.264 17.698-30.008-4.673-39.87-4.673-39.87-17.484-8.538-33.816-8.538-51.3 0 0 0-22.371 9.862-4.673 39.87 22.431 38.034-5.989 66.353-27.486 85.264 16.68 13.844 38.758 16.284 59.264 16.068z" fill="#fedf30"/><g><path d="m286.22 275.893c17.698-30.008-4.673-39.87-4.673-39.87-15.587-7.612-30.261-8.418-45.65-2.458 1.872.725 3.753 1.531 5.65 2.458 0 0 26.057 8.271 10.63 39.507-20.362 41.227 7.844 80.647 29.341 99.559 24.835-4.384 32.188-13.932 32.188-13.932-21.497-18.911-49.917-47.231-27.486-85.264z" fill="#fed402"/></g></g><path d="m426.244 335.195c-24.61-28.008-57.445-49.997-88.716-69.774 19.693 1.062 39.522.23 55.739-1.071 13.958-1.121 15.462-22.338 1.206-24.869-22.858-4.056-46.189-8.745-67.709-17.654 4.784-7.509 10.35-16.843 10.732-31.323 23.762-29.704 124.786-155.985 61.725-186.408-45.686-22.046-81.109 50.638-97.477 81.566-13.058-7.255-28.441-7.951-42.494-3.248-1.951.65-4.176.605-6.108-.127-14.038-5.323-29.992-3.901-43.089 3.375-22.587-40.847-55.739-101.005-97.525-81.544-8.228 4.042-18.093 12.829-18.369 31.741-.173 11.872 3.511 26.763 10.949 44.259 1.622 3.812 6.025 5.587 9.837 3.968 3.812-1.621 5.588-6.025 3.968-9.837-8.374-20.473-17.313-47.771.228-56.666 18.85-11.897 48.51 17.874 79.174 77.974-9.187 11.593-10.786 27.298-8.539 40.278 2.028 11.495-6.99 23.813-11.449 35.002-11.869-15.727-26.479-36.306-39.451-58.095-2.119-3.56-6.722-4.727-10.281-2.608s-4.727 6.722-2.607 10.281c16.393 27.535 35.278 53.11 48.308 69.806.33 15.281 6.427 24.864 11.367 32.591.175.274-58.774 15.2-65.083 16.318-15.079 2.672-14.693 25.868 1.048 27.42 16.425 1.619 33.012 1.978 49.482.865-17.517 11.206-130.1 82.73-91.522 112.942 24.524 19.203 75.897-26.744 92.06-39.29 17.52-13.599 37.055-30.88 53.412-47.184 6.173 25.187-12.842 44.857-31.921 61.641-3.448 3.851-3.394 7.652.164 11.402 7.275 6.038 15.325 10.07 23.578 12.751.721 20.825 4.41 50.351 16.86 81.622 1.094 2.748 1.343 5.838.7 8.702-3.881 17.296-.161 31.728 9.952 38.604 6.967 4.738 16.023 4.731 22.989-.006 10.132-6.89 13.863-21.335 9.979-38.642-.643-2.863-.394-5.953.7-8.702 12.443-31.252 16.136-60.763 16.86-81.6 20.186-6.404 31.804-16.032 23.741-24.132-4.898-4.308-10.611-9.495-15.86-15.298-6.871-7.144-17.549 2.502-11.125 10.062 3.399 3.759 6.923 7.234 10.312 10.394-24.825 13.607-67.671 13.597-91.873-.289 25.998-23.037 42.34-55.214 21.92-88.311-5.043-8.552-6.827-15.964-5.158-21.435 5.751-18.857 51.989-18.819 57.985-.19 1.768 5.494.005 12.972-5.1 21.626-7.702 13.059-10.607 26.294-8.637 39.34.619 4.096 4.454 6.912 8.536 6.295 4.096-.619 6.915-4.441 6.296-8.537-.769-5.091-.515-10.171.758-15.319 26.172 24.387 110.397 108.049 147.641 81.386 14.474-11.334.233-30.554-8.113-40.052zm-171.441 49.543c8.343 0 16.704-.51 24.958-1.763-.987 19.268-4.718 45.301-15.639 72.734-2.201 5.528-2.697 11.755-1.4 17.535 3.473 14.012-1.26 27.591-9.898 22.959-3.559-2.421-6.677-9.875-3.75-22.917 1.297-5.781.8-12.009-1.4-17.535-10.888-27.347-14.627-53.303-15.629-72.542 7.875 1.201 15.624 1.529 22.758 1.529zm137.9-367.133c44.06 21.258-45.63 135.684-59.144 153.449-4.417-10.784-13.668-22.912-11.538-35.221 2.248-12.979.648-28.685-8.539-40.278 10.633-20.356 44.218-94.84 79.221-77.95zm-194.405 197.128c-25.225-36.186 10.742-47.186 6.256-81.458-1.036-5.983-3.134-26.175 13.358-34.827 12.974-6.807 24.309-4.261 29.91-2.137 5.187 1.967 10.934 2.083 16.183.328 10.862-3.634 20.632-3.041 29.877 1.809 16.492 8.652 14.395 28.844 13.359 34.827-3.551 33.432 31.774 43.476 5.709 82.319-10.905-5.292-21.291-11.18-31.083-18.338 20.953-21.343 16.775-35.289 16.965-62.278-.235-16.841-24.021-22.154-31.118-6.432-5.229 11.584-17.753 25.888-47.711 28.248-4.052.319-7.113 3.809-6.901 7.868.653 12.515 8.609 24.63 17.563 33.574-6.649 4.716-17.587 11.875-31.094 18.509-.424-.675-.851-1.352-1.273-2.012zm-35.85 114.486c-9.601 7.453-59.403 50.461-73.614 39.329-19.264-15.037 107.988-103.62 122.992-107.315.992 5.585 3.289 11.515 6.882 17.751-16.713 17.086-37.656 35.794-56.26 50.235zm122.303-99.979c-21.093-10.27-62.575-11.486-71.952 16.23-29.275 7.992-58.969 8.421-81.161 6.871 41.665-7.989 82.372-20.367 115.647-47.83 3.686-3.948 3.633-7.846-.157-11.694-6.657-5.201-14.32-13.483-17.531-22.061 33.056-5.259 46.567-24.472 51.79-36.039.657-1.455 2.412-.553 2.448.452-.515 30.299 4.894 35.677-18.468 57.066-3.491 3.899-3.415 7.727.228 11.484 31.239 25.194 68.616 38.562 107.435 46.841-24.657 1.012-50.362.69-74.321-5.885-3.835-10.297-12.313-14.673-13.958-15.435zm140.356 134.197c-27.582 16.73-112.624-65.155-132.02-84.452 3.723-6.463 6.051-12.595 6.981-18.356 24.728 13.573 55.039 33.481 77.643 51.027 1.792 1.391 56.26 44.846 47.396 51.781z"/></g></svg>