<svg id="Layer_1_1_" enable-background="new 0 0 64 64" height="512" viewBox="0 0 64 64" width="512" xmlns="http://www.w3.org/2000/svg"><circle cx="53" cy="11" fill="#e1ebef" r="8"/><path d="m56.192 47.293-2.121-2.121 2.121-2.121c2.169-1.762 2.853-3.602 3.101-4.506 1.189-4.348-1.544-9.717-7-13 .735 1.196 2.31 4.143 2 8-.001.017-.003.033-.004.049-.183 2.166-1.223 4.169-2.79 5.675l-.257.247-1.414 1.414-2.121-2.121-.707 9.191z" fill="#e63e57"/><path d="m45 61h-14v-3c0-3.866 3.134-7 7-7 3.866 0 7 3.134 7 7z" fill="#b4e7fe"/><path d="m42.18 52.395c-2.227 4.26-6.31 7.389-11.18 8.314v.291h14v-3c0-2.297-1.111-4.329-2.82-5.605z" fill="#acdcf2"/><path d="m31 61h-14v-3c0-3.866 3.134-7 7-7 3.866 0 7 3.134 7 7z" fill="#b4e7fe"/><path d="m17 61h-14v-3c0-3.866 3.134-7 7-7 3.866 0 7 3.134 7 7z" fill="#b4e7fe"/><g fill="#fee2c5"><circle cx="24" cy="47" r="4"/><circle cx="38" cy="47" r="4"/><circle cx="10" cy="47" r="4"/></g><path d="m15.808 11.251 2.121 2.121-2.121 2.121c-2.169 1.762-2.853 3.602-3.101 4.506-1.189 4.348 1.544 9.717 7 13-.735-1.196-2.31-4.143-2-8 .001-.017.003-.033.004-.049.183-2.166 1.223-4.169 2.79-5.675l.257-.247 1.414-1.414 2.121 2.121.707-9.191z" fill="#f9435e"/><path d="m43.521 30.706c.148-.413.516-.706.955-.706h1.524v-4h-1.524c-.439 0-.807-.293-.955-.706-.086-.239-.182-.472-.289-.699-.187-.397-.134-.864.177-1.175l1.077-1.077-2.828-2.828-1.077 1.077c-.31.31-.778.364-1.175.177-.227-.107-.461-.204-.699-.289-.414-.149-.707-.517-.707-.956v-1.524h-4v1.524c0 .439-.293.807-.706.955-.239.086-.472.182-.699.289-.397.187-.864.134-1.175-.177l-1.077-1.077-2.828 2.828 1.077 1.077c.31.31.364.778.177 1.175-.107.227-.204.461-.289.699-.149.414-.517.707-.956.707h-1.524v4h1.524c.439 0 .807.293.955.706.086.239.182.472.289.699.187.397.134.864-.177 1.175l-1.077 1.077 2.828 2.828 1.077-1.077c.31-.31.778-.364 1.175-.177.227.107.461.204.699.289.414.149.707.517.707.956v1.524h4v-1.524c0-.439.293-.807.706-.955.239-.086.472-.182.699-.289.397-.187.864-.134 1.175.177l1.077 1.077 2.828-2.828-1.077-1.077c-.31-.31-.364-.778-.177-1.175.108-.229.204-.462.29-.7zm-7.521 1.294c-2.209 0-4-1.791-4-4s1.791-4 4-4 4 1.791 4 4-1.791 4-4 4z" fill="#656c96"/><path d="m60.258 38.808c1.332-4.873-1.731-10.68-7.449-14.121-.396-.239-.902-.175-1.226.153-.325.327-.383.834-.142 1.227.988 1.608 2.112 4.197 1.852 7.442-.157 1.859-1.04 3.648-2.487 5.038l-.977.967-1.415-1.414c-.276-.276-.688-.364-1.054-.231-.366.136-.62.472-.65.861l-.707 9.192c-.022.291.083.577.29.784.188.19.443.294.707.294.025 0 .051-.001.077-.003l9.192-.707c.389-.03.726-.284.861-.65s.045-.778-.231-1.054l-1.414-1.415 1.378-1.378c1.714-1.403 2.887-3.126 3.395-4.985zm-4.696 3.466c-.027.021-.052.044-.077.069l-2.121 2.121c-.391.391-.391 1.023 0 1.414l.584.584-5.862.451.451-5.862.584.584c.391.391 1.023.391 1.414 0l1.656-1.646c1.797-1.727 2.896-3.968 3.098-6.365.148-1.839-.092-3.5-.51-4.935 2.978 2.863 4.397 6.487 3.548 9.591-.4 1.469-1.356 2.849-2.765 3.994z"/><path d="m36 33c2.757 0 5-2.243 5-5s-2.243-5-5-5-5 2.243-5 5 2.243 5 5 5zm0-8c1.654 0 3 1.346 3 3s-1.346 3-3 3-3-1.346-3-3 1.346-3 3-3z"/><path d="m26 25c-.552 0-1 .448-1 1v4c0 .552.448 1 1 1l1.538.044c.097.268.205.53.347.828l-1.077 1.077c-.391.391-.391 1.023 0 1.414l2.829 2.829c.391.391 1.023.391 1.414 0l1.12-1.056c.256.12.518.229.83.339v1.525c0 .552.448 1 1 1h4c.552 0 1-.448 1-1l.044-1.538c.268-.097.53-.205.828-.347l1.077 1.077c.391.391 1.023.391 1.414 0l2.829-2.829c.391-.391.391-1.023 0-1.414l-1.056-1.12c.12-.256.229-.518.339-.83h1.524c.552 0 1-.448 1-1v-4c0-.552-.448-1-1-1l-1.538-.044c-.097-.268-.205-.53-.347-.828l1.077-1.077c.391-.391.391-1.023 0-1.414l-2.829-2.829c-.391-.391-1.023-.391-1.414 0l-1.12 1.056c-.256-.12-.518-.229-.83-.339v-1.524c0-.552-.448-1-1-1h-4c-.552 0-1 .448-1 1l-.044 1.538c-.268.097-.53.205-.828.347l-1.077-1.077c-.391-.391-1.023-.391-1.414 0l-2.829 2.829c-.391.391-.391 1.023 0 1.414l1.056 1.12c-.12.256-.229.518-.339.83h-1.524zm3.299-2.287-.37-.37 1.415-1.415.37.37c.603.604 1.509.75 2.308.375.199-.094.403-.179.611-.253.83-.297 1.367-1.042 1.367-1.896v-.524h2v.524c0 .854.537 1.599 1.367 1.896.209.075.414.16.612.253.8.377 1.707.229 2.308-.375l.37-.37 1.415 1.415-.37.37c-.604.603-.751 1.509-.375 2.308.094.199.179.403.253.611.297.831 1.042 1.368 1.896 1.368h.524v2h-.524c-.854 0-1.599.537-1.896 1.367-.075.209-.16.414-.253.612-.376.799-.229 1.705.375 2.308l.37.37-1.415 1.415-.37-.37c-.603-.604-1.509-.75-2.308-.375-.199.094-.403.179-.611.253-.831.297-1.368 1.042-1.368 1.896v.524h-2v-.524c0-.854-.537-1.599-1.367-1.896-.209-.075-.414-.16-.612-.253-.799-.376-1.705-.229-2.308.375l-.37.37-1.415-1.415.37-.37c.604-.603.751-1.509.375-2.308-.094-.199-.179-.403-.253-.611-.297-.831-1.042-1.368-1.896-1.368h-.524v-2h.524c.854 0 1.599-.537 1.896-1.367.075-.209.16-.414.253-.612.376-.799.229-1.705-.374-2.308z"/><path d="m41.305 50.723c1.031-.917 1.695-2.238 1.695-3.723 0-2.757-2.243-5-5-5s-5 2.243-5 5c0 1.485.664 2.806 1.695 3.723-1.566.714-2.865 1.914-3.695 3.413-.83-1.498-2.129-2.698-3.695-3.413 1.031-.917 1.695-2.238 1.695-3.723 0-2.757-2.243-5-5-5s-5 2.243-5 5c0 1.485.664 2.806 1.695 3.723-1.566.714-2.865 1.914-3.695 3.413-.83-1.498-2.129-2.698-3.695-3.413 1.031-.917 1.695-2.238 1.695-3.723 0-2.757-2.243-5-5-5s-5 2.243-5 5c0 1.485.664 2.806 1.695 3.723-2.765 1.261-4.695 4.045-4.695 7.277v3c0 .552.448 1 1 1h42c.552 0 1-.448 1-1v-3c0-3.232-1.93-6.016-4.695-7.277zm-31.305-6.723c1.654 0 3 1.346 3 3s-1.346 3-3 3-3-1.346-3-3 1.346-3 3-3zm6 16h-12v-2c0-3.309 2.691-6 6-6s6 2.691 6 6zm8-16c1.654 0 3 1.346 3 3s-1.346 3-3 3-3-1.346-3-3 1.346-3 3-3zm6 16h-12v-2c0-3.309 2.691-6 6-6s6 2.691 6 6zm8-16c1.654 0 3 1.346 3 3s-1.346 3-3 3-3-1.346-3-3 1.346-3 3-3zm6 16h-12v-2c0-3.309 2.691-6 6-6s6 2.691 6 6z"/><path d="m19.191 33.857c.161.096.339.143.516.143.26 0 .518-.101.711-.296.324-.328.383-.834.142-1.228-.988-1.609-2.112-4.199-1.852-7.441.157-1.859 1.04-3.648 2.487-5.039l.977-.967 1.415 1.414c.277.277.689.366 1.054.231.366-.136.62-.472.65-.861l.707-9.192c.022-.291-.083-.577-.29-.784s-.494-.313-.784-.29l-9.192.707c-.389.03-.726.284-.861.65s-.045.778.231 1.054l1.414 1.415-1.378 1.379c-1.713 1.403-2.886 3.126-3.394 4.985-1.333 4.873 1.73 10.68 7.447 14.12zm-5.519-13.593c.401-1.468 1.357-2.849 2.766-3.993.027-.022.052-.045.077-.069l2.121-2.122c.391-.391.391-1.023 0-1.414l-.584-.584 5.862-.451-.451 5.862-.584-.584c-.391-.391-1.023-.391-1.414 0l-1.656 1.646c-1.797 1.727-2.896 3.968-3.098 6.365-.148 1.839.092 3.5.511 4.936-2.98-2.862-4.399-6.488-3.55-9.592z"/><path d="m51.293 14.707c.188.188.442.293.707.293.015 0 .03 0 .045-.001.281-.013.543-.143.723-.359l5-6-1.536-1.28-4.299 5.159-2.226-2.226-1.414 1.414z"/><path d="m59.786 9.273 1.938-.491c-.178-.703-.442-1.383-.784-2.022l-1.764.943c.267.497.472 1.025.61 1.57z"/><path d="m56.14 2.562c-.68-.252-1.39-.422-2.11-.504l-.227 1.987c.56.063 1.111.195 1.639.392z"/><path d="m59.696 4.986c-.484-.539-1.033-1.019-1.63-1.426l-1.127 1.652c.465.317.893.691 1.27 1.111z"/><path d="m59.202 14.25c-.261.498-.583.965-.958 1.388l1.498 1.325c.48-.543.895-1.143 1.231-1.783z"/><path d="m62 10.977-.556-.021-1.444.044c0 .567-.068 1.13-.201 1.674l1.942.477c.172-.7.259-1.423.259-2.174z"/><path d="m50.533 17.553c-.527-.198-1.029-.461-1.493-.78l-1.135 1.647c.597.411 1.244.749 1.922 1.005z"/><path d="m56.982 16.757c-.463.321-.964.585-1.49.786l.713 1.868c.677-.258 1.321-.598 1.917-1.011z"/><path d="m54.1 19.934-.242-1.985c-.552.067-1.133.068-1.688.003l-.233 1.986c.348.041.703.062 1.063.062.373 0 .739-.022 1.1-.066z"/><path d="m46.811 14.273-1.767.938c.338.638.754 1.236 1.237 1.777l1.493-1.33c-.376-.422-.7-.888-.963-1.385z"/><path d="m46.208 12.7c-.136-.543-.206-1.106-.208-1.673l-2 .008c.003.728.093 1.451.267 2.15z"/><path d="m46.785 7.774-1.774-.923c-.335.644-.591 1.328-.76 2.032l1.944.469c.132-.547.33-1.078.59-1.578z"/><path d="m48.995 5.258-1.146-1.64c-.593.415-1.136.9-1.614 1.444l1.502 1.32c.373-.423.796-.801 1.258-1.124z"/><path d="m52.115 4.055-.249-1.984c-.72.09-1.428.269-2.104.529l.721 1.866c.524-.202 1.073-.341 1.632-.411z"/></svg>