<svg id="Layer_1" enable-background="new 0 0 512 512" height="512" viewBox="0 0 512 512" width="512" xmlns="http://www.w3.org/2000/svg"><g><path d="m304.494 300.737c16.076-21.374 25.622-47.961 25.622-76.747l-.109-106.597c0-41.356-33.646-75.002-75.002-75.002h-104.003c-41.356 0-75.002 33.646-75.002 75.002l-.116 106.597c0 28.786 9.547 55.373 25.622 76.747-56.999 6.207-101.506 54.545-101.506 113.072v40.749c0 8.284 6.716 15 15 15s15-6.716 15-15v-40.749c0-27.078 12.958-51.183 33-66.503v107.301c0 8.284 6.716 15 15 15s15-6.716 15-15v-121.911c6.697-1.723 13.716-2.639 20.945-2.639h9.055v66.551c0 8.284 6.716 15 15 15h130c8.284 0 15-6.716 15-15v-66.551h9.055c7.229 0 14.247.917 20.945 2.639v121.911c0 8.284 6.716 15 15 15s15-6.716 15-15v-107.301c20.042 15.32 33 39.424 33 66.503v40.799c0 8.284 6.716 15 15 15s15-6.716 15-15v-40.799c0-58.527-44.507-106.865-101.506-113.072zm-198.61-76.747v-19.795c4.798 6.917 9.586 13.84 14.389 20.754 2.803 4.035 7.405 6.442 12.319 6.442h140.793c4.921 0 9.53-2.414 12.332-6.46 0 0 10.777-15.562 14.399-20.791v19.851c0 53.827-43.566 97.619-97.116 97.619s-97.116-43.793-97.116-97.62zm13.742-52.599h166.689c-6.989 10.073-13.95 20.126-20.788 30h-125.09c-6.942-9.996-13.879-19.998-20.811-30zm31.376-99h104.002c24.814 0 45.002 20.188 45.002 45.002v23.998h-194.006v-23.998c0-24.814 20.188-45.002 45.002-45.002zm1.998 309.217v-40.294c15.355 6.621 32.257 10.295 50 10.295s34.645-3.674 50-10.295v40.294z"/><path d="m512 262.607c0-8.284-6.716-15-15-15h-91.935c-8.284 0-15 6.716-15 15 0 6.528 4.178 12.067 10 14.128v14.703c0 22.884 15.162 42.292 35.967 48.711v114.459c0 8.284 6.716 15 15 15s15-6.716 15-15v-114.458c20.806-6.42 35.968-25.827 35.968-48.711v-14.703c5.822-2.062 10-7.6 10-14.129zm-60.967 49.799c-11.562 0-20.967-9.406-20.967-20.967v-13.832h41.934v13.832c0 11.561-9.406 20.967-20.967 20.967z"/></g></svg>