<svg height="512" viewBox="0 0 512 512" width="512" xmlns="http://www.w3.org/2000/svg"><g id="Solid"><path d="m229.657 197.656a14.514 14.514 0 0 1 7.939-4.086 24.241 24.241 0 0 0 19.973-19.97 14.629 14.629 0 0 1 24.774-7.94l40 40 8 8a14.627 14.627 0 0 1 -20.686 20.686l-32-32-11.314 11.314 32 32a14.646 14.646 0 0 1 0 20.682l-.009.009a14.628 14.628 0 0 1 -20.681 0l-32-32-11.314 11.314 32 32a14.627 14.627 0 0 1 -20.686 20.686l-32-32-11.314 11.314 32 32a14.627 14.627 0 0 1 -20.686 20.686l-8-8-40-40a14.629 14.629 0 0 1 7.947-24.781 24.241 24.241 0 0 0 19.969-19.97 14.635 14.635 0 0 1 12.031-12.03 24.241 24.241 0 0 0 19.969-19.97 14.529 14.529 0 0 1 4.088-7.944zm-57.235 177.5a8 8 0 0 1 -1.6-13.255l28-23.76-4.483-4.483-31.9-31.9-76.031 64.5 37.164 18.582a8 8 0 0 1 2.079 12.812l-67.982 67.993 162.954-66.389zm156.548-75.44 34.746-34.745a14.628 14.628 0 0 0 -20.686-20.687l-34.746 34.745a14.628 14.628 0 0 0 20.686 20.687zm51.03 180.284-89.437-119.249 19.094-19.094-11.314-11.314-24 24a25.948 25.948 0 0 1 -36.686 0l-4.965-4.965a30.628 30.628 0 0 0 21.889-30.778q.707.033 1.419.032a30.6 30.6 0 0 0 30.581-32.032q.707.033 1.419.032h.126c-.08.909-.126 1.825-.126 2.749a30.627 30.627 0 0 0 52.284 21.656l20.467-20.466 119.249 89.429v100zm-50.47-115.294 64 88 12.94-9.412-64-88zm14.412-221.664a8 8 0 0 1 -2.765 7.058l-28 23.762 20.481 20.481 8 8a30.486 30.486 0 0 1 6.328 9.23l77.6-65.836-37.164-18.582a8 8 0 0 1 -2.079-12.812l67.988-67.988-162.954 66.389 48.2 24.1a8 8 0 0 1 4.365 6.198zm-146.285 43.3-25.75-25.75-11.314 11.314 25.75 25.75zm-40.25-40.25-54.25-54.25-11.314 11.315 54.25 54.25zm-68.067-69.013-20.44-18.515-10.74 11.857 20.44 18.515zm396.59 248.813 4.14-15.455-64-17.149-4.14 15.455zm-284.367 164.179 13.3-49.631-15.456-4.14-13.3 49.631zm180.367-276.1 4.14 15.455 53.292-14.28-4.14-15.455zm108.14-12.412-4.14-15.455-26.816 7.185 4.141 15.456zm-179.633 288.511 15.455-4.14-13.892-51.83-15.455 4.14zm-156.367-269.664-86.333-23.133-4.137 15.455 86.333 23.133zm-104.461-27.99-23.539-6.308-4.14 15.455 23.539 6.308zm276.283-166.346-15.455-4.14-12.862 48 15.455 4.14zm-253.801 287.491 47.757-12.8-4.141-15.455-47.757 12.8zm-22.6 6.056-4.14-15.455-23.421 6.275 4.14 15.455zm170.914-165.547 15.455-4.14-21.435-80-15.455 4.14zm-10.267-100.14-8.575-32-15.455 4.14 8.575 32z"/></g></svg>