<svg enable-background="new 0 0 512 512" height="512" viewBox="0 0 512 512" width="512" xmlns="http://www.w3.org/2000/svg"><g id="_x30_1_flask"><g><g><path clip-rule="evenodd" d="m250.8 16c59.9 0 108.5 48.6 108.5 108.6s-48.6 108.6-108.5 108.6-108.5-48.6-108.5-108.6 48.5-108.6 108.5-108.6z" fill="#b3ceec" fill-rule="evenodd"/></g><g><path clip-rule="evenodd" d="m116 278.8c59.9 0 108.5 48.6 108.5 108.6s-48.6 108.6-108.5 108.6-108.5-48.6-108.5-108.6c0-59.9 48.6-108.6 108.5-108.6z" fill="#b3ceec" fill-rule="evenodd"/></g><g><path clip-rule="evenodd" d="m396 278.8c60 0 108.5 48.6 108.5 108.6s-48.6 108.6-108.5 108.6-108.5-48.6-108.5-108.6c-.1-59.9 48.5-108.6 108.5-108.6z" fill="#b3ceec" fill-rule="evenodd"/></g><g><path clip-rule="evenodd" d="m91.5 382.2c-8.5 0-16.5 10.8-16.5 20.1v36.1c0 6 4.5 6.8 6.8 6.8h70.3c2.3 0 6.8-.8 6.8-6.8v-36.1c0-9.1-7.4-20.1-16.5-20.1h-8.7c-5.1 3.3-11.1 5.2-17.6 5.2s-12.5-1.9-17.6-5.2z" fill="#fe636e" fill-rule="evenodd"/></g><g><path clip-rule="evenodd" d="m371.5 382.2c-8.5 0-16.5 10.8-16.5 20.1v36.1c0 6 4.5 6.8 6.8 6.8h70.2c2.3 0 6.8-.8 6.8-6.8v-36.1c0-9.1-7.4-20.1-16.5-20.1h-8.8c-5.1 3.3-11.1 5.2-17.6 5.2s-12.5-1.9-17.6-5.2z" fill="#fe636e" fill-rule="evenodd"/></g><g><path clip-rule="evenodd" d="m209.8 139.4v36.1c0 6 4.5 6.8 6.8 6.8h70.3c2.3 0 6.8-.8 6.8-6.8v-36.1c0-9.1-7.4-20-16.5-20h-8.7c-5.1 3.3-11.1 5.2-17.6 5.2s-12.5-1.9-17.6-5.2h-6.9c-8.6 0-16.6 10.7-16.6 20z" fill="#fe636e" fill-rule="evenodd"/></g><g><path clip-rule="evenodd" d="m116 322.7c-17.9 0-32.4 14.5-32.4 32.3 0 11.4 5.9 21.4 14.8 27.2 5.1 3.3 11.1 5.2 17.6 5.2s12.5-1.9 17.6-5.2c8.9-5.8 14.7-15.8 14.7-27.2.1-17.8-14.4-32.3-32.3-32.3z" fill="#fed1a3" fill-rule="evenodd"/></g><g><path clip-rule="evenodd" d="m396 322.7c-17.8 0-32.3 14.5-32.3 32.3 0 11.4 5.9 21.4 14.8 27.2 5 3.3 11.1 5.2 17.6 5.2s12.5-1.9 17.6-5.2c8.9-5.8 14.8-15.8 14.8-27.2-.2-17.8-14.7-32.3-32.5-32.3z" fill="#fed1a3" fill-rule="evenodd"/></g><g><path clip-rule="evenodd" d="m250.8 59.9c-17.9 0-32.3 14.5-32.3 32.3 0 11.4 5.9 21.4 14.7 27.2 5.1 3.3 11.1 5.2 17.6 5.2s12.5-1.9 17.6-5.2c8.9-5.8 14.7-15.8 14.7-27.2 0-17.9-14.5-32.3-32.3-32.3z" fill="#fed1a3" fill-rule="evenodd"/></g><g><path d="m396 271.3c-33.2 0-63.2 14-84.3 36.4l-53.4-32.9v-34.5c60.5-3.9 108.5-54.3 108.5-115.8 0-64-52.1-116.1-116-116.1s-116 52.1-116 116.1c0 61.5 48 111.9 108.5 115.8v34.5l-46.9 28.9c-20.9-20.1-49.2-32.4-80.3-32.4-64 0-116 52.1-116 116.1s52.1 116.1 116 116.1 116-52.1 116-116.1c0-27.4-9.5-52.5-25.4-72.4l44.1-27.2 51.2 31.6c-13.9 19.1-22 42.6-22 68 0 64 52 116.1 116 116.1s116-52.1 116-116.1-52.1-116.1-116-116.1zm-246.3-146.7c0-55.7 45.3-101.1 101-101.1s101 45.3 101 101.1-45.3 101.1-101 101.1-101-45.4-101-101.1zm-33.7 363.9c-55.7 0-101-45.3-101-101.1 0-55.7 45.3-101.1 101-101.1s101 45.3 101 101.1c.1 55.8-45.3 101.1-101 101.1zm280 0c-55.7 0-101-45.3-101-101.1 0-55.7 45.3-101.1 101-101.1s101 45.3 101 101.1-45.3 101.1-101 101.1z"/><path d="m301.1 175.6v-36.1c0-10.5-6.7-22-16.6-26.1 3.9-6.1 6.1-13.4 6.1-21.2 0-22-17.9-39.8-39.8-39.8s-39.8 17.9-39.8 39.8c0 8.1 2.4 15.6 6.5 21.8-9 4.6-15.2 15.6-15.2 25.4v36.1c0 8.4 5.9 14.3 14.3 14.3h70.3c8.3.1 14.2-5.8 14.2-14.2zm-50.3-108.2c13.7 0 24.8 11.1 24.8 24.8s-11.1 24.9-24.8 24.9-24.8-11.2-24.8-24.9c-.1-13.7 11.1-24.8 24.8-24.8zm35.3 107.5h-68.8v-35.5c0-5.8 5.4-12.5 9-12.5h4.9c5.8 3.3 12.5 5.2 19.6 5.2s13.8-1.9 19.6-5.2h6.7c4.1 0 9 6.8 9 12.5z"/><path d="m149.8 376.2c3.8-6.1 6.1-13.4 6.1-21.1 0-22-17.9-39.8-39.8-39.8-22 0-39.9 17.9-39.9 39.8 0 8.1 2.4 15.6 6.5 21.8-9 4.6-15.2 15.6-15.2 25.4v36.1c0 8.4 5.9 14.3 14.3 14.3h70.3c8.4 0 14.3-5.9 14.3-14.3v-36.1c0-10.6-6.8-22.1-16.6-26.1zm-33.8-46c13.7 0 24.8 11.1 24.8 24.8s-11.1 24.9-24.8 24.9c-4.9 0-9.5-1.4-13.4-3.9-6.9-4.4-11.4-12.1-11.4-20.9 0-13.7 11.1-24.9 24.8-24.9zm35.4 107.6h-68.9v-35.5c0-5.8 5.4-12.6 9-12.6h4.8c5.8 3.3 12.5 5.2 19.7 5.2 7.1 0 13.9-1.9 19.7-5.2h6.7c4.1 0 9 6.8 9 12.6z"/><path d="m429.7 376.2c3.8-6.1 6.1-13.4 6.1-21.1 0-22-17.9-39.8-39.9-39.8s-39.8 17.9-39.8 39.8c0 8.1 2.4 15.6 6.5 21.8-9 4.6-15.2 15.6-15.2 25.4v36.1c0 8.4 5.9 14.3 14.3 14.3h70.3c8.4 0 14.3-5.9 14.3-14.3v-36.1c0-10.6-6.7-22.1-16.6-26.1zm-33.7-46c13.7 0 24.9 11.1 24.9 24.8 0 8.8-4.6 16.5-11.4 20.9-3.9 2.5-8.5 3.9-13.4 3.9s-9.4-1.4-13.3-3.9c-.1-.1-.2-.2-.4-.2-6.7-4.5-11.2-12.1-11.2-20.8-.1-13.5 11.1-24.7 24.8-24.7zm35.3 107.6h-68.8v-35.5c0-5.8 5.5-12.6 9-12.6h4.8c5.8 3.3 12.5 5.2 19.7 5.2s13.9-1.9 19.7-5.2h6.7c4.1 0 9 6.8 9 12.6v35.5z"/></g></g></g></svg>