<svg viewBox="0 0 60 60" xmlns="http://www.w3.org/2000/svg"><g id="Page-1" fill="none" fill-rule="evenodd"><g id="032---Grim-Reaper" fill-rule="nonzero"><path id="Shape" d="m22 48v11h-19c-1.10320187-.0032948-1.9967052-.8967981-2-2v-6.97c.0048774-4.6968568 3.27316396-8.7593453 7.86-9.77 2.3469892 2.5321863 5.6911541 3.9005864 9.14 3.74 2.209139 0 4 1.790861 4 4z" fill="#607d82"/><path id="Shape" d="m15 44c2.209139 0 4 1.790861 4 4v11h3v-11c0-2.209139-1.790861-4-4-4z" fill="#37474f"/><path id="Shape" d="m35 50.03v6.97c-.0032948 1.1032019-.8967981 1.9967052-2 2h-11v-11c0-2.209139-1.790861-4-4-4 3.4488459.1605864 6.7930108-1.2078137 9.14-3.74 4.586836 1.0106547 7.8551226 5.0731432 7.86 9.77z" fill="#607d82"/><path id="Shape" d="m27.14 40.26c-.252.28-.517.53-.784.775 3.4500309 1.6711553 5.6420211 5.1665329 5.644 9v6.965c-.0032948 1.1032019-.8967981 1.9967052-2 2h3c1.1032019-.0032948 1.9967052-.8967981 2-2v-6.97c-.0048774-4.6968568-3.273164-8.7593453-7.86-9.77z" fill="#37474f"/><path id="Shape" d="m43 14.01v43.99c0 .5522847-.4477153 1-1 1h-2c-.5522847 0-1-.4477153-1-1v-43.99z" fill="#ffd300"/><path id="Shape" d="m43 3v4h-4.0000277l.0000277-4c-.0028231-.53059053.2101411-1.0395388.59-1.41.3704612-.3798589.8794095-.59282307 1.41-.59 1.1032019.0032948 1.9967052.89679813 2 2z" fill="#ffd300"/><circle id="Oval" cx="14" cy="23" fill="#37474f" r="2"/><path id="Shape" d="m26.47 27.3c.6311752.9177437.701932 2.1096354.1837711 3.0956095s-1.539933 1.603707-2.6537711 1.6043905v3c-.0032948 1.1032019-.8967981 1.9967052-2 2h-8c-1.1032019-.0032948-1.9967052-.8967981-2-2v-3c-1.1138381-.0006835-2.13561022-.6184164-2.65377109-1.6043905s-.44740414-2.1778658.18377109-3.0956095c-1.2410297-1.9697001-1.75069915-4.3127638-1.44-6.62.21969187-1.7028159.88550525-3.3173271 1.93-4.68 2.4425194-1.3449483 5.1918769-2.0340104 7.98-2 2.8002952-.035224 5.5612924.6610575 8.01 2.02 2.4740754 3.3020764 2.656989 7.7874369.46 11.28z" fill="#ececec"/><path id="Shape" d="m28 22c.0024553-2.1563511-.6959554-4.2550928-1.99-5.98-2.4487076-1.3589425-5.2097048-2.055224-8.01-2.02-.518 0-1.014.028-1.5.068 2.2859065.1707257 4.5072908.8367998 6.51 1.952 2.1379492 2.8503609 2.5891356 6.6261388 1.183 9.9-.3224448.8316731-.4022022 1.7377873-.23 2.613.0243586.1544795.0367289.3106121.037.467.0006863.9603543-.4584394 1.8629917-1.235 2.428-1.0863166.7562786-1.7429996 1.988536-1.765 3.312v.26c-.0032948 1.1032019-.8967981 1.9967052-2 2h3c1.1032019-.0032948 1.9967052-.8967981 2-2v-3c1.1138381-.0006835 2.1356102-.6184164 2.6537711-1.6043905s.4474041-2.1778658-.1837711-3.0956095c.997729-1.5878721 1.5279795-3.4246875 1.53-5.3z" fill="#c6cfd3"/><path id="Shape" d="m32 21.91c0 9.35-1.88 15.08-4.86 18.35-2.3469892 2.5321863-5.6911541 3.9005864-9.14 3.74-3.4488459.1605864-6.7930108-1.2078137-9.14-3.74-2.98-3.27-4.86-9-4.86-18.35 1.42687824-2.4846652 3.50944653-4.5291799 6.02-5.91-1.04449475 1.3626729-1.71030813 2.9771841-1.93 4.68-.31069915 2.3072362.1989703 4.6502999 1.44 6.62-.63117523.9177437-.70193196 2.1096354-.18377109 3.0956095s1.53993299 1.603707 2.65377109 1.6043905v3c.0032948 1.1032019.8967981 1.9967052 2 2h8c1.1032019-.0032948 1.9967052-.8967981 2-2v-3c1.1138381-.0006835 2.1356102-.6184164 2.6537711-1.6043905s.4474041-2.1778658-.1837711-3.0956095c2.196989-3.4925631 2.0140754-7.9779236-.46-11.28 2.4946187 1.3827809 4.565421 3.4190123 5.99 5.89z" fill="#37474f"/><path id="Shape" d="m32 21.91c-1.424579-2.4709877-3.4953813-4.5072191-5.99-5.89-2.4487076-1.3589425-5.2097048-2.055224-8.01-2.02-2.7881231-.0340104-5.5374806.6550517-7.98 2-2.51055347 1.3808201-4.59312176 3.4253348-6.02 5.91 0-10.84 9.63-15.45 12.92-16.71.6946829-.27002429 1.4653171-.27002429 2.16 0 3.29 1.26 12.92 5.87 12.92 16.71z" fill="#607d82"/><path id="Shape" d="m19.08 5.2c-.6946829-.27002429-1.4653171-.27002429-2.16 0-.126.048-.277.111-.42.169 3.081 1.248 10 4.834 11.958 12.346 1.426669 1.170572 2.6271041 2.5923182 3.542 4.195 0-10.84-9.63-15.45-12.92-16.71z" fill="#37474f"/><circle id="Oval" cx="22" cy="23" fill="#37474f" r="2"/><circle id="Oval" cx="14" cy="23" fill="#37474f" r="2"/><path id="Shape" d="m57.66 18.85c-2.55-1.75-4.64-4.84-14.66-4.84h-4v-2c0-.5522847-.4477153-1-1-1h-2c-.5522847 0-1-.4477153-1-1v-2.01c0-.55228475.4477153-1 1-1h8.71c7.23 0 13.22 4.79 14.28 11.04.0461604.3348685-.110732.6652153-.3994391.8410445-.2887071.1758291-.6542143.1636354-.9305609-.0310445z" fill="#959595"/><path id="Shape" d="m58.99 18.04c-1.06-6.25-7.05-11.04-14.28-11.04h-3c7.011 0 12.842 4.509 14.156 10.482.641.49 1.207.965 1.794 1.368.2763466.1946799.6418538.2068736.9305609.0310445.2887071-.1758292.4455995-.506176.3994391-.8410445z" fill="#707070"/><g fill="#000"><path id="Shape" d="m3 60h30c1.6568542 0 3-1.3431458 3-3v-6.97c-.0229749-4.5846146-2.8698653-8.6805736-7.159-10.3 2.759-3.848 4.159-9.786 4.159-17.822 0-11.549-10.378-16.422-13.559-17.641-.9278771-.35496417-1.9541229-.35496417-2.882 0-3.181 1.219-13.559 6.092-13.559 17.641 0 8.036 1.4 13.974 4.159 17.824-4.28845486 1.6191649-7.13519889 5.7141181-7.159 10.298v6.97c0 1.6568542 1.34314575 3 3 3zm31-9.97v6.97c0 .5522847-.4477153 1-1 1h-3v-1.4c-.0000229-1.3373037-.6683405-2.5861308-1.781-3.328l-.328-.218c-.5535828-.3688499-.8875458-.9887991-.891-1.654v-4.4c0-.5522847-.4477153-1-1-1s-1 .4477153-1 1v4.4c.0000229 1.3373037.6683405 2.5861308 1.781 3.328l.328.218c.5550489.3698362.8892084.9920256.891 1.659v1.395h-5v-10c-.0037998-1.264984-.4898149-2.4809156-1.359-3.4 2.2062403-.4957068 4.2244314-1.6127214 5.816-3.219 3.8580031 1.1125461 6.5218756 4.6338412 6.543 8.649zm-28.995-27.874c.64635699-1.0935082 1.44051329-2.0925972 2.36-2.969-.11873217.44823-.20726423.9039195-.265 1.364-.31632951 2.3321322.13172381 4.7039729 1.277 6.76-.50226215 1.0770213-.49962765 2.3216077.00718959 3.396493.50681724 1.0748854 1.46533587 1.8687645 2.61581041 2.166507v2.126c0 1.6568542 1.3431458 3 3 3h8c1.6568542 0 3-1.3431458 3-3v-2.126c1.1511993-.297383 2.1104341-1.0914883 2.6175212-2.1669227s.5094614-2.3207171.0064788-3.3980773c1.3763403-2.4761085 1.7370398-5.3900296 1.006-8.127.9227536.8774848 1.7202477 1.8778856 2.37 2.973-.056 14.021-4.3 20.845-13 20.845s-12.944-6.824-12.995-20.844zm20.3-5.391c1.1037953 1.5221459 1.6971645 3.3547639 1.695 5.235-.004199 1.6878959-.4816034 3.3407961-1.378 4.771-.2103661.3373228-.2009437.7672182.024 1.095.4210923.6117478.468533 1.4064566.1232094 2.0639562-.3453236.6574995-1.0265427 1.0695109-1.7692094 1.0700438-.5522847 0-1 .4477153-1 1v3c0 .5522847-.4477153 1-1 1h-1v-2c0-.5522847-.4477153-1-1-1s-1 .4477153-1 1v2h-2v-2c0-.5522847-.4477153-1-1-1s-1 .4477153-1 1v2h-1c-.5522847 0-1-.4477153-1-1v-3c0-.5522847-.4477153-1-1-1-.7426667-.0005329-1.4238858-.4125443-1.7692094-1.0700438-.34532365-.6574996-.29788291-1.4522084.1232094-2.0639562.2268157-.3291186.2358603-.7616881.023-1.1-1.11973842-1.773049-1.5782991-3.8841986-1.295-5.962.19424287-1.4700162.75853851-2.8666479 1.64-4.059 2.2439827-1.1756021 4.7449021-1.7752317 7.278-1.745 2.5453545-.0299915 5.0578351.5767301 7.309 1.765zm-8.031-10.63c.4676374-.17798296.9843626-.17798296 1.452 0 2.52.966 10.033 4.456 11.867 12.2-3.2490231-3.4867577-7.827999-5.4266319-12.593-5.335-4.7653087-.0911175-9.34433223 1.8495042-12.593 5.337 1.834-7.746 9.347-11.237 11.867-12.202zm-15.274 43.895c.01935441-4.0166431 2.6835819-7.5400361 6.543-8.653 2.5180701 2.4597601 5.9400015 3.7707104 9.457 3.623 1.6568542 0 3 1.3431458 3 3v10h-13v-1.4c.00012287-.6687467.33447989-1.29318.891-1.664l.328-.218c1.1097171-.7399012 1.77764-1.9842405 1.781-3.318v-4.4c0-.5522847-.4477153-1-1-1-.55228475 0-1 .4477153-1 1v4.4c-.00012287.6687467-.33447989 1.29318-.891 1.664l-.328.218c-1.11118699.7408859-1.77930704 1.9874681-1.781 3.323v1.395h-3c-.55228475 0-1-.4477153-1-1z"/><path id="Shape" d="m17 23c0-1.6568542-1.3431458-3-3-3s-3 1.3431458-3 3 1.3431458 3 3 3 3-1.3431458 3-3zm-3 1c-.5522847 0-1-.4477153-1-1s.4477153-1 1-1 1 .4477153 1 1-.4477153 1-1 1z"/><path id="Shape" d="m22 26c1.6568542 0 3-1.3431458 3-3s-1.3431458-3-3-3-3 1.3431458-3 3 1.3431458 3 3 3zm0-4c.5522847 0 1 .4477153 1 1s-.4477153 1-1 1-1-.4477153-1-1 .4477153-1 1-1z"/><path id="Shape" d="m17.293 27.293-1 1c-.3789722.3923789-.3735524 1.0160848.0121814 1.4018186s1.0094397.3911536 1.4018186.0121814l.293-.293.293.293c.3923789.3789722 1.0160848.3735524 1.4018186-.0121814s.3911536-1.0094397.0121814-1.4018186l-1-1c-.3904999-.3903819-1.0235001-.3903819-1.414 0z"/><path id="Shape" d="m36 12.007h2v45.993c0 1.1045695.8954305 2 2 2h2c1.1045695 0 2-.8954305 2-2v-42.972c7.347.166 9.851 2.126 11.869 3.719.419.33.817.643 1.225.923.6184.4255458 1.4315274.4393343 2.064.035.6212213-.3871445.9443342-1.1133565.816-1.834-1.167-6.879-7.585-11.871-15.261-11.871h-.713v-3c0-1.65685425-1.3431458-3-3-3s-3 1.34314575-3 3v3h-2c-1.1045695 0-2 .8954305-2 2v2c-.0018608.5316448.2080312 1.0421528.5833058 1.4187409.3752746.376588.8850462.5882624 1.4166942.5882591zm4 45.993v-42.988h2v42.988zm0-55c0-.55228475.4477153-1 1-1s1 .44771525 1 1v3h-2zm4.713 5c6.438 0 12.04 4.189 13.214 9.808-.271-.2-.54-.411-.819-.632-2.227-1.757-5.277-4.164-14.11-4.164h-2.998v-1c0-1.1045695-.8954305-2-2-2h-2v-2.012z"/></g></g></g></svg>