<svg id="Layer_1" enable-background="new 0 0 494.748 494.748" height="512" viewBox="0 0 494.748 494.748" width="512" xmlns="http://www.w3.org/2000/svg"><g id="XMLID_2753_"><path id="XMLID_2702_" d="m89.803 447.337-68.589 26.163-21.214-21.214 92.336-92.335 21.213 21.213z" fill="#ca7b69"/><path id="XMLID_2739_" d="m62.988 372.647h30v130.583h-30z" fill="#9e5b48" transform="matrix(.707 .707 -.707 .707 332.508 73.121)"/><path id="XMLID_2713_" d="m102.942 391.771-53.033-53.033 63.64-63.64 53.033 53.033 21.213 84.853z" fill="#c66ed5"/><path id="XMLID_2709_" d="m116.279 348.967h90v75h-90z" fill="#815bcd" transform="matrix(.707 -.707 .707 .707 -226.036 227.235)"/><path id="XMLID_2743_" d="m200.23 332.667 294.518-332.562-.088.018.018-.088-53.033 10.606-232.636 232.637c-17.574 17.573-46.066 17.573-63.64 0l-.001-.001c-17.573-17.574-17.573-46.066 0-63.639l163.165-163.024-137.886 10.607 21.213 21.213-114.727 114.587c-26.751 26.751-26.751 70.122 0 96.873 5.323 5.324 42.078 42.078 78.843 78.842 36.787 36.788 73.585 73.585 78.912 78.913 26.752 26.751 70.123 26.751 96.874 0z" fill="#fdd034"/><path id="XMLID_2741_" d="m467.561 324.136 10.607-137.886-163.023 163.164c-17.573 17.574-46.065 17.574-63.64 0-17.573-17.573-17.573-46.066 0-63.64l232.637-232.635 10.606-53.033-.088.018.018-.088-338.702 338.701c36.787 36.788 73.585 73.585 78.912 78.913 26.752 26.751 70.123 26.751 96.874 0l114.587-114.728z" fill="#ff9000"/></g></svg>