<svg height="512pt" viewBox="0 -91 512 512" width="512pt" xmlns="http://www.w3.org/2000/svg"><path d="m342.453125 80.949219v50.460937c-.003906 31.683594-23.546875 58.429688-54.972656 62.453125-6.339844.832031-57.25.75-62.960938 0-31.425781-4.023437-54.96875-30.769531-54.972656-62.453125v-50.828125c34.9375-3.554687 61.953125-32.238281 63.414063-67.324219 4.207031 38.523438 36.746093 67.699219 75.5 67.695313zm0 0" fill="#e6e6e6"/><path d="m227.199219 194.050781c12.074219.566407 54.53125.566407 60.285156-.191406 31.425781-4.023437 54.96875-30.769531 54.96875-62.453125v-50.457031h-2.152344zm0 0" fill="#bdbdbd"/><path d="m342.453125 67.972656v12.976563h-33.992187c-38.753907.007812-71.292969-29.167969-75.5-67.691407-1.460938 35.085938-28.476563 63.765626-63.410157 67.320313v-12.605469c-.007812-34.777344 28.179688-62.972656 62.957031-62.976562h46.984376c34.777343.003906 62.96875 28.199218 62.960937 62.976562zm0 0" fill="#e6e6e6"/><path d="m342.453125 67.972656v12.976563h-33.992187c-41.949219.003906-75.957032-34.003907-75.953126-75.953125h46.984376c34.777343 0 62.96875 28.199218 62.960937 62.976562zm0 0" fill="#90a4ae"/><path d="m233.027344 4.996094c0 8.339844-.066406 8.261718-.066406 8.261718-1.460938 35.085938-28.476563 63.769532-63.414063 67.324219v-12.609375c-.007813-34.777344 28.183594-62.972656 62.960937-62.976562zm0 0" fill="#90a4ae"/><path d="m224.519531 194.371094h.070313c-.027344.015625-.050782.03125-.070313.054687zm0 0" fill="#e6e6e6"/><path d="m287.480469 194.371094v.054687c-.019531-.023437-.042969-.039062-.070313-.054687zm0 0" fill="#e6e6e6"/><path d="m306.15625 219.757812c0 27.699219-22.457031 50.152344-50.15625 50.152344s-50.15625-22.453125-50.15625-50.152344h18.675781v-25.894531c5.726563.75 56.640625.828125 62.960938 0v25.894531zm0 0" fill="#bdbdbd"/><path d="m183.96875 171.507812c-1.582031 24.375-20.21875 44.207032-44.445312 47.300782-5.21875.710937-46.699219.589844-51.019532 0-25.472656-3.253906-44.558594-24.929688-44.558594-50.609375v-51.417969c0-28.179688 22.839844-51.023438 51.019532-51.03125h38.082031c13.742187-.019531 26.910156 5.527344 36.5 15.371094v50.289062c-.023437 14.640625 5.082031 28.824219 14.421875 40.097656zm0 0" fill="#e6e6e6"/><path d="m169.546875 81.117188v46.191406h-13.023437c-31.40625.003906-57.777344-23.644532-61.1875-54.863282v-.015624c-.25-2.21875-.371094-4.449219-.371094-6.683594h38.082031c13.742187-.019532 26.910156 5.527344 36.5 15.371094zm0 0" fill="#90a4ae"/><path d="m95.390625 65.75c0 4.105469.023437 5.3125-.054687 6.683594v.011718c-1.183594 28.4375-23.078126 51.679688-51.394532 54.5625v-10.222656c-.003906-28.183594 22.84375-51.035156 51.027344-51.035156zm0 0" fill="#90a4ae"/><g fill="#e6e6e6"><path d="m139.523438 218.808594v21c-10.398438 10.828125-16.703126 24.945312-17.824219 39.914062-11.90625 2.285156-24.210938-.863281-33.558594-8.585937-9.347656-7.71875-14.761719-19.207031-14.773437-31.332031h15.132812v-21c4.351562.597656 45.789062.71875 51.023438.003906zm0 0"/><path d="m88.5 219.226562h.054688c-.019532.011719-.039063.027344-.054688.042969zm0 0"/><path d="m139.523438 219.226562v.042969c-.015626-.015625-.035157-.03125-.054688-.042969zm0 0"/></g><path d="m468.054688 116.78125v51.417969c0 28.179687-22.84375 51.019531-51.019532 51.023437-41.355468 0-40.519531.136719-44.558594-.414062-24.226562-3.09375-42.863281-22.925782-44.445312-47.300782 9.339844-11.269531 14.441406-25.457031 14.421875-40.097656v-50.292968c9.589844-9.84375 22.753906-15.386719 36.5-15.371094h38.078125c28.183594.007812 51.027344 22.855468 51.023438 51.035156zm0 0" fill="#bdbdbd"/><path d="m468.058594 116.785156v10.519532h-27.550782c-31.40625.003906-57.78125-23.640626-61.191406-54.863282-.246094-2.222656-.367187-4.460937-.367187-6.699218h38.082031c28.1875 0 51.035156 22.855468 51.027344 51.042968zm0 0" fill="#78909c"/><path d="m379.378906 65.75c0 4.019531.027344 5.3125-.066406 6.683594v.011718c-.953125 22.882813-15.453125 42.996094-36.859375 51.132813v-42.460937c9.695313-9.949219 23.035156-15.5 36.925781-15.367188zm0 0" fill="#78909c"/><path d="m390.5 284.691406v40.8125h-268.996094v-40.8125c0-1.675781.070313-3.335937.191406-4.96875 1.125-14.972656 7.425782-29.085937 17.828126-39.917968 21.734374-22.746094 45.75-20.046876 66.320312-20.046876 0 27.699219 22.457031 50.152344 50.15625 50.152344s50.15625-22.453125 50.15625-50.152344c20.523438 0 44.554688-2.734374 66.320312 20.046876 10.402344 10.832031 16.703126 24.945312 17.824219 39.917968.125 1.632813.199219 3.292969.199219 4.96875zm0 0" fill="#90caf9"/><path d="m438.632812 239.804688c0 12.128906-5.414062 23.621093-14.765624 31.34375-9.347657 7.722656-21.660157 10.867187-33.566407 8.574218-1.121093-14.972656-7.425781-29.085937-17.828125-39.917968v-21c5.222656.710937 46.703125.589843 51.023438 0v21zm0 0" fill="#757575"/><path d="m507 292.429688v33.074218h-116.5v-40.8125c0-1.675781-.066406-3.335937-.191406-4.96875 11.90625 2.289063 24.214844-.855468 33.5625-8.578125 9.351562-7.722656 14.765625-19.214843 14.769531-31.339843h15.738281c29.066406 0 52.625 23.5625 52.621094 52.625zm0 0" fill="#42a5f5"/><path d="m372.476562 219.226562h.054688c-.019531.011719-.039062.027344-.054688.042969zm0 0" fill="#e6e6e6"/><path d="m423.5 219.226562v.042969c-.015625-.015625-.035156-.03125-.054688-.042969zm0 0" fill="#e6e6e6"/><path d="m372.476562 239.804688c-3.265624-3.449219-6.890624-6.539063-10.808593-9.222657l-94.921875 94.921875h123.753906v-40.8125c0-1.675781-.066406-3.335937-.191406-4.96875-1.125-14.972656-7.429688-29.089844-17.832032-39.917968zm0 0" fill="#90caf9"/><path d="m373.328125 218.921875c3.300781.417969 5.46875.300781 43.707031.300781 28.175782 0 51.019532-22.84375 51.019532-51.023437v-44zm0 0" fill="#757575"/><path d="m121.699219 279.722656c-.125 1.632813-.191407 3.292969-.191407 4.96875l.492188 15.558594-.5 20.253906v5h-116.5v-33.074218c-.003906-29.066407 23.558594-52.628907 52.625-52.625h15.742188c.007812 12.125 5.425781 23.613281 14.773437 31.332031 9.347656 7.722656 21.652344 10.871093 33.558594 8.585937zm0 0" fill="#90caf9"/><path d="m121.984375 299.761719-25.742187 25.742187h25.261718v-5l.496094-20.253906zm0 0" fill="#64b5f6"/><path d="m372.476562 239.804688c-21.765624-22.78125-45.800781-20.046876-66.320312-20.046876 0 27.699219-22.457031 50.152344-50.15625 50.152344s-50.15625-22.453125-50.15625-50.152344c-1.421875 0-2.867188-.015624-4.320312-.03125l-80.019532 80.023438v25.757812h268.996094v-40.816406c0-1.675781-.066406-3.335937-.191406-4.96875-1.125-14.972656-7.429688-29.089844-17.832032-39.917968zm0 0" fill="#64b5f6"/><path d="m390.300781 279.722656c-1.121093-14.972656-7.425781-29.085937-17.828125-39.917968-3.273437-3.457032-6.910156-6.554688-10.839844-9.246094l-94.945312 94.945312h123.8125v-40.8125c0-1.675781-.074219-3.335937-.199219-4.96875zm0 0" fill="#42a5f5"/><path d="m139.523438 239.804688c-10.402344 10.832031-16.703126 24.945312-17.824219 39.917968-.125 1.632813-.191407 3.292969-.191407 4.96875v15.058594l80.019532-80.019531c-19.570313-.226563-41.773438-1.09375-62.003906 20.074219zm0 0" fill="#90caf9"/><path d="m454.375 234.804688h-25.875v-11.765626c25.941406-5.460937 44.523438-28.328124 44.558594-54.839843v-51.414063c-.019532-30.9375-25.089844-56.011718-56.023438-56.035156h-38.085937c-11.234375-.035156-22.21875 3.335938-31.5 9.667969v-2.445313c-.039063-37.519531-30.441407-67.925781-67.960938-67.972656h-46.980469c-37.519531.046875-67.921874 30.453125-67.960937 67.972656v2.445313c-9.28125-6.332031-20.261719-9.703125-31.5-9.667969h-38.082031c-30.929688.039062-55.992188 25.105469-56.023438 56.035156v51.417969c.027344 26.507813 18.613282 49.378906 44.558594 54.828125v11.773438h-25.875c-31.808594.035156-57.5898438 25.816406-57.625 57.625v33.074218c0 2.757813 2.238281 5 5 5h502c2.761719 0 5-2.242187 5-5v-33.074218c-.035156-31.808594-25.816406-57.589844-57.625-57.625zm-21.101562 10c-2.667969 18.757812-19.535157 32.152343-38.40625 30.507812-1.90625-13.953125-7.964844-27.007812-17.386719-37.472656v-13.65625c7.589843.148437 37.886719.082031 41.019531 0v15.621094c0 2.761718 2.238281 5 5 5zm-121.214844-30.101563c-7.097656.089844-4.355469.03125-19.578125.050781v-16.648437c11.980469-2.3125 23.109375-7.824219 32.207031-15.957031 5.3125 20.667968 21.902344 36.519531 42.789062 40.886718v5.585938c-18.839843-14.359375-38.875-14.117188-55.417968-13.914063zm-56.058594 50.207031c-22.996094-.019531-42.308594-17.304687-44.871094-40.152344h13.390625c2.761719 0 5-2.242187 5-5v-20.609374c13.800781.449218 40.984375.410156 52.960938 0v20.601562c0 2.761719 2.238281 5 5 5h13.390625c-2.578125 22.84375-21.882813 40.121094-44.871094 40.160156zm-56.019531-50.199218c-16.558594-.199219-36.621094-.433594-55.457031 13.917968v-5.59375c20.882812-4.367187 37.472656-20.21875 42.789062-40.878906 9.097656 8.132812 20.226562 13.648438 32.207031 15.957031v16.648438c-15.164062-.027344-12.621093.03125-19.539062-.054688zm184.394531-143.960938h32.65625c25.414062.019531 46.011719 20.617188 46.023438 46.035156v5.523438h-22.546876c-28.75.0625-52.945312-21.503906-56.175781-50.074219.023438-.460937.035157-.933594.042969-1.484375zm-36.921875 12.46875c.089844-.085938.183594-.167969.277344-.25.390625-.363281.785156-.722656 1.1875-1.066406.34375-.300782.699219-.589844 1.054687-.875.140625-.117188.277344-.230469.417969-.34375.449219-.355469.902344-.699219 1.359375-1.035156l.082031-.0625c6.566407-4.769532 14.277344-7.722657 22.351563-8.558594.039062.472656.070312.945312.117187 1.414062-.800781 18.128906-10.96875 34.535156-26.847656 43.320313zm0 43.691406c14.769531-6.5625 26.398437-18.621094 32.421875-33.617187 10.78125 23.792969 34.507812 39.0625 60.632812 39.015625h22.546876v35.890625c-.027344 23.328125-17.484376 42.949219-40.648438 45.699219-4.304688.363281-44.128906.660156-49.253906-.039063l-.050782-.007813c-21.148437-2.695312-37.671874-19.570312-39.921874-40.773437 9.222656-11.933594 14.238281-26.582031 14.273437-41.664063zm-67.960937-116.910156c32 .039062 57.929687 25.972656 57.960937 57.972656v7.976563h-28.992187c-39.800782 0-70.632813-33.8125-70.445313-65.953125zm-104.945313 57.972656c.03125-30.132812 23.121094-55.226562 53.144531-57.757812 1.792969 27.980468-20.40625 58.410156-53.144531 64.589844zm0 17c27.089844-4.535156 49.636719-23.304687 59.011719-49.121094 12.480468 30.355469 42.078125 50.15625 74.902344 50.101563h28.988281v45.457031c-.003907 29.171875-21.6875 53.796875-50.625 57.492188-.085938.011718-.179688.023437-.289063.035156-6.757812.6875-55.976562.675781-61.390625-.035156-28.925781-3.710938-50.59375-28.328125-50.597656-57.492188zm-74.15625-14.222656h32.65625c11.707031-.039062 22.984375 4.421875 31.5 12.464844v39.09375h-8.023437c-28.746094.066406-52.941407-21.492188-56.175782-50.050782.023438-.46875.035156-.941406.042969-1.507812zm-51.445313 46.03125c.035157-23.558594 17.824219-43.304688 41.253907-45.785156 1.5 18.523437-14.199219 44.46875-41.253907 50.179687zm0 51.417969v-36.855469c21.144532-3.804688 38.859376-18.195312 46.921876-38.109375 10.765624 23.828125 34.511718 39.121094 60.65625 39.074219h8.042968c.195313 14.777344 5.199219 29.089844 14.253906 40.769531-2.257812 21.214844-18.804687 38.097656-39.972656 40.777344-5.125.699219-46.035156.5-49.71875-.007813-22.964844-2.953125-40.167968-22.496094-40.183594-45.648437zm39.554688 76.605469c2.761719 0 5-2.238282 5-5v-15.753907c10.171875.28125 30.644531.347657 41.019531.039063v13.753906c-9.417969 10.464844-15.476562 23.519531-17.386719 37.46875-18.871093 1.648438-35.738281-11.75-38.40625-30.503906zm28 75.699218h-106.5v-28.074218c.03125-26.289063 21.335938-47.59375 47.625-47.625h11.011719c2.691406 24.070312 23.683593 41.863281 47.867187 40.578124zm268.988281 0h-258.984375v-35.8125c-.050781-15.445312 5.910156-30.304687 16.628906-41.425781 17.226563-18.027344 34.789063-18.820313 57.925782-18.539063 2.570312 28.425782 26.398437 50.195313 54.9375 50.195313 28.539062 0 52.363281-21.769531 54.933594-50.195313 22.832031-.265624 40.453124.253907 57.933593 18.546876 10.65625 11.15625 16.613281 25.988281 16.636719 41.417968zm116.507813 0h-106.496094v-35.121094c24.183594 1.28125 45.171875-16.511718 47.867188-40.578124h11.011718c26.289063.03125 47.589844 21.335937 47.621094 47.625zm0 0" fill="#424242"/></svg>