<?xml version="1.0" encoding="UTF-8" standalone="no"?>
<!-- Created with Inkscape (http://www.inkscape.org/) -->

<svg
  version="1.1"
  viewBox="0 0 1641.2348 1781.5273"
  sodipodi:docname="favicon.svg"
  inkscape:version="1.1 (c4e8f9e, 2021-05-24)"
  id="svg1392"
  xmlns:inkscape="http://www.inkscape.org/namespaces/inkscape"
  xmlns:sodipodi="http://sodipodi.sourceforge.net/DTD/sodipodi-0.dtd"
  xmlns="http://www.w3.org/2000/svg"
  xmlns:svg="http://www.w3.org/2000/svg">
  <title>Kissy Octo</title>
  <sodipodi:namedview
    id="namedview4"
    pagecolor="#ffffff"
    bordercolor="#666666"
    borderopacity="1.0"
    inkscape:pageshadow="2"
    inkscape:pageopacity="0.0"
    inkscape:pagecheckerboard="0"
    showgrid="false"
    inkscape:zoom="0.33712499"
    inkscape:cx="-800.88989"
    inkscape:cy="956.61848"
    inkscape:window-width="3440"
    inkscape:window-height="1369"
    inkscape:window-x="0"
    inkscape:window-y="34"
    inkscape:window-maximized="1"
    inkscape:current-layer="g5068"
    fit-margin-top="0"
    fit-margin-left="0"
    fit-margin-right="0"
    fit-margin-bottom="0" /><g
    id="g8"
    inkscape:groupmode="layer"
    inkscape:label="ink_ext_XXXXXX"
    transform="matrix(1.3333333,0,0,-1.3333333,-1857.6198,3325.8888)">
    <g
      id="g5068"
      transform="matrix(1.1457299,0,0,1.1457299,-1094.0961,456.19545)"
      inkscape:export-filename="favicon.png"
      inkscape:export-xdpi="14.6032"
      inkscape:export-ydpi="14.6032">
      <path
        id="color"
        style="fill: #8D00DA"
        d="M 827.14062 53.835938 C 714.61086 54.034531 574.87128 74.694897 444.56055 149.39648 C 287.18156 239.60362 198.35415 413.23551 193.62305 493.05469 C 183.85685 657.87175 256.1138 830.89307 282.13867 868.48828 C 330.2303 937.93479 336.86773 999.77252 331.6875 1044.4102 C 324.26317 1108.3877 352.38497 1150.9948 402.7207 1189.9648 C 444.00364 1221.9383 513.46591 1235.335 522.70508 1237.0918 C 460.6111 1271.7692 407.81063 1299.9245 390.79883 1335.4727 C 372.68866 1373.3276 357.48884 1400.3514 334.02734 1431.9277 C 301.0624 1476.2904 213.15855 1505.5906 170.01953 1438.4355 C 150.01203 1407.3022 182.52646 1339.9944 187.10938 1335.2129 C 126.47124 1344.9898 116.42834 1402.7045 123.42188 1437.4277 C 143.65546 1537.8701 313.64641 1531.2398 375.13086 1506.4004 C 396.29325 1497.8609 428.09014 1485.0887 458.9668 1434.3711 C 490.6806 1382.2786 567.21918 1340.9721 614.02148 1328.9648 C 550.94065 1467.5982 607.8152 1506.5077 622.4668 1557.6836 C 631.21406 1588.2364 616.97073 1637.043 588.83008 1656.2148 C 557.03684 1677.8615 529.90158 1655.9401 504.03711 1623.6152 C 485.56183 1600.5173 470.53025 1587.1353 441.64258 1592.8945 C 420.71086 1597.065 402.09267 1619.9498 399.95703 1638.4648 C 434.29532 1637.6552 457.77887 1633.6061 472.44727 1660.0801 C 483.70597 1680.413 514.44679 1720.5601 547.48047 1727.5566 C 577.47262 1733.9116 608.01575 1738.234 636.12891 1724.6074 C 655.60173 1715.1819 673.78594 1701.2036 689.36328 1685.9883 C 729.04373 1647.2473 736.3983 1603.053 739.0625 1544.8652 C 740.1792 1520.4688 738.42481 1497.5553 745.77734 1474.0449 C 751.84818 1454.6439 775.72461 1417.3536 829.04688 1419.3242 C 866.12269 1420.6838 891.09931 1441.7507 899.30273 1471.3105 C 911.11139 1513.84 904.34559 1574.2119 907.93555 1595.9961 C 918.14018 1658.0335 949.74684 1705.5276 1007.5527 1726.166 C 1088.869 1755.2064 1141.4659 1704.1837 1161.7988 1677.7402 C 1188.2575 1643.3531 1209.414 1635.4082 1242.793 1638.6621 C 1243.6943 1624.9745 1235.0947 1611.3789 1226.2344 1603.4199 C 1199.3174 1579.2374 1150.7844 1594.0409 1135.8594 1627.3281 C 1118.9637 1664.9692 1030.3455 1674.4864 1016.2148 1590.9551 C 1010.1196 1554.9944 1029.0456 1527.0847 1048.248 1498.2734 C 1063.4633 1475.4658 1059.8591 1445.0184 1057.7051 1418.6055 C 1055.4289 1390.6649 1043.6966 1361.4106 1031.1699 1336.6934 C 1158.1321 1358.2636 1173.9122 1416.4223 1191.2051 1433.7305 C 1208.498 1451.0386 1223.3004 1471.2496 1242.1973 1486.4648 C 1271.6349 1510.1891 1309.0475 1515.5351 1345.0234 1521.0957 C 1373.6972 1525.5411 1402.2181 1520.2552 1430.8613 1513.1211 C 1467.8608 1503.8941 1500.9043 1485.5623 1513.8281 1449.4336 C 1523.1926 1423.2498 1522.3969 1396.013 1508.8926 1369.707 C 1496.5951 1345.7689 1478.6309 1334.219 1450.2168 1342.7891 C 1510.3753 1391.0319 1480.9228 1455.2234 1433.459 1467.75 C 1382.2831 1481.2543 1334.5597 1462.3423 1304.4805 1418.7129 L 1252.998 1337.0605 C 1221.3912 1286.0985 1180.8634 1247.3277 1118.2148 1237.3828 C 1156.2989 1230.4779 1221.7117 1200.1994 1245.0234 1184.6328 C 1291.7692 1153.4079 1321.3606 1112.1764 1318.0762 1055.2871 C 1316.6096 1030.0352 1313.5533 1009.5506 1315.6309 984.4668 C 1318.4417 950.6143 1329.7613 925.52942 1347.375 889.84375 C 1362.9569 858.29799 1465.8288 711.59876 1445.832 524.89062 C 1439.6298 466.94725 1426.5983 410.27186 1397.0996 358.16406 C 1368.7313 308.0422 1336.9413 261.20468 1294.2285 222.1582 C 1222.2614 156.39331 1138.0582 111.57303 1046.4609 81.050781 C 1024.99 73.901427 939.67039 53.637344 827.14062 53.835938 z M 1407.2285 873.84961 C 1391.3563 915.84443 1360.0245 947.62031 1356.2207 993.20508 C 1381.6559 970.41269 1407.3359 976.12549 1437.7207 976.23242 C 1451.6833 976.27825 1473.4367 975.92775 1486.498 967.96875 C 1507.5489 955.13658 1526.2313 908.16141 1491.4316 883.56641 C 1473.3749 905.36583 1476.4608 930.43289 1473.8027 956.25 C 1449.2994 940.27089 1449.6827 918.54846 1452.127 895.67969 C 1434.7271 895.00753 1419.2663 891.49385 1407.2285 873.84961 z M 232.64062 876.0957 C 221.14208 894.79401 204.92678 896.76393 188.33203 898.6582 C 191.2926 921.67974 191.08065 942.86805 166.33594 959.16797 C 165.14438 932.2204 166.5887 907.64071 150.10547 887.44531 C 115.89397 934.61883 154.20644 965.49377 157.26172 967.18945 C 173.83203 976.43167 198.6181 975.89594 216.88867 975.10156 C 249.78487 973.68086 265.35182 979.5779 285.99023 993.86133 C 280.71529 954.96762 261.3847 906.93875 232.64062 876.0957 z M 1539.0273 1046.7578 C 1516.3323 1047.3173 1492.234 1053.2407 1470.1367 1065.8438 C 1436.4217 1085.092 1449.8188 1103.0885 1451.6367 1113.8125 C 1454.1573 1128.7834 1457.1522 1143.9515 1457.0605 1159.0293 C 1456.6939 1213.4132 1411.7052 1247.1889 1359.4141 1232.1875 C 1336.6981 1225.6645 1314.8983 1216.026 1292.3809 1208.6934 C 1287.0952 1206.9824 1279.6546 1206.9975 1274.873 1209.457 C 1253.1806 1220.6394 1232.07 1232.9676 1210.7441 1244.8984 C 1329.4265 1344.3783 1468.7621 1278.2622 1481.2734 1269.5547 C 1512.3915 1247.8775 1509.5342 1229.4543 1522.2441 1115.416 C 1523.8023 1101.4687 1543.1281 1069.3268 1599.498 1059.8555 C 1583.0148 1051.0028 1561.7223 1046.1983 1539.0273 1046.7578 z M 99.074219 1051.6465 C 80.878214 1051.4689 62.070242 1053.9053 44.367188 1059.8555 C 117.01104 1083.9769 110.8006 1157.5173 112.23047 1170.2578 C 115.73946 1201.5133 119.36486 1220.35 135.57617 1239.7969 C 153.22652 1260.9852 175.2435 1277.0091 199.57422 1288.4512 C 242.45965 1308.616 379.88711 1301.6351 431.27539 1246.2734 C 410.72252 1235.0911 389.61598 1224.3667 369.38086 1212.1914 C 362.28956 1207.9293 351.74814 1203.5909 344.20312 1206.4629 C 320.19932 1215.6287 297.79565 1229.2713 272.16797 1230.8906 C 243.28641 1232.7085 219.19229 1228.9959 200.94922 1188.1621 C 190.72778 1165.2781 195.25169 1140.5448 200.0332 1099.543 C 202.75087 1076.2388 153.66223 1052.1792 99.074219 1051.6465 z "
        transform="matrix(0.65460456,0,0,-0.65460456,2170.9401,1778.9718)">
        <animate
          attributeName="fill"
          values="#8D00DA; yellow; #8D00DA; yellow; #8D00DA; blue; teal; orange; #8D00DA"
          keyTimes="0; 0.01; 0.015; 0.02; 0.025; 0.2; 0.5; 0.75; 1"
          dur="30s"
          repeatCount="indefinite"
        />
      </path>
      <g id="shadows">
        <path
          d="m 2869.3884,657.53563 c -19.59,-4.39 -80.59,9.55 -88.18,75.8 -1.79,15.6 1.53,58.16 -7.59,87.71 -4.16,13.46 -26.64,27.44 -45.89,26.67 19.49,-10.92 28.93,-21.17 31.9,-31.87 7.73,-27.84 3.3,-67.36 5.65,-81.62 6.68,-40.61 27.37,-71.7 65.21,-85.21 53.23,-19.01 87.66,14.39 100.97,31.7 17.32,22.51 31.17,27.71 53.02,25.58 -53.49,17.58 -70.6,-38.78 -115.09,-48.76"
          style="fill:#050003;fill-opacity:0.204375;fill-rule:nonzero;stroke:none;stroke-width:0.1"
          id="path1120" /><path
          d="m 3158.6684,882.35563 c -7.31,14.24 -14.29,24.2 -39.13,18.08 70.86,-36.83 17.32,-101.17 -28.8,-101.7 -20.63,-0.24 -85.22,-10.93 -147.42,79.79 -21.1,30.78 -68.87,30.23 -94.84,24.37 79.92,-15.58 91.65,-51.87 102.23,-62.45 11.32,-11.33 21.01,-24.56 33.38,-34.52 19.27,-15.53 43.76,-19.03 67.31,-22.67 18.77,-2.91 37.44,0.55 56.19,5.22 24.22,6.04 45.85,18.04 54.31,41.69 6.13,17.14 5.61,34.97 -3.23,52.19"
          style="fill:#050003;fill-opacity:0.204375;fill-rule:nonzero;stroke:none;stroke-width:0.1"
          id="path1122" /><path
          d="m 3026.7584,1463.0456 c 37.61,-94.86 -11.12,-249.2 -21.64,-275.26 -14.21,-35.21 -12.09,-71.12 -12.88,-92.56 -2.93,-79.52 -25.84,-65.26 -87.78,-125.94997 8.47,0.92 56.87,17 82.75,33.58997 30.98,19.85 48.7,48.07 46.55,85.31 -0.96,16.53 -2.96,29.94 -1.6,46.36 1.84,22.16 9.25,38.58 20.78,61.94 10.2,20.65 77.54,116.68 64.45,238.9 -4.06,37.93 -12.59,75.03 -31.9,109.14 -18.57,32.81 -39.38,63.47 -67.34,89.03 -47.11,43.05 -102.23,72.39 -162.19,92.37 -21.5,7.16 -140.83,34.41 -272.097,3.06 216.887,-18.81 378.597,-103.76 442.897,-265.93"
          style="fill:#050003;fill-opacity:0.204375;fill-rule:nonzero;stroke:none;stroke-width:0.1"
          id="path1124" /><path
          d="m 3083.8384,944.72563 c -22.02,-1.97 -61.27,-2.14 -106.44,27.17 -4.63,-2.62 -9.26,-5.24 -13.9,-7.84 77.69,-65.12 168.9,-21.84 177.09,-16.14 20.37,14.19 18.5,26.25 26.82,100.89997 1.01,9.05 13.46,29.81 49.64,36.2 -94.58,9.96 -62.61,-86.73997 -78.99,-116.91997 -7.6,-13.98 -33.57,-21.53 -54.22,-23.37"
          style="fill:#050003;fill-opacity:0.204375;fill-rule:nonzero;stroke:none;stroke-width:0.1"
          id="path1130" /><path
          d="m 3122.7084,1168.7556 c -2.56,7.38 -2.09,15.53 -1.2,23.9 -11.39,0.44 -21.51,2.74 -29.39,14.29 -4.12,-10.89 -9.82,-20.74 -15.37,-30.51 13.85,-7.26 30.11,-8.26 45.96,-7.68"
          style="fill:#050003;fill-opacity:0.204375;fill-rule:nonzero;stroke:none;stroke-width:0.1"
          id="path1134" /><path
          d="m 3147.2384,1200.5856 c -7.9,-9.54 -9.62,-20.04 -10.41,-31 0.55,0.04 1.09,0.07 1.63,0.11 7.14,0.48 14.28,1.39 21.25,2.97 1.08,10 -1.99,20.51 -12.47,27.92"
          style="fill:#050003;fill-opacity:0.204375;fill-rule:nonzero;stroke:none;stroke-width:0.1"
          id="path1136" /></g><g
        id="suckers"
        style="fill:orange"><path
          d="m 2536.8774,627.29563 c -11.842,3.88 -23.655,7.75 -36.292,11.89 5.795,-24.24 30.57,-19.44 36.292,-11.89"
          id="path1082" /><path
          d="m 2615.9344,637.97563 c 18.076,-2.76 36.119,12.72 31.788,29.11 -10.436,-9.56 -21.003,-19.24 -31.788,-29.11"
          id="path1084" /><path
          d="m 2469.8304,809.20563 c 9.766,-8.62 48.039,4.85 26.98,35.31 -8.937,-11.69 -17.812,-23.31 -26.98,-35.31"
          id="path1086" /><path
          d="m 2297.2874,768.69563 c -15.497,8.51 -30.225,14.74 -45.099,22.9 -6.45,-32.29 32.615,-37.81 45.099,-22.9"
          id="path1088" /><path
          d="m 2670.3844,726.40563 c 23.177,7.06 21.838,45.25 4.788,54.61 0.03,-15.62 -2.79,-39.56 -4.788,-54.61"
          id="path1090" /><path
          d="m 2410.5084,769.02563 c -17.407,-3.18 -32.208,-3.55 -51.416,-7.06 19.981,-15.71 48.752,-5.32 51.416,7.06"
          id="path1092" /><path
          d="m 2947.1484,810.66563 c -8.94,11.55 -17.32,22.38 -26.34,34.03 -19.19,-36.64 12.75,-43.53 26.34,-34.03"
          id="path1094" /><path
          d="m 3120.8684,771.15563 c 28.51,-22.11 49.19,5.27 43.03,24.91 -15.19,-8.43 -27.96,-16.55 -43.03,-24.91"
          id="path1096" /><path
          d="m 2372.9634,904.76563 c -11.855,-0.02 -23.461,-0.05 -36.206,-0.07 9.309,-11.39 31.449,-11.1 36.206,0.07"
          id="path1098" /><path
          d="m 2802.2984,638.07563 c -11.05,10.04 -21.73,19.73 -32.41,29.44 -1.87,-21.17 14.78,-33.02 32.41,-29.44"
          id="path1100" /><path
          d="m 2742.8484,730.26563 c -0.7,18.8 -2.34,34.3 -2.37,49.91 -17.61,-17.41 -10.55,-36.87 2.37,-49.91"
          id="path1102" /><path
          d="m 2879.5084,627.39563 c 19.78,-18.94 39.32,-1.91 37.97,12.64 -13.05,-4.35 -24.79,-8.26 -37.97,-12.64"
          id="path1104" /><path
          d="m 3060.9284,763.03563 c -18.96,3.42 -37.78,8.28 -55.41,11.45 7.19,-34.63 50.08,-19.98 55.41,-11.45"
          id="path1106" /><path
          d="m 3080.6284,906.37563 c -13.18,-0.03 -24.59,-0.05 -37.44,-0.08 16.49,-18.52 31.93,-7.1 37.44,0.08"
          id="path1108" /><path
          d="m 3183.7384,981.75563 c 16.28,-0.27 33.84,32.09997 4.13,46.07997 -1.33,-14.09 -2.74,-31.42997 -4.13,-46.07997"
          id="path1126" /><path
          d="m 2229.4174,981.77563 c -1.408,14.43 -2.779,28.46997 -4.148,42.49997 -20.88,-14 -2.726,-44.36997 4.148,-42.49997"
          id="path1148" /></g><path
        d="m 3167.4084,1048.8156 c -8.32,-74.64997 -6.45,-86.70997 -26.82,-100.89997 -8.19,-5.7 -99.4,-48.98 -177.09,16.14 13.96,7.81 27.78,15.88 41.98,23.2 3.13,1.61 8,1.62 11.46,0.5 14.74,-4.8 29.01,-11.11 43.88,-15.38 34.23,-9.82 63.68,12.29 63.92,47.88997 0.06,9.87 -1.9,19.8 -3.55,29.6 -1.19,7.02 -9.96,18.8 12.11,31.4 28.93,16.5 63.1,15.51 84.68,3.92 -36.9,-6.2 -49.55,-27.24 -50.57,-36.37 z m 16.33,-67.05997 c 1.39,14.65 2.8,31.98997 4.13,46.07997 29.71,-13.98 12.15,-46.34997 -4.13,-46.07997 z m -140.55,-75.46 c 12.85,0.03 24.26,0.05 37.44,0.08 -5.51,-7.18 -20.95,-18.6 -37.44,-0.08 z m 44.18,1.53 c 4.8,1.02 9.6,2.04 15.02,3.19 0.25,-13.29 6.4,-22.45 17.05,-29.58 8.36,-5.6 11.38,-20.22 7.67,-30.18 -2.75,-7.38 -18.22,-14.69 -26.22,-16.29 -16.63,-3.33 -37.84,4.31 -51.68,21.31 -13.04,16.02 -24.93,38.83 -38.55,56.81 8.94,-1.95 15.59,-3.19 22.07,-4.98 1.56,-0.43 2.65,-2.83 3.77,-4.19 20.57,-25 45.35,-10.88 50.87,3.91 z m 71.3,-25.47 c 8.84,-17.22 9.36,-35.05 3.23,-52.19 -8.46,-23.65 -30.09,-35.65 -54.31,-41.69 -18.75,-4.67 -37.42,-8.13 -56.19,-5.22 -23.55,3.64 -48.04,7.14 -67.31,22.67 -12.37,9.96 -22.06,23.19 -33.38,34.52 -11.32,11.33 -21.65,49.4 -104.76,63.52 8.2,-16.18 15.88,-35.33 17.37,-53.62 1.41,-17.29 3.77,-37.22 -6.19,-52.15 -12.57,-18.86 -24.96,-37.13 -20.97,-60.67 9.25,-54.68 67.26,-48.45 78.32,-23.81 9.77,21.79 41.54,31.48 59.16,15.65 5.8,-5.21 11.43,-14.11 10.84,-23.07 -21.85,2.13 -35.7,-3.07 -53.02,-25.58 -13.31,-17.31 -47.74,-50.71 -100.97,-31.7 -37.84,13.51 -58.53,44.6 -65.21,85.21 -2.35,14.26 2.08,53.78 -5.65,81.62 -5.37,19.35 -21.72,33.14 -45.99,34.03 -34.905,1.29 -50.535,-23.12 -54.509,-35.82 -4.813,-15.39 -3.665,-30.39 -4.396,-46.36 -1.744,-38.09 -6.558,-67.02 -32.533,-92.38 -10.197,-9.96 -22.1,-19.11 -34.847,-25.28 -18.403,-8.92 -38.397,-6.09 -58.03,-1.93 -21.624,4.58 -41.747,30.86 -49.117,44.17 -9.602,17.33 -24.975,14.68 -47.453,14.15 1.398,12.12 13.586,27.1 27.288,29.83 18.91,3.77 28.75,-4.99 40.844,-20.11 16.931,-21.16 34.694,-35.51 55.506,-21.34 18.421,12.55 27.744,44.5 22.018,64.5 -9.591,33.5 -46.821,58.97 -5.528,149.72 -30.637,-7.86 -80.74,-34.9 -101.5,-69 -20.212,-33.2 -41.026,-41.56 -54.879,-47.15 -40.248,-16.26 -151.525,-20.6 -164.77,45.15 -4.578,22.73 1.996,60.51 41.69,66.91 -3,-3.13 -24.284,-47.19 -11.187,-67.57 28.239,-43.96 85.782,-24.78 107.361,4.26 15.358,20.67 25.308,38.36 37.163,63.14 11.136,23.27 45.699,41.7 86.346,64.4 -6.048,1.15 -51.519,9.92 -78.543,30.84997 -32.95,25.51 -51.358,53.4 -46.498,95.28 3.391,29.22 -0.954,69.7 -32.435,115.16 -17.036,24.61 -64.336,137.87 -57.943,245.76 3.097,52.25 61.244,165.91 164.265,224.96 170.604,97.8 365.897,54.1 394.007,44.74 59.96,-19.98 115.08,-49.32 162.19,-92.37 27.96,-25.56 48.77,-56.22 67.34,-89.03 19.31,-34.11 27.84,-71.21 31.9,-109.14 13.09,-122.22 -54.25,-218.25 -64.45,-238.9 -11.53,-23.36 -18.94,-39.78 -20.78,-61.94 -1.36,-16.42 0.64,-29.83 1.6,-46.36 2.15,-37.24 -17.22,-64.23 -47.82,-84.67 -15.26,-10.18997 -58.08,-30.00997 -83.01,-34.52997 41.01,-6.51 67.54,-31.89 88.23,-65.25 l 33.7,-53.45 c 19.69,-28.56 50.93,-40.94 84.43,-32.1 31.07,8.2 50.35,50.22 10.97,81.8 18.6,5.61 30.36,-1.95 38.41,-17.62 z m -37.8,-111.2 c 15.07,8.36 27.84,16.48 43.03,24.91 6.16,-19.64 -14.52,-47.02 -43.03,-24.91 z m -115.35,3.33 c 17.63,-3.17 36.45,-8.03 55.41,-11.45 -5.33,-8.53 -48.22,-23.18 -55.41,11.45 z m -84.71,70.21 c 9.02,-11.65 17.4,-22.48 26.34,-34.03 -13.59,-9.5 -45.53,-2.61 -26.34,34.03 z m -41.3,-217.3 c 13.18,4.38 24.92,8.29 37.97,12.64 1.35,-14.55 -18.19,-31.58 -37.97,-12.64 z m -109.62,40.12 c 10.68,-9.71 21.36,-19.4 32.41,-29.44 -17.63,-3.58 -34.28,8.27 -32.41,29.44 z m -29.41,112.66 c 0.03,-15.61 1.67,-31.11 2.37,-49.91 -12.92,13.04 -19.98,32.5 -2.37,49.91 z m -70.094,-53.77 c 1.998,15.05 4.818,38.99 4.788,54.61 17.05,-9.36 18.389,-47.55 -4.788,-54.61 z m -54.45,-88.43 c 10.785,9.87 21.352,19.55 31.788,29.11 4.331,-16.39 -13.712,-31.87 -31.788,-29.11 z m -115.349,1.21 c 12.637,-4.14 24.45,-8.01 36.292,-11.89 -5.722,-7.55 -30.497,-12.35 -36.292,11.89 z m -30.755,170.02 c 9.168,12 18.043,23.62 26.98,35.31 21.059,-30.46 -17.214,-43.93 -26.98,-35.31 z m -110.738,-47.24 c 19.208,3.51 34.009,3.88 51.416,7.06 -2.664,-12.38 -31.435,-22.77 -51.416,-7.06 z m -106.904,29.63 c 14.874,-8.16 29.602,-14.39 45.099,-22.9 -12.484,-14.91 -51.549,-9.39 -45.099,22.9 z m 84.569,113.1 c 12.745,0.02 24.351,0.05 36.206,0.07 -4.757,-11.17 -26.897,-11.46 -36.206,-0.07 z m 47.439,2.13 c 3.27,5.87 18.051,3.27 26.445,5.13 -35.165,-120.95 -155.712,-103.5 -99.368,-3.86 4.477,-0.93 13.23,2.09 15.305,-1.2 16.464,-26.11 45.035,-22.68 57.618,-0.07 z m -124.507,60.57 c -10.612,12.73 -12.986,25.06 -15.283,45.51997 -0.936,8.34 3.13,56.48 -44.423,72.27 46.354,15.58 104.271,-5.64 101.899,-25.98 -3.13,-26.84 -6.091,-43.03 0.6,-58.01 11.942,-26.72997 27.714,-29.15997 46.62,-27.96997 16.776,1.06 31.441,9.99 47.154,15.99 4.939,1.88 11.84,-0.96 16.482,-3.75 13.246,-7.97 27.063,-14.99 40.517,-22.31 -33.639,-36.24 -123.6,-40.81 -151.673,-27.61 -15.927,7.49 -30.339,17.98 -41.893,31.85 z m -34.42,56.87997 c 1.369,-14.03 2.74,-28.06997 4.148,-42.49997 -6.874,-1.87 -25.028,28.49997 -4.148,42.49997 z m 87.647,116.39 c -11.96,-0.52 -28.185,-0.87 -39.032,5.18 -2,1.11 -27.08,21.32 -4.685,52.2 10.79,-13.22 9.845,-29.31 10.625,-46.95 16.198,10.67 16.337,24.54 14.399,39.61 10.863,1.24 21.477,2.53 29.004,14.77 18.816,-20.19 31.47,-51.63 34.923,-77.09 -13.51,9.35 -23.7,13.21 -45.234,12.28 z m 808.592,51.99 c -1.6,-14.97 -1.85,-29.19 14.19,-39.65 1.74,16.9 -0.28,33.31 11.54,47.58 22.78,-16.1 10.55,-46.85 -3.23,-55.25 -8.55,-5.21 -22.79,-5.44 -31.93,-5.41 -19.89,0.07 -36.7,3.81 -53.35,-11.11 2.49,29.84 23,50.64 33.39,78.13 7.88,-11.55 18,-13.85 29.39,-14.29 z m 115.6,-95.2 c -1.67,1.27 -3.48,2.45 -5.4,3.25 -39.4,16.44 -77.82,15.57 -115.22,-6.26 -17.45,-10.19 -23.76,-24.95 -20.53,-44.63 1.74,-10.64 2.97,-21.42 3.53,-32.19 0.62,-12.03 -5.18,-17.99997 -16.21,-21.91997 -8.55,-3.04 -16.03,-1.33 -23.63,1.59 -9.78,3.74997 -19.35,8.02997 -29.44,12.25997 19.95,21.37 28.34,47.38 29.6,76.1 1,22.67 18.9,38.83 41.62,37.45 5.52,-0.33 11.04,-1.02 16.56,-1.04 28.57,-0.06 53.15,11.59 59.1,39.33 3.44,16.05 -0.86,31.47 -6.11,46.41 -6.19,17.6 -18.32,21.39 -35.01,12.85 -5.36,-2.74 -11.99,-4.07 -18.05,-4.11 -8.17,-0.07 -14.48,9.67 -11.57,16.95 5.68,14.18 70.88,122.57 38.66,257.34 -9.32,39 -27.42,75.24 -49.93,108.74 -18.79,27.96 -42.61,51.13 -68.28,72.93 -49.24,41.81 -105.13,68.99 -166.91,87.95 -117.81,36.15 -286.888,17.62 -391.267,-40.37 -194.227,-107.91 -204.385,-247.86 -206.321,-283.64 -5.373,-99.31 37.844,-184.27 45.895,-201.99 4.675,-10.28 -1.94,-20.46 -13.193,-19.65 -5.799,0.43 -11.764,2.53 -17.065,5.09 -14.727,7.11 -26.863,3.2 -32.317,-12.22 -3.483,-9.84 -5.994,-20.21 -7.47,-30.55 -3.145,-22.04 8.828,-44.69 32.478,-52.44 14.884,-4.87 29.521,-4.1 44.503,-3.11 21.807,1.43 40.101,-14.6 41.155,-36.21 1.417,-29.05 9.678,-55.37 30.366,-77.37 -11.043,-7.13 -22.372,-14.76997 -37.729,-14.41997 -19.002,0.43 -29.924,12.14997 -29.924,24.40997 0,12.63 1.03,26.01 2.045,38.61 1.196,14.84 -5.807,25.53 -17.694,33.86 -19.515,13.66 -72.997,27.1 -120.605,7.22 -8.4,-3.51 -12.695,-11.68 -11.651,-18.11 1.038,-6.39 7.907,-11.94 16.79,-13.6 33.878,-6.36 37.183,-31.28 31.875,-34.94 -19.31,-13.31 -16.646,-50.86997 6.211,-56.91997 7.321,-1.94 7.175,-2.42 9.166,-5.56 10.12,-15.98 19.367,-30.48 36.051,-39.32 2.813,-1.49 5.441,-3.33 9.009,-5.54 -32.229,-10.59 -47.939,-32.91 -52.567,-63.7 -3.069,-20.41 4.696,-38.29 15.466,-54.98 2.388,-3.7 1.151,-5.85 0.802,-10.53 -4.153,-55.55 53.831,-49.16 64.299,-28.18 11.766,-1.84 20.76,-3.09 32.011,-4.57 3.186,-0.41 7.224,-4.85 12.925,-8.31 28.691,-17.45 50.716,-8.1 65.635,8.19 6.535,7.13 5.752,11.6 12.876,15.71 10.001,5.77 23.064,16.88 32.572,24.48 22.285,-10.32 63.444,5.86 38.274,49.12 5.924,7.99 38.953,25.42 37.857,21.38 -13.02,-47.99 2.081,-78.24 8.906,-92.49 3.747,-7.83 9.114,-15.11 11.493,-23.29 2.181,-7.51 3.255,-16.33 1.472,-23.76 -2.815,-11.74 -10.915,-27.26 -25.767,-28.6 -11.046,-0.99 -22.844,31.11 -48.489,42.59 -35.973,16.11 -63.731,-7.92 -71.556,-37.83 -2.797,-10.69 3.998,-17.85 15.197,-17.6 3.921,0.08 7.876,0.59 11.728,1.35 8.496,1.67 15.766,0.03 21.002,-7.29 3.207,-4.48 6.039,-9.23 9.166,-13.78 5.494,-7.98 11.314,-15.76 16.515,-23.93 6.41,-32.94 25.058,-38.81 50.766,-29.29 16.508,6.12 28.37,-0.19 51.416,7.86 6.761,2.36 17.637,1.85 27.839,2.4 24.89,1.33 39.053,14.7 36.231,41.96 -0.25,2.41 -1.162,7.43 -0.234,9.67 5.042,12.14 10.115,24.28 15.713,36.16 28.611,9.05 35.537,56.87 6.263,71.63 -0.122,19.28 14.822,36.66 30.841,36.43 16.24,-0.23 31.62,-18.54 30.26,-36.02 -26.37,-14.77 -20.64,-58.33 2.43,-64.6 4.64,-19.17 14.76,-37.02 20.52,-43.8 1.41,-1.66 0.98,-4.49 0.82,-6.7 -4.05,-43.53 31.4,-47 44.84,-39.67 0.87,0.48 4.06,-0.32 5.13,-0.86 25.64,-10.86 31.5,-9.53 53.23,-6.97 4.58,0.53 6.23,-1.22 10.52,-4.52 25.69,-19.75 45.54,-1.64 47.86,16.84 0.53,4.21 0.52,7.18 0.99,8.12 6.36,12.61 36.07,52.26 56.09,40.54 16.54,-9.68 22.36,12.41 19.83,23.11 -4.72,19.91 -24.24,46.43 -52.83,43.03 -19.73,-2.35 -34.8,-12.29 -46.25,-28.39 -2.78,-3.91 -6.27,-8.18 -10.44,-10.11 -17.67,-8.17 -39.5,8.53 -38.26,28.65 0.89,14.55 8.52,26.33 15.21,38.54 12.62,23.06 19.5,54.55 10.46,82.93 -1.59,5 8.41,5.65 14.28,3.29 8.81,-3.54 15.89,-8.88 21.26,-16.45 -26.5,-52.58 21.66,-58.97 37.9,-47.31 11,-14.73 38.73,-24.22 40.7,-29.45 16.92,-44.95 54.48,-31.76 70.13,-21.37 7.78,5.16 7.85,9.21 15.03,9.13 2.6,-0.03 23.1,4.43 30.63,6.12 41.52,-35.37 68.43,4.2 65.99,22.83 -1.57,11.98 -0.74,14.2 2.73,21.86 5.7,12.58 29.01,85.64 -40.27,112.81 15.4,2.67 39.58,30.04 44.75,45.22 0.83,2.44 3.43,2.19 8.64,4.47 20.42,8.93 32.54,34.62997 5.9,58.07997 -4.14,3.64 -6.67,4.02 -5.56,8.54 3.08,12.63 12.6,16.39 23.46,22.87 9.41,5.62 27.71,11.29 29.73,16.2 2.62,6.4 -2.14,11.96 -7.45,16.01"
        style="fill:#003200;fill-opacity:1;fill-rule:nonzero;stroke:none;stroke-width:0.1"
        id="background" /><g
        id="mouth"><path
          d="m 2737.9584,1124.2956 c 0.35,9.46 -7.16,14.64 -15.78,10.82 -8.86,-3.91 -16.985,-3.43 -25.701,0.21 -7.932,3.31 -15.514,-1.47 -15.072,-10.12 0.302,-5.9 3.715,-11.63 5.573,-17.49 1.92,-6.06 4.752,-12.12 5.136,-18.3 0.378,-6.11 -0.883,-12.61 -2.913,-18.56 -3.344,-9.79 -4.476,-25.53 -4.219,-27.07 1.5,-9.02 6.388,-10.78 15.08,-8.65 6.48,1.59 14.536,1.85 20.446,-0.67 6.69,-2.86 9.77,-0.59 11.87,4.1 1.73,3.85 0.16,24.39 -3.92,39.01 -3.16,11.33 -3.41,22.64 5.22,32.81 2.91,3.44 4.11,9.16 4.28,13.91"
          style="fill:#000000;fill-opacity:1;fill-rule:nonzero;stroke:none;stroke-width:0.1"
          id="path1156" /><g
          id="lips"><path
            d="m 2729.6784,1175.8956 c -14.6,-6.4 -28.819,-6.11 -43.564,-0.17 -10.018,4.03 -23.895,-2.6 -25.216,-12.52 -1.164,-8.74 0.664,-17.87 1.17,-26.82 1.138,-0.01 5.741,8.98 6.457,13.55 1.535,9.8 7.518,12.45 15.419,6.61 12.183,-9.02 36.074,-8.96 48.044,0.12 7.48,5.67 13.53,3.31 15.3,-5.82 0.94,-4.88 5.13,-14.45 6.02,-14.41 0.81,6.4 1.28,12.87 2.51,19.19 2.79,14.4 -14.85,25.22 -26.14,20.27"
            style="fill:#000000;fill-opacity:1;fill-rule:nonzero;stroke:none;stroke-width:0.1"
            id="path1158" /><path
            d="m 2744.3684,1027.5256 c -5.53,-10.35 -12.14,-12.34 -22.24,-6.67 -8.88,4.97 -17.496,4.56 -26.138,-0.67 -8.035,-4.87 -13.315,-3.89 -18.82,3.65 -2.536,3.47 -4.417,7.42 -6.594,11.16 -0.641,-5.96 -2.162,-20.62 4.445,-29.05 6.598,-8.41997 15.819,-7.80997 25.286,-6.68997 6.035,0.7 12.361,1.08997 18.291,0.06 12.88,-2.23 22.88,0.09 27.55,9.74997 3.19,6.6 3.98,24.74 2.6,27.63 -1.94,-4.08 -3.05,-6.68 -4.38,-9.17"
            style="fill:#000000;fill-opacity:1;fill-rule:nonzero;stroke:none;stroke-width:0.1"
            id="path1160" /></g></g><path
        id="highlight"
        style="fill:#ffffff;fill-opacity:0.417527;fill-rule:nonzero;stroke:none;stroke-width:0.1"
        d="m 2814.9784,886.18563 c -12.4,0 -22.45,-20.67 -22.45,-42.96 0,-22.3 10.05,-46.51 22.45,-46.51 12.4,0 22.45,24.21 22.45,46.51 0,22.29 -10.05,42.96 -22.45,42.96 m -377.538,-16.45 c -5.745,4.37 -15.665,-1.69 -21.517,-8.77 -9.023,-10.92 -9.02,-20.53 -5.515,-22.43 6.645,-3.6 14.907,2.34 20.252,7.33 5.329,4.97 12.838,19.25 6.78,23.87 m 48.131,71.36 c -19.291,-9.67 -32.701,-29.14 -27.307,-39.64 5.395,-10.5 25.119,-11.25 44.787,-2.23 23.804,10.93 38.736,28.78 33.032,41.95 -4.691,10.84 -26.192,12.11 -50.512,-0.08 m 116.822,-166.26 c -5.134,0 -9.904,-8.8 -9.904,-18.99 0,-14.98 4.683,-23.26 9.817,-23.26 5.134,0 10.718,9.93 10.212,22.65 -0.404,10.18 -4.991,19.6 -10.125,19.6 m 208.195,-8.79 c -5.56,0 -10.74,-9.55 -10.74,-20.59 0,-16.24 5.08,-25.23 10.65,-25.23 5.57,0 11.62,10.77 11.07,24.57 -0.44,11.03 -5.41,21.25 -10.98,21.25 m -181.675,75.09 c 0,24.59 -11.505,46.5 -25.177,46.5 -13.671,0 -24.332,-21.91 -24.332,-46.5 0,-24.59 10.831,-45.87 24.502,-45.87 13.671,0 25.007,21.28 25.007,45.87 m 362.455,35.74 c -7.39,7.09 -19.36,8.76 -24.03,3.65 -4.67,-5.11 -1.33,-16.17 6.15,-23.16 8.32,-7.77 19.89,-10.03 24.56,-4.91 4.67,5.11 3.05,15.06 -6.68,24.42 m -75.1,78.31 c -25.65,9.54 -54.92,7.83 -57.85,-3.34 -3.61,-13.76 21.64,-32.59 42.27,-40.6 20.64,-8.01 50.62,-7.84 54.79,2.92 4.18,10.76 -16.41,32.54 -39.21,41.02 m -351.921,483.83997 c 17.332,-18.14 55.883,-9.44 83.579,17.02 27.696,26.46 37.26,63.73 19.928,81.87 -17.332,18.14 -54.998,10.29 -82.693,-16.17 -27.696,-26.46 -38.146,-64.57 -20.814,-82.72 m 55.962,229.83 c -37.475,38.32 -119.606,18.77 -178.105,-38.44 -58.5,-57.21 -78.001,-137.05 -40.526,-175.37 37.476,-38.32 117.736,-20.61 176.236,36.61 58.5,57.21 79.87,138.88 42.395,177.2 m -277.768,-491.7 c -5.339,10.5 -11.838,20.29 -19.314,28.32 -7.527,-12.24 -18.141,-13.53 -29.004,-14.77 0.862,-6.7 1.312,-13.17 0.123,-19.22 15.221,5.17 31.954,6.5 48.195,5.67 m -73.342,20.89 c -14.344,-19.78 -9.212,-35.18 -3.143,-43.99 4.061,3.98 8.444,7.57 13.267,10.57 -0.591,12.34 -2.162,23.66 -10.124,33.42 m 162.407,-223.26997 c -30.022,-19.26 -85.797,-41.7 -119.924,-20.39 -42.101,26.3 -28.381,67.58997 -37.173,89.43997 -14.701,36.53 -57.248,43.65 -63.809,44.28 -3.618,-0.77 -7.201,-1.74 -10.717,-2.92 47.553,-15.79 43.487,-63.93 44.423,-72.27 2.297,-20.45997 4.671,-32.78997 15.283,-45.51997 11.554,-13.87 25.966,-24.36 41.893,-31.85 28.073,-13.2 118.034,-8.63 151.673,27.61 -7.16,3.9 -14.423,7.71 -21.649,11.62 m 229.987,-135.15 c -22.378,-15.85 -20.996,-61.98 -20.693,-83.25 0.062,-4.37 2.651,-46.91 -45.34,-84.18 -13.784,-10.71 -53.915,-37.37 -107.762,33.16 -19.07,24.98 -54.895,2.37 -55.045,1.07 22.478,0.53 37.851,3.18 47.453,-14.15 7.37,-13.31 27.493,-39.59 49.117,-44.17 19.633,-4.16 39.627,-6.99 58.03,1.93 12.747,6.17 24.65,15.32 34.847,25.28 25.975,25.36 30.789,54.29 32.533,92.38 0.731,15.97 -0.417,30.97 4.396,46.36 3.468,11.08 15.812,31.07 42.093,35.14 -18.017,1.77 -29.994,-2.75 -39.629,-9.57 m -211.657,2.4 c -41.41,-64.06 -140.045,-41.66 -155.846,-35.83 -9.051,3.33 -63.841,24.66 -4.501,98 -36.282,-8.14 -42.283,-44.2 -37.857,-66.17 13.245,-65.75 124.522,-61.41 164.77,-45.15 13.853,5.59 34.667,13.95 54.879,47.15 18.73,30.76 60.474,55.41 98.949,68.31 -36.877,0 -97.017,-30.15 -120.394,-66.31 m -10.245,259.46997 c 3.403,23.66 -22.388,111.28 -33.931,127.46 -27.706,38.84 -55.502,129.47 -42.488,217.32 11.145,75.22 82.887,167.86 214.024,281.08 -38.263,-9.69 -77.414,-24.43 -115.345,-46.18 -103.021,-59.05 -161.168,-172.71 -164.265,-224.96 -6.393,-107.89 40.907,-221.15 57.943,-245.76 31.481,-45.46 35.826,-85.94 32.435,-115.16 -4.86,-41.88 13.548,-69.77 46.498,-95.28 13.942,-10.79997 32.794,-18.35997 48.609,-23.30997 -33.368,31.73997 -53.324,56.32997 -43.48,124.78997" /><g
        id="eyes"><g
          id="left-eye"><path
            d="m 2857.0984,1131.3856 c 36.31,-20.42 96.41,-2.45 109.52,24.7 -32.83,-9.84 -53.74,-16.23 -74.15,-8.46 86.21,7.28 152.2,118.92 89.71,241.4 4.51,0.01 40.91,-29.65 49.66,-50.21 7.78,31.28 -10.2,67.24 -45.07,81.93 -10.23,2.55 -21.84,3.22 -32,1.42 -24.89,-4.42 -101.56,-36.82 -164.36,-73.28 -9.63,-5.59 -23.25,-6.96 -34.09,51.05 -28.59,-88.38 40.25,-98.46 47.33,-97.47 0.16,-2.91 2.9,-77.44 11.54,-112.5 6.26,-25.42 19.11,-45.76 41.91,-58.58"
            style="fill:#000000;fill-opacity:1;fill-rule:nonzero;stroke:none;stroke-width:0.1"
            id="path1154" /><path
            d="m 2858.7284,1284.1856 c 16.78,0 30.37,13.6 30.37,30.37 0,16.77 -13.59,30.37 -30.37,30.37 -16.77,0 -30.37,-13.6 -30.37,-30.37 0,-16.77 13.6,-30.37 30.37,-30.37"
            style="fill:#ffffff;fill-opacity:1;fill-rule:nonzero;stroke:none;stroke-width:0.1"
            id="left-pupil" /><path
            d="m 2932.4784,1392.0256 c 44.75,-129.47 0.8,-190.61 -37.96,-236.34 60.34,14.56 137.06,139.64 37.96,236.34"
            style="fill:#ffffff;fill-opacity:1;fill-rule:nonzero;stroke:none;stroke-width:0.1"
            id="path1186" /></g><g
          id="right-eye"><path
            d="m 2642.0574,1342.7556 c -18.019,8.64 -36.404,16.62 -53.81,26.44 -28.643,16.16 -78.432,46.83 -123.634,49.08 -19.405,0.97 -37.036,-3.34 -51.461,-18.77 -14.323,-15.33 -21.021,-50.62 -17.989,-65.55 9.956,23.92 34.331,48.7 49.143,49.56 -55.216,-128.72 -15.758,-228.87 90.795,-240.98 -12.497,-7.2 -22.689,-10.23 -72.482,6.87 4.904,-11.71 23.954,-24.09 37.805,-28.49 38.248,-12.15 81.444,1.16 100.775,35.39 8.47,15 13.863,32.72 16.43,49.84 4.082,27.22 4.645,54.97 6.638,82.49 0.206,2.85 0.017,5.72 0.01,9.44 33.192,-1.34 87.541,28.23 47.814,97.28 6.956,-47.27 -22.14,-56.38 -30.034,-52.6"
            id="path1152"
            style="fill:#000000;fill-opacity:1;fill-rule:nonzero;stroke:none;stroke-width:0.1" /><path
            d="m 2567.4194,1324.8256 c -16.772,0 -30.369,-13.6 -30.369,-30.37 0,-16.78 13.597,-30.37 30.369,-30.37 16.773,0 30.37,13.59 30.37,30.37 0,16.77 -13.597,30.37 -30.37,30.37"
            style="fill:#ffffff;fill-opacity:1;fill-rule:nonzero;stroke:none;stroke-width:0.1"
            id="right-pupil" /><path
            d="m 2485.5514,1389.4356 c -77.32,-103.69 -31.767,-215.14 54.695,-233.12 -37.313,38.96 -106.204,78.22 -54.695,233.12"
            style="fill:#ffffff;fill-opacity:1;fill-rule:nonzero;stroke:none;stroke-width:0.1"
            id="path1188" />
        </g>
      </g>
    </g>
  </g>
</svg>
