<svg id="Capa_1" enable-background="new 0 0 512.001 512.001" height="512" viewBox="0 0 512.001 512.001" width="512" xmlns="http://www.w3.org/2000/svg"><g clip-rule="evenodd" fill-rule="evenodd"><path d="m82.331 120.234c84.444-95.896 230.627-105.166 326.524-20.721s105.166 230.628 20.721 326.524-230.628 105.166-326.524 20.721-105.165-230.627-20.721-326.524z" fill="#6bd9e7"/><path d="m415.205 322.26-35.065 10.715c-20.324 5.839-39.232 17.093-53.83 31.975l-57.912 29.424 108.511 75.402.198.51c19.134-11.735 36.851-26.504 52.469-44.249 20.75-23.556 35.83-50.145 45.383-78.095-10.772-7.2-20.608-11.367-32.995-14.939z" fill="#ff5050"/><path d="m200.565 364.95c-14.598-14.882-33.506-26.136-53.83-31.975l-30.926-10.715-30.898 10.743c-15.987 4.592-32.088 12.558-45.014 23.017 12.954 33.846 34.073 65.14 63.156 90.737 13.323 11.736 27.61 21.657 42.548 29.764l94.139-82.545z" fill="#ff5050"/><path d="m120.797 241.642-57.458 3.232c-6.378 9.751-10.063 21.402-10.063 33.902 0 23.244 12.756 43.512 31.635 54.227 9.099 5.159 19.644 8.135 30.869 8.135 11.282 0 21.827-2.976 30.954-8.164 18.85-10.743 31.578-30.983 31.578-54.199 0-1.049-.028-2.098-.085-3.146z" fill="#ffdbc2"/><path d="m411.208 243.202-54.369 4.592c-5.272 9.128-8.277 19.701-8.277 30.983 0 23.216 12.728 43.455 31.578 54.199 9.128 5.187 19.672 8.164 30.954 8.164 11.225 0 21.77-2.976 30.869-8.135 18.879-10.715 31.635-30.983 31.635-54.227 0-.057 0-.142 0-.227z" fill="#ffdbc2"/><path d="m178.227 275.63c-1.644-32.967-28.97-59.188-62.447-59.188-21.969 0-41.301 11.31-52.441 28.432 9.099 15.364 46.29 30.756 88.328 30.756z" fill="#9d9696"/><path d="m473.598 278.55c-.113-34.328-28.063-62.107-62.504-62.107-23.216 0-43.484 12.614-54.255 31.351 9.241 15.364 47.027 30.756 89.745 30.756z" fill="#9d9696"/><path d="m264.316 381.986-34.214 16.724c-38.523 11.225-72.794 41.159-84.501 77.811 72.851 39.6 161.547 36.794 231.506-6.236l-.198-.51c-13.323-33.449-44.702-60.293-80.306-70.98z" fill="#f3eae6"/><path d="m274.747 309.079-68.088-5.811c-6.888 10.573-10.885 23.159-10.885 36.709 0 8.816 1.701 17.235 4.791 24.973 5.726 14.315 16.243 26.221 29.537 33.761 9.836 5.556 21.232 8.731 33.336 8.731 12.047 0 23.358-3.146 33.165-8.646 13.38-7.54 23.953-19.474 29.707-33.846 3.09-7.739 4.791-16.158 4.791-24.973 0-1.134-.028-2.268-.085-3.402z" fill="#ffdbc2"/><path d="m331.015 336.575c-1.786-35.688-31.351-64.063-67.578-64.063-23.783 0-44.703 12.246-56.778 30.756 9.836 16.639 50.117 33.307 95.585 33.307z" fill="#9d9696"/><path d="m178.227 275.63c-1.644-32.967-28.97-59.188-62.447-59.188-4.535 0-8.986.482-13.266 1.417 21.203 4.564 38.41 19.899 45.61 39.94 2.013 5.613 3.232 11.622 3.543 17.83h26.56z" fill="#746e6e"/><path d="m178.227 275.63h-26.561c.057 1.049.085 2.098.085 3.146 0 23.216-12.728 43.455-31.578 54.199-5.443 3.09-11.367 5.386-17.66 6.746 4.28.907 8.731 1.417 13.266 1.417 11.282 0 21.827-2.976 30.954-8.164 18.85-10.743 31.578-30.983 31.578-54.199.002-1.047-.027-2.096-.084-3.145z" fill="#fcbda4"/><path d="m331.015 336.575c-1.786-35.688-31.351-64.063-67.578-64.063-4.932 0-9.751.51-14.372 1.531 24.35 5.244 43.795 23.556 50.627 47.225 1.417 4.904 2.296 10.006 2.551 15.307z" fill="#746e6e"/><path d="m331.015 336.575h-28.772c.057 1.134.085 2.268.085 3.402 0 8.816-1.701 17.235-4.791 24.973-3.26 8.164-8.079 15.534-14.088 21.77-1.134 1.191-2.296 2.324-3.515 3.402-2.608 2.353-5.414 4.507-8.391 6.435-1.219.794-2.438 1.531-3.685 2.239-5.783 3.232-12.104 5.669-18.794 7.115 4.62.992 9.439 1.531 14.372 1.531 6.832 0 13.408-1.02 19.616-2.891 4.762-1.417 9.298-3.373 13.55-5.754 13.38-7.54 23.953-19.474 29.707-33.846 3.09-7.739 4.791-16.158 4.791-24.973 0-1.135-.028-2.269-.085-3.403z" fill="#fcbda4"/><path d="m473.598 278.55c-.113-34.328-28.063-62.107-62.504-62.107-3.798 0-7.54.34-11.14.992 24.718 4.422 44.419 23.358 49.862 47.651.992 4.337 1.502 8.844 1.531 13.465h22.251z" fill="#746e6e"/><path d="m473.598 278.55h-22.252v.227c0 23.244-12.756 43.512-31.635 54.227-6.038 3.43-12.699 5.868-19.758 7.143 3.6.652 7.342.992 11.14.992 11.225 0 21.77-2.976 30.869-8.135 18.879-10.715 31.635-30.983 31.635-54.227v-.227z" fill="#fcbda4"/><path d="m230.102 398.711c-13.295-7.54-23.811-19.446-29.537-33.761-12.132-12.359-27.269-22.252-43.71-28.573 16.016 20.551 25.795 47.991 25.795 78.123 0 3.26-.113 6.463-.34 9.666 13.974-11.566 30.444-20.41 47.792-25.455z" fill="#ef2929"/><path d="m474.959 347.942c-10.772-7.2-20.608-11.367-32.995-14.939-7.965 4.535-17.036 7.342-26.702 7.994 10.913 18.624 17.32 41.216 17.32 65.594 0 5.839-.368 11.622-1.077 17.263 19.756-23.017 34.185-48.813 43.454-75.912z" fill="#ef2929"/><path d="m376.908 469.775c-13.323-33.449-44.702-60.293-80.306-70.98-2.891 1.616-5.896 3.033-9.014 4.224 1.219 2.324 2.381 4.677 3.487 7.115 7.257 16.129 11.395 34.554 11.395 54.114 0 12.756-1.758 25.03-4.989 36.482 27.865-5.046 54.907-15.222 79.625-30.444z" fill="#e0d2ce"/><path d="m474.959 347.942c29.282-85.862 6.236-184.706-66.104-248.429-23.131-20.381-49.181-35.291-76.621-44.844 7.285 13.124 11.424 28.233 11.424 44.277 0 4.762-.369 9.439-1.049 14.032 30.331 29.48 50.939 65.481 61.54 103.833 2.296-.227 4.592-.368 6.945-.368 34.441 0 62.391 27.78 62.504 62.107v.227c0 23.244-12.756 43.512-31.635 54.227 12.388 3.571 22.224 7.738 32.996 14.938z" fill="#00c7dd"/><path d="m252.212 7.5c-35.887 0-66.926 20.636-81.922 50.684-6.123 12.274-9.553 26.136-9.553 40.762 0 50.542 40.932 91.474 91.474 91.474 50.514 0 91.446-40.932 91.446-91.474 0-16.044-4.139-31.153-11.424-44.277-15.589-28.148-45.58-47.169-80.021-47.169z" fill="#80d261"/><path d="m332.234 54.669c-15.59-28.148-45.581-47.169-80.022-47.169-3.005 0-5.981.142-8.901.425 16.356 7.682 30.047 20.041 39.373 35.405.624 1.02 1.219 2.069 1.814 3.118 7.285 13.124 11.424 28.233 11.424 44.306 0 47.509-36.227 86.57-82.573 91.021 11.792 5.556 24.945 8.646 38.863 8.646 50.514 0 91.446-40.932 91.446-91.474 0-16.045-4.139-31.154-11.424-44.278z" fill="#4fc122"/></g><path d="m494.328 258.006c-4.039-63.672-32.634-121.958-80.519-164.124-22.661-19.939-48.383-35.168-76.476-45.324-17.259-29.047-48.952-48.558-85.121-48.558-37.708 0-70.555 21.193-87.258 52.289-34.053 13.994-63.742 35.161-88.252 62.99-7.463 8.475-14.345 17.494-20.456 26.807-2.272 3.463-1.307 8.112 2.156 10.385 1.269.832 2.696 1.23 4.108 1.23 2.442 0 4.837-1.191 6.277-3.387 5.724-8.723 12.175-17.176 19.172-25.122 19.598-22.252 42.728-39.955 68.909-52.822-2.363 8.46-3.631 17.373-3.631 26.577 0 54.574 44.399 98.974 98.974 98.974 29.315 0 56.959-12.898 75.845-35.389 2.664-3.172 2.251-7.903-.921-10.566-3.171-2.664-7.903-2.253-10.566.92-16.028 19.088-39.485 30.035-64.357 30.035-46.304 0-83.974-37.671-83.974-83.974 0-46.288 37.67-83.946 83.974-83.946 46.288 0 83.946 37.658 83.946 83.946 0 9.176-1.452 18.158-4.316 26.698-1.317 3.927.799 8.179 4.726 9.495 3.928 1.317 8.178-.798 9.496-4.726 3.38-10.08 5.095-20.667 5.095-31.468 0-10.698-1.713-21.001-4.868-30.659 20.885 9.199 40.208 21.544 57.609 36.854 47.681 41.987 73.198 99.913 75.613 158.88-6.808-31.442-34.892-55.079-68.418-55.079-25.737 0-48.261 13.926-60.432 34.608-.236.345-.448.703-.623 1.079-5.706 10.104-8.977 21.749-8.977 34.147 0 20.56 8.953 39.07 23.169 51.865-9.08 3.778-17.785 8.592-25.811 14.261.107-1.63.18-3.269.18-4.926 0-1.009-.037-2.009-.076-3.008.007-.131.02-.261.02-.394 0-.381-.038-.753-.092-1.119-2.353-39.238-35.092-70.444-75.014-70.444-26.109 0-49.141 13.352-62.62 33.562-.335.418-.624.865-.86 1.337-7.386 11.599-11.684 25.337-11.684 40.066 0 1.652.06 3.291.167 4.917-8.026-5.668-16.73-10.481-25.81-14.257 14.22-12.793 23.182-31.297 23.182-51.86 0-.952-.034-1.895-.072-2.838.004-.103.016-.204.016-.309 0-.354-.033-.7-.08-1.041-2.18-36.564-32.69-65.647-69.895-65.647-24.357 0-45.838 12.48-58.383 31.36-.249.323-.466.665-.657 1.021-6.93 10.832-10.965 23.677-10.965 37.453 0 20.552 8.949 39.048 23.151 51.84-9.078 3.676-17.72 8.255-25.485 13.5-7.623-22.736-11.551-46.597-11.553-70.677-.003-30.574 6.298-61.497 19.315-90.896.436-.983.643-2.011.644-3.021.004-2.882-1.662-5.631-4.465-6.872-3.786-1.678-8.217.033-9.895 3.821-13.44 30.355-20.308 63.61-20.307 96.913 0 16.554 1.698 33.119 5.129 49.347 2.381 11.263 5.538 22.24 9.428 32.881-.279 2.008.244 4.122 1.637 5.809.293.355.618.666.958.953 13.752 34.331 35.327 64.931 63.648 89.913.038.033.076.067.114.101 44 38.745 99.43 59.617 157.533 59.614 5.129 0 10.29-.163 15.455-.491 63.671-4.039 121.957-32.634 164.122-80.517 42.164-47.884 63.161-109.318 59.121-172.987zm-83.234-34.064c27.698 0 50.668 20.519 54.448 47.107h-18.958c-38.866 0-69.9-13.013-80.549-23.697 9.963-14.14 26.441-23.41 45.059-23.41zm-55.032 54.834c0-6.154 1.038-12.067 2.923-17.593 17.585 14.507 52.554 24.867 87.6 24.867h19.015c-3.58 26.823-26.65 47.589-54.506 47.589-30.345 0-55.032-24.612-55.032-54.863zm-92.625 1.236c29.438 0 53.988 21.188 59.148 49.063h-20.342c-38.498 0-74.019-12.991-86.249-25.907 11.019-14.078 28.182-23.156 47.443-23.156zm-55.296 36.356c18.235 16.109 56.119 27.708 94.102 27.708h21.201c-2.123 31.158-28.216 55.866-60.007 55.866-33.174 0-60.164-26.9-60.164-59.965.001-8.379 1.74-16.359 4.868-23.609zm-92.361-92.426c26.689 0 48.993 19.031 53.982 44.188h-18.096c-37.926 0-68.259-12.812-78.927-23.437 10.086-12.631 25.626-20.751 43.041-20.751zm-55.004 54.834c0-7.392 1.484-14.443 4.155-20.884 17.198 14.704 51.931 25.238 86.736 25.238h18.956c-2.235 28.221-25.97 50.509-54.843 50.509-30.329 0-55.004-24.612-55.004-54.863zm47.235 162.354c-26.449-23.302-46.342-51.625-59.148-82.51 10.201-7.409 22.449-13.514 35.279-17.55 7.392 3.753 15.532 6.243 24.139 7.162v42.145c0 4.143 3.358 7.5 7.5 7.5s7.5-3.357 7.5-7.5v-42.144c8.631-.921 16.794-3.42 24.204-7.188 17.474 5.527 33.941 15.458 46.78 28.225 4.486 10.483 11.298 19.749 19.789 27.148-32.839 13.518-59.799 39.206-72.409 69.236-11.82-7.051-23.082-15.232-33.634-24.524zm162.123 55.41c-40.494 2.574-80.025-5.679-115.282-23.596 11.927-29.961 40.383-55.327 74.537-66.168 8.117 4.132 17.071 6.851 26.548 7.791v46.167c0 4.143 3.358 7.5 7.5 7.5s7.5-3.357 7.5-7.5v-46.167c9.4-.933 18.286-3.615 26.351-7.691 31.116 10.189 57.454 32.877 70.353 60.378-29.435 16.973-62.605 27.072-97.507 29.286zm153.813-75.46c-12.988 14.749-27.616 27.531-43.511 38.2-13.36-27.27-38.164-50.107-67.838-62.669 8.601-7.436 15.509-16.77 20.03-27.359 12.838-12.761 29.301-22.685 46.769-28.21 7.409 3.769 15.567 6.27 24.197 7.191v42.144c0 4.143 3.358 7.5 7.5 7.5s7.5-3.357 7.5-7.5v-42.145c8.61-.92 16.751-3.413 24.145-7.17 8.925 2.747 16.06 5.821 23.066 9.973-9.265 25.046-23.18 48.834-41.858 70.045zm46.672-84.581c-4.031-2.239-8.142-4.19-12.565-5.958 9.47-8.564 16.571-19.679 20.241-32.24-1.438 12.874-3.995 25.657-7.676 38.198z"/><path d="m280.526 64.65-42.692 53.055-14.804-13.262c-3.084-2.765-7.826-2.504-10.59.581s-2.504 7.827.582 10.591l20.693 18.539c1.38 1.237 3.165 1.914 5.004 1.914.203 0 .406-.008.61-.024 2.051-.168 3.943-1.17 5.234-2.773l47.65-59.216c2.597-3.228 2.086-7.948-1.142-10.545-3.227-2.597-7.947-2.086-10.545 1.14z"/></svg>